<svg id="svg" version="1.1" xmlns="http://www.w3.org/2000/svg" xmlns:xlink="http://www.w3.org/1999/xlink" width="400" height="400" viewBox="0, 0, 400,400"><g id="svgg"><path id="path0" d="M187.778 73.335 C 187.778 73.676,196.229 73.449,196.636 73.097 C 196.721 73.023,194.762 72.963,192.284 72.963 C 189.514 72.963,187.778 73.106,187.778 73.335 M206.111 73.206 C 211.540 73.526,217.061 74.335,223.796 75.797 C 224.435 75.936,224.815 75.863,224.815 75.602 C 224.815 75.363,224.184 75.185,223.333 75.185 C 222.519 75.185,221.852 75.019,221.852 74.815 C 221.852 74.611,221.019 74.444,220.000 74.444 C 218.981 74.444,218.148 74.278,218.148 74.074 C 218.148 73.868,217.160 73.704,215.926 73.704 C 214.691 73.704,213.704 73.539,213.704 73.333 C 213.704 73.102,211.927 72.988,208.981 73.030 C 206.384 73.066,205.093 73.146,206.111 73.206 M181.852 74.074 C 181.852 74.278,181.019 74.444,180.000 74.444 C 178.981 74.444,178.148 74.611,178.148 74.815 C 178.148 75.019,177.648 75.185,177.037 75.185 C 176.426 75.185,175.926 75.352,175.926 75.556 C 175.926 76.010,176.064 76.008,178.148 75.510 C 179.065 75.291,181.565 74.811,183.704 74.443 L 187.593 73.773 184.722 73.738 C 183.032 73.718,181.852 73.856,181.852 74.074 M172.222 76.296 C 172.222 76.500,171.722 76.667,171.111 76.667 C 170.500 76.667,170.000 76.833,170.000 77.037 C 170.000 77.241,169.333 77.407,168.519 77.407 C 167.704 77.407,167.037 77.574,167.037 77.778 C 167.037 77.981,166.704 78.148,166.296 78.148 C 165.889 78.148,165.556 78.315,165.556 78.519 C 165.556 78.722,165.056 78.889,164.444 78.889 C 163.833 78.889,163.333 79.056,163.333 79.259 C 163.333 79.463,163.000 79.630,162.593 79.630 C 162.185 79.630,161.852 79.796,161.852 80.000 C 161.852 80.204,161.352 80.370,160.741 80.370 C 160.130 80.370,159.630 80.537,159.630 80.741 C 159.630 80.944,159.296 81.111,158.889 81.111 C 158.481 81.111,158.148 81.278,158.148 81.481 C 158.148 81.685,157.815 81.852,157.407 81.852 C 157.000 81.852,156.667 82.019,156.667 82.222 C 156.667 82.426,156.333 82.593,155.926 82.593 C 155.519 82.593,155.185 82.759,155.185 82.963 C 155.185 83.167,154.852 83.333,154.444 83.333 C 154.037 83.333,153.704 83.500,153.704 83.704 C 153.704 83.907,153.370 84.074,152.963 84.074 C 152.556 84.074,152.222 84.241,152.222 84.444 C 152.222 84.648,151.889 84.815,151.481 84.815 C 151.074 84.815,150.741 84.981,150.741 85.185 C 150.741 85.389,150.444 85.556,150.082 85.556 C 149.719 85.556,149.183 85.889,148.889 86.296 C 148.595 86.704,148.058 87.037,147.696 87.037 C 147.334 87.037,147.037 87.204,147.037 87.407 C 147.037 87.611,146.771 87.778,146.445 87.778 C 146.119 87.778,145.386 88.278,144.815 88.889 C 144.244 89.500,143.547 90.000,143.266 90.000 C 142.986 90.000,142.516 90.333,142.222 90.741 C 141.929 91.148,141.459 91.481,141.178 91.481 C 140.897 91.481,140.200 91.981,139.630 92.593 C 139.059 93.204,138.404 93.704,138.175 93.704 C 137.946 93.704,135.472 95.999,132.676 98.805 C 129.880 101.611,127.468 103.945,127.315 103.991 C 127.162 104.037,127.045 104.166,127.055 104.279 C 127.065 104.391,126.565 104.958,125.944 105.539 C 125.323 106.119,124.815 106.860,124.815 107.186 C 124.815 107.511,124.648 107.778,124.444 107.778 C 124.241 107.778,124.074 108.041,124.074 108.362 C 124.074 108.684,123.407 109.587,122.593 110.370 C 121.484 111.435,121.111 112.085,121.111 112.951 C 121.111 114.199,119.723 115.926,118.721 115.926 C 118.406 115.926,118.148 116.222,118.148 116.585 C 118.148 116.947,117.815 117.484,117.407 117.778 C 117.000 118.071,116.667 118.608,116.667 118.971 C 116.667 119.333,116.500 119.630,116.296 119.630 C 116.093 119.630,115.926 119.963,115.926 120.370 C 115.926 120.778,115.759 121.111,115.556 121.111 C 115.352 121.111,115.185 121.444,115.185 121.852 C 115.185 122.259,115.019 122.593,114.815 122.593 C 114.611 122.593,114.444 122.926,114.444 123.333 C 114.444 123.741,114.278 124.074,114.074 124.074 C 113.870 124.074,113.704 124.407,113.704 124.815 C 113.704 125.222,113.537 125.556,113.333 125.556 C 113.130 125.556,112.963 125.852,112.963 126.215 C 112.963 126.577,112.630 127.114,112.222 127.407 C 111.720 127.769,111.481 128.366,111.481 129.259 C 111.481 130.152,111.243 130.749,110.741 131.111 C 110.306 131.425,110.000 132.070,110.000 132.674 C 110.000 133.240,109.833 133.704,109.630 133.704 C 109.426 133.704,109.259 134.334,109.259 135.103 C 109.259 136.078,109.034 136.665,108.519 137.037 C 108.003 137.409,107.778 137.996,107.778 138.971 C 107.778 139.740,107.611 140.370,107.407 140.370 C 107.204 140.370,107.057 140.995,107.080 141.759 C 107.121 143.049,107.178 142.970,107.890 140.648 L 108.655 138.148 148.581 138.148 L 188.507 138.148 189.637 137.130 C 191.973 135.024,191.105 131.482,188.002 130.459 C 186.894 130.094,178.515 130.014,149.405 130.089 C 119.571 130.166,112.222 130.092,112.222 129.715 C 112.222 128.856,117.929 118.046,119.069 116.747 C 119.119 116.689,136.975 116.645,158.747 116.648 C 181.398 116.652,198.952 116.510,199.781 116.316 C 203.196 115.517,204.372 111.774,201.902 109.566 L 200.729 108.519 162.944 108.519 C 120.841 108.519,124.555 108.766,126.842 106.111 C 138.577 92.494,155.014 81.919,172.037 77.034 C 175.557 76.024,175.653 75.970,173.981 75.948 C 173.014 75.936,172.222 76.093,172.222 76.296 M225.216 76.066 C 225.301 76.143,226.927 76.650,228.829 77.193 C 256.731 85.157,280.555 107.776,291.275 136.481 C 292.669 140.216,292.937 140.704,292.949 139.537 C 292.957 138.773,292.796 138.148,292.593 138.148 C 292.389 138.148,292.222 137.648,292.222 137.037 C 292.222 136.426,292.056 135.926,291.852 135.926 C 291.648 135.926,291.481 135.593,291.481 135.185 C 291.481 134.778,291.315 134.444,291.111 134.444 C 290.907 134.444,290.741 133.944,290.741 133.333 C 290.741 132.722,290.574 132.222,290.370 132.222 C 290.167 132.222,290.000 131.889,290.000 131.481 C 290.000 131.074,289.833 130.741,289.630 130.741 C 289.426 130.741,289.259 130.241,289.259 129.630 C 289.259 129.019,289.093 128.519,288.889 128.519 C 288.685 128.519,288.519 128.185,288.519 127.778 C 288.519 127.370,288.352 127.037,288.148 127.037 C 287.944 127.037,287.778 126.704,287.778 126.296 C 287.778 125.889,287.611 125.556,287.407 125.556 C 287.204 125.556,287.037 125.222,287.037 124.815 C 287.037 124.407,286.870 124.074,286.667 124.074 C 286.463 124.074,286.296 123.741,286.296 123.333 C 286.296 122.926,286.130 122.593,285.926 122.593 C 285.722 122.593,285.556 122.296,285.556 121.934 C 285.556 121.571,285.222 121.034,284.815 120.741 C 284.407 120.447,284.074 119.910,284.074 119.548 C 284.074 119.185,283.907 118.889,283.704 118.889 C 283.500 118.889,283.333 118.592,283.333 118.230 C 283.333 117.867,283.000 117.331,282.593 117.037 C 282.185 116.743,281.852 116.243,281.852 115.926 C 281.852 115.608,281.519 115.108,281.111 114.815 C 280.704 114.521,280.370 114.021,280.370 113.704 C 280.370 113.386,280.037 112.886,279.630 112.593 C 279.222 112.299,278.889 111.829,278.889 111.548 C 278.889 111.268,278.389 110.571,277.778 110.000 C 277.167 109.429,276.667 108.778,276.667 108.553 C 276.667 108.018,261.611 92.963,261.077 92.963 C 260.852 92.963,260.200 92.463,259.630 91.852 C 259.059 91.241,258.362 90.741,258.081 90.741 C 257.801 90.741,257.331 90.407,257.037 90.000 C 256.743 89.593,256.243 89.259,255.926 89.259 C 255.608 89.259,255.108 88.926,254.815 88.519 C 254.521 88.111,253.984 87.778,253.622 87.778 C 253.260 87.778,252.963 87.611,252.963 87.407 C 252.963 87.204,252.666 87.037,252.304 87.037 C 251.942 87.037,251.405 86.704,251.111 86.296 C 250.817 85.889,250.281 85.556,249.918 85.556 C 249.556 85.556,249.259 85.389,249.259 85.185 C 249.259 84.981,248.926 84.815,248.519 84.815 C 248.111 84.815,247.778 84.648,247.778 84.444 C 247.778 84.241,247.444 84.074,247.037 84.074 C 246.630 84.074,246.296 83.907,246.296 83.704 C 246.296 83.500,246.000 83.333,245.637 83.333 C 245.275 83.333,244.738 83.000,244.444 82.593 C 244.151 82.185,243.541 81.852,243.088 81.852 C 242.636 81.852,242.163 81.685,242.037 81.481 C 241.911 81.278,241.485 81.111,241.089 81.111 C 240.694 81.111,240.370 80.944,240.370 80.741 C 240.370 80.537,240.037 80.370,239.630 80.370 C 239.222 80.370,238.889 80.204,238.889 80.000 C 238.889 79.796,238.389 79.630,237.778 79.630 C 237.167 79.630,236.667 79.463,236.667 79.259 C 236.667 79.056,236.333 78.889,235.926 78.889 C 235.519 78.889,235.185 78.722,235.185 78.519 C 235.185 78.315,234.685 78.148,234.074 78.148 C 233.463 78.148,232.963 77.981,232.963 77.778 C 232.963 77.574,232.463 77.407,231.852 77.407 C 231.241 77.407,230.741 77.241,230.741 77.037 C 230.741 76.833,230.241 76.667,229.630 76.667 C 229.019 76.667,228.519 76.500,228.519 76.296 C 228.519 76.093,227.741 75.926,226.790 75.926 C 225.840 75.926,225.131 75.989,225.216 76.066 M206.948 88.903 C 206.029 90.232,205.781 90.370,204.325 90.370 C 202.221 90.370,202.156 90.482,203.026 92.576 L 203.765 94.354 202.993 95.867 C 202.090 97.637,202.523 98.148,204.926 98.148 C 205.999 98.148,206.351 98.379,207.178 99.630 C 208.387 101.456,208.500 101.458,209.604 99.671 C 210.403 98.378,210.679 98.213,212.292 98.058 C 214.608 97.835,214.647 97.775,213.688 95.895 L 212.880 94.311 213.669 92.687 C 214.642 90.685,214.468 90.370,212.391 90.370 C 210.888 90.370,210.669 90.247,209.771 88.889 C 208.558 87.056,208.224 87.058,206.948 88.903 M238.639 92.905 C 238.436 93.039,237.386 94.453,236.305 96.048 C 234.158 99.215,233.504 99.628,230.624 99.634 C 225.314 99.645,224.900 100.194,227.020 104.411 C 228.869 108.088,228.869 108.193,226.986 112.245 C 225.038 116.438,225.094 116.522,230.069 116.875 C 234.233 117.170,233.782 116.886,236.680 121.041 C 239.068 124.464,239.363 124.428,242.120 120.370 L 244.259 117.222 248.333 116.797 C 250.574 116.563,252.449 116.355,252.500 116.334 C 252.905 116.169,252.358 114.384,251.111 111.806 C 249.307 108.076,249.306 108.500,251.123 104.750 C 253.294 100.267,253.024 99.783,248.287 99.673 C 244.582 99.588,244.335 99.446,242.068 96.109 C 239.988 93.048,239.339 92.441,238.639 92.905 M212.853 129.423 C 206.117 131.826,203.153 139.606,206.488 146.127 C 211.327 155.588,226.081 153.248,228.159 142.689 C 229.858 134.051,221.117 126.475,212.853 129.423 M257.726 132.925 C 256.886 134.141,256.507 134.366,255.023 134.533 C 252.807 134.783,252.818 134.764,253.712 136.784 L 254.470 138.498 253.702 140.002 C 252.748 141.872,252.953 142.222,254.998 142.222 C 256.466 142.222,256.717 142.361,257.661 143.696 C 258.627 145.061,259.630 145.645,259.630 144.843 C 259.630 143.703,261.602 142.222,263.119 142.222 C 265.183 142.222,265.250 142.105,264.381 140.016 L 263.643 138.239 264.424 136.707 L 265.206 135.175 264.245 134.810 C 263.717 134.609,262.824 134.444,262.260 134.444 C 261.488 134.444,261.014 134.108,260.340 133.080 C 259.154 131.274,258.880 131.258,257.726 132.925 M292.963 141.292 C 292.963 141.392,293.323 142.767,293.764 144.348 C 294.204 145.929,294.854 148.556,295.207 150.185 L 295.851 153.148 295.888 150.833 C 295.910 149.512,295.767 148.519,295.556 148.519 C 295.352 148.519,295.185 147.852,295.185 147.037 C 295.185 146.222,295.019 145.556,294.815 145.556 C 294.611 145.556,294.444 145.056,294.444 144.444 C 294.444 143.833,294.278 143.333,294.074 143.333 C 293.870 143.333,293.704 142.833,293.704 142.222 C 293.704 141.611,293.537 141.111,293.333 141.111 C 293.130 141.111,292.963 141.193,292.963 141.292 M106.296 144.444 C 106.296 145.056,106.130 145.556,105.926 145.556 C 105.722 145.556,105.556 146.222,105.556 147.037 C 105.556 147.852,105.389 148.519,105.185 148.519 C 104.975 148.519,104.837 149.442,104.865 150.648 C 104.893 151.819,104.989 152.361,105.078 151.852 C 105.167 151.343,105.645 149.312,106.139 147.340 C 107.170 143.223,107.156 143.333,106.667 143.333 C 106.463 143.333,106.296 143.833,106.296 144.444 M142.549 151.252 C 130.963 155.392,134.204 172.005,146.407 171.025 C 151.898 170.584,155.537 166.899,155.859 161.454 C 156.269 154.500,149.016 148.941,142.549 151.252 M104.074 156.302 C 104.074 158.853,103.425 161.852,102.873 161.852 C 102.719 161.852,102.593 166.685,102.593 172.593 C 102.593 179.506,102.725 183.333,102.963 183.333 C 103.182 183.333,103.333 184.691,103.333 186.667 C 103.333 188.642,103.484 190.000,103.704 190.000 C 103.907 190.000,104.074 190.667,104.074 191.481 C 104.074 192.296,104.241 192.963,104.444 192.963 C 104.648 192.963,104.815 193.296,104.815 193.704 C 104.815 194.111,104.992 194.444,105.208 194.444 C 105.464 194.444,105.514 193.863,105.351 192.778 L 105.101 191.111 111.902 191.109 C 119.375 191.107,121.072 190.822,122.205 189.382 C 123.277 188.019,123.216 185.691,122.071 184.259 L 121.183 183.148 112.351 182.963 L 103.519 182.778 103.289 180.000 C 102.984 176.308,102.915 164.845,103.192 163.814 C 103.409 163.003,103.473 162.997,112.975 162.888 C 124.603 162.754,126.049 162.155,124.975 157.916 C 124.272 155.139,123.727 155.000,113.581 155.000 C 105.261 155.000,104.637 154.954,104.738 154.352 C 104.798 153.995,104.673 153.704,104.461 153.704 C 104.229 153.704,104.074 154.744,104.074 156.302 M295.926 154.444 C 295.926 155.169,295.679 155.185,284.342 155.185 C 270.565 155.185,269.780 155.462,270.779 159.963 C 271.414 162.826,271.115 162.765,284.969 162.884 L 297.326 162.991 297.587 165.085 C 297.731 166.236,297.728 170.480,297.581 174.515 C 297.385 179.871,297.426 181.852,297.731 181.852 C 298.030 181.852,298.148 179.025,298.148 171.852 C 298.148 165.432,298.016 161.852,297.778 161.852 C 297.574 161.852,297.407 161.519,297.407 161.111 C 297.407 160.704,297.241 160.370,297.037 160.370 C 296.818 160.370,296.667 159.012,296.667 157.037 C 296.667 155.062,296.516 153.704,296.296 153.704 C 296.093 153.704,295.926 154.037,295.926 154.444 M213.704 155.819 C 198.568 157.260,191.221 166.961,187.032 191.035 C 185.075 202.282,186.038 205.487,191.113 204.629 C 193.908 204.157,194.423 203.149,195.755 195.536 C 197.650 184.711,201.404 172.393,202.480 173.467 C 202.644 173.631,202.876 183.126,202.996 194.567 C 203.236 217.563,203.110 216.125,206.068 229.444 C 208.591 240.806,209.092 242.543,210.274 244.030 C 214.139 248.893,222.376 247.624,224.236 241.880 C 225.049 239.368,226.858 231.931,227.937 226.667 C 229.913 217.020,230.065 214.856,230.265 193.594 C 230.403 178.928,230.564 173.706,230.874 173.808 C 232.288 174.273,235.760 186.890,237.215 196.852 C 238.565 206.095,239.014 207.037,242.077 207.037 C 247.147 207.037,247.926 203.842,245.894 191.381 C 241.453 164.145,232.312 154.047,213.704 155.819 M260.281 173.490 C 252.980 176.096,252.248 186.457,259.120 189.920 C 266.619 193.699,274.886 185.984,271.647 178.229 C 269.931 174.120,264.666 171.925,260.281 173.490 M142.778 175.712 C 136.310 177.550,134.648 179.736,124.795 199.363 C 119.517 209.876,119.220 210.727,120.183 212.589 C 122.459 216.989,126.276 215.397,129.455 208.722 C 134.107 198.951,136.666 193.949,136.662 194.634 C 136.656 195.728,134.793 203.592,132.418 212.553 C 130.082 221.368,130.082 221.364,132.766 221.813 L 134.101 222.037 129.643 231.026 C 124.373 241.651,124.159 243.434,127.959 245.022 C 131.698 246.585,132.104 246.133,138.574 233.190 C 145.107 220.120,143.987 221.903,145.815 221.673 C 147.858 221.416,147.657 220.992,151.230 233.074 C 155.139 246.294,155.883 247.462,159.677 246.326 C 163.036 245.319,163.593 243.071,161.876 237.448 C 160.014 231.352,157.407 222.258,157.407 221.861 C 157.407 221.638,158.473 221.481,159.987 221.481 C 162.067 221.481,162.632 221.356,162.907 220.833 C 163.212 220.251,158.809 203.982,154.979 191.536 C 153.736 187.499,153.826 187.499,157.401 191.554 C 163.095 198.011,162.773 197.761,170.288 201.596 C 179.223 206.155,181.961 206.263,182.744 202.085 C 183.288 199.188,182.607 198.549,174.575 194.411 L 168.529 191.296 163.122 185.293 C 154.807 176.061,149.818 173.712,142.778 175.712 M297.087 182.500 C 297.049 182.854,295.189 182.963,289.167 182.964 C 279.942 182.964,279.074 183.187,278.176 185.786 C 276.759 189.885,278.744 190.912,288.199 190.971 C 292.200 190.996,295.684 191.147,295.942 191.306 C 296.247 191.495,296.319 191.447,296.146 191.168 C 296.001 190.933,296.059 190.741,296.274 190.741 C 296.521 190.741,296.667 189.516,296.667 187.438 C 296.667 185.369,296.819 184.085,297.073 184.000 C 297.297 183.926,297.403 183.453,297.309 182.951 C 297.215 182.448,297.115 182.245,297.087 182.500 M293.716 198.582 C 290.940 207.730,291.183 207.407,287.069 207.407 C 282.960 207.407,281.549 208.553,282.963 210.741 C 283.252 211.188,283.323 211.131,283.328 210.446 C 283.340 208.611,284.848 207.778,288.158 207.778 C 291.461 207.778,292.222 207.401,292.222 205.767 C 292.222 205.243,292.389 204.815,292.593 204.815 C 292.796 204.815,292.963 204.148,292.963 203.333 C 292.963 202.519,293.130 201.852,293.333 201.852 C 293.537 201.852,293.704 201.352,293.704 200.741 C 293.704 200.130,293.870 199.630,294.074 199.630 C 294.278 199.630,294.444 199.130,294.444 198.519 C 294.444 197.907,294.611 197.407,294.815 197.407 C 295.019 197.407,295.185 196.755,295.185 195.957 C 295.185 195.159,295.365 194.446,295.585 194.373 C 295.805 194.300,295.930 193.716,295.863 193.075 C 295.773 192.216,295.210 193.661,293.716 198.582 M260.000 194.791 C 256.850 195.753,253.753 198.456,251.423 202.279 C 250.759 203.368,248.817 206.343,247.107 208.889 C 242.577 215.634,242.423 216.030,243.512 218.136 C 245.330 221.650,247.932 220.475,252.275 214.178 C 254.181 211.414,256.110 208.719,256.562 208.188 L 257.384 207.222 257.401 208.704 C 257.410 209.519,257.145 217.396,256.811 226.210 L 256.206 242.234 257.177 243.702 C 260.412 248.590,269.205 247.328,270.644 241.769 C 271.107 239.980,270.500 227.480,269.115 210.299 C 268.874 207.321,269.640 208.380,272.429 214.882 C 276.312 223.935,278.172 225.588,281.140 222.621 C 283.008 220.753,282.366 218.821,274.050 201.296 C 271.607 196.147,265.229 193.194,260.000 194.791 M105.573 196.389 C 105.563 197.356,105.722 198.148,105.926 198.148 C 106.130 198.148,106.296 198.648,106.296 199.259 C 106.296 199.870,106.463 200.370,106.667 200.370 C 106.870 200.370,107.037 200.870,107.037 201.481 C 107.037 202.093,107.204 202.593,107.407 202.593 C 107.611 202.593,107.778 203.093,107.778 203.704 C 107.778 204.315,107.944 204.815,108.148 204.815 C 108.352 204.815,108.519 205.148,108.519 205.556 C 108.519 205.963,108.685 206.296,108.889 206.296 C 109.093 206.296,109.259 206.630,109.259 207.037 C 109.259 207.679,109.506 207.778,111.111 207.778 C 112.943 207.778,112.963 207.790,112.963 208.951 C 112.963 210.360,113.146 210.240,113.452 208.631 L 113.677 207.447 111.931 207.335 C 109.805 207.198,108.998 205.848,106.884 198.889 C 105.677 194.916,105.588 194.748,105.573 196.389 M187.584 207.924 C 186.292 208.487,185.556 209.853,185.556 211.684 C 185.556 212.808,185.441 212.963,184.611 212.963 C 181.344 212.963,181.111 213.642,181.111 223.157 C 181.111 233.085,180.309 232.222,189.544 232.222 C 198.763 232.222,198.148 232.881,198.148 222.997 C 198.148 214.648,198.004 214.023,195.876 213.171 C 194.740 212.717,194.444 212.404,194.444 211.658 C 194.444 208.109,191.206 206.346,187.584 207.924 M191.009 210.300 C 192.348 211.150,191.708 212.405,189.876 212.522 C 188.156 212.631,188.095 212.602,188.347 211.781 C 188.856 210.122,189.855 209.566,191.009 210.300 M113.004 212.315 C 112.981 213.515,113.125 214.444,113.333 214.444 C 113.537 214.444,113.704 214.778,113.704 215.185 C 113.704 215.593,113.870 215.926,114.074 215.926 C 114.278 215.926,114.444 216.181,114.444 216.494 C 114.444 217.231,116.843 219.630,117.580 219.630 C 117.893 219.630,118.148 219.796,118.148 220.000 C 118.148 220.210,119.214 220.370,120.605 220.370 C 122.661 220.370,123.174 220.501,123.755 221.170 C 124.572 222.113,124.993 221.873,124.684 220.641 C 124.479 219.822,124.326 219.776,122.296 219.923 C 118.051 220.230,114.363 216.850,113.349 211.725 L 113.044 210.185 113.004 212.315 M124.859 223.796 C 124.835 224.764,124.981 225.556,125.185 225.556 C 125.602 225.556,125.602 224.786,125.185 223.148 C 124.933 222.156,124.898 222.226,124.859 223.796 M124.820 229.537 C 124.825 230.331,124.905 230.433,125.185 230.000 C 125.653 229.275,125.653 228.519,125.185 228.519 C 124.981 228.519,124.817 228.977,124.820 229.537 M177.500 241.018 C 182.338 241.077,190.255 241.077,195.093 241.018 C 199.931 240.960,195.972 240.912,186.296 240.912 C 176.620 240.912,172.662 240.960,177.500 241.018 M234.745 241.018 C 237.864 241.080,242.864 241.080,245.856 241.018 C 248.848 240.955,246.296 240.905,240.185 240.905 C 234.074 240.905,231.626 240.956,234.745 241.018 M128.611 250.255 C 128.968 250.348,129.551 250.348,129.907 250.255 C 130.264 250.162,129.972 250.086,129.259 250.086 C 128.546 250.086,128.255 250.162,128.611 250.255 M262.690 251.007 C 263.253 251.092,264.087 251.089,264.542 251.001 C 264.998 250.914,264.537 250.844,263.519 250.847 C 262.500 250.849,262.127 250.921,262.690 251.007 M253.056 257.663 C 253.412 257.756,253.995 257.756,254.352 257.663 C 254.708 257.570,254.417 257.493,253.704 257.493 C 252.991 257.493,252.699 257.570,253.056 257.663 M178.148 258.029 C 183.048 258.296,188.806 258.311,188.647 258.056 C 188.553 257.903,185.693 257.809,182.293 257.848 C 178.893 257.886,177.028 257.968,178.148 258.029 M213.204 258.056 C 213.109 258.208,214.975 258.290,217.349 258.237 C 225.053 258.064,225.875 257.919,219.559 257.848 C 216.159 257.809,213.299 257.903,213.204 258.056 M143.333 259.515 C 125.346 262.526,118.196 284.916,131.113 297.780 C 145.417 312.025,169.544 302.246,169.688 282.144 C 169.787 268.130,157.075 257.215,143.333 259.515 M149.630 265.207 C 169.018 268.324,166.850 298.959,147.248 298.880 C 126.168 298.795,125.615 266.406,146.667 264.861 C 146.972 264.839,148.306 264.995,149.630 265.207 M102.870 266.558 C 103.329 266.646,104.079 266.646,104.537 266.558 C 104.995 266.469,104.620 266.397,103.704 266.397 C 102.787 266.397,102.412 266.469,102.870 266.558 M298.796 266.558 C 299.255 266.646,300.005 266.646,300.463 266.558 C 300.921 266.469,300.546 266.397,299.630 266.397 C 298.713 266.397,298.338 266.469,298.796 266.558 M142.875 269.079 C 131.537 273.244,131.770 291.028,143.212 294.836 C 154.305 298.527,163.581 286.498,158.282 275.295 C 155.787 270.021,148.412 267.045,142.875 269.079 M85.291 270.926 C 85.294 271.944,85.366 272.317,85.451 271.754 C 85.536 271.191,85.534 270.358,85.446 269.902 C 85.358 269.447,85.288 269.907,85.291 270.926 M281.205 270.926 C 281.209 271.741,281.284 272.030,281.373 271.570 C 281.462 271.109,281.458 270.442,281.366 270.088 C 281.273 269.734,281.200 270.111,281.205 270.926 M180.855 271.759 C 183.669 271.821,188.169 271.821,190.855 271.758 C 193.542 271.695,191.241 271.643,185.741 271.644 C 180.241 271.644,178.042 271.696,180.855 271.759 M210.648 271.758 C 213.347 271.822,217.764 271.822,220.463 271.758 C 223.162 271.695,220.954 271.643,215.556 271.643 C 210.157 271.643,207.949 271.695,210.648 271.758 M150.614 278.540 C 150.989 278.677,152.421 278.908,153.796 279.054 C 156.829 279.375,156.832 279.398,154.138 282.035 L 151.980 284.148 152.510 287.282 C 153.163 291.140,153.318 291.024,149.892 289.229 L 147.047 287.738 144.235 289.272 C 140.849 291.120,140.991 291.223,141.707 287.427 L 142.288 284.346 140.033 282.070 C 137.274 279.287,137.272 279.411,140.093 279.099 C 144.027 278.665,143.974 278.700,145.634 275.418 L 147.158 272.407 148.545 275.349 C 149.310 276.975,150.237 278.403,150.614 278.540 M181.759 278.796 C 184.866 278.857,189.949 278.857,193.056 278.796 C 196.162 278.734,193.620 278.683,187.407 278.683 C 181.194 278.683,178.653 278.734,181.759 278.796 M208.634 278.796 C 211.855 278.857,217.022 278.857,220.116 278.795 C 223.209 278.734,220.574 278.683,214.259 278.683 C 207.944 278.683,205.413 278.734,208.634 278.796 M244.657 280.463 C 244.761 280.718,245.298 281.245,245.849 281.634 C 246.850 282.341,246.850 282.341,245.764 281.171 C 244.576 279.892,244.370 279.760,244.657 280.463 M120.827 281.852 C 120.827 282.565,120.903 282.856,120.996 282.500 C 121.089 282.144,121.089 281.560,120.996 281.204 C 120.903 280.847,120.827 281.139,120.827 281.852 M312.577 282.337 C 313.485 283.292,314.278 284.074,314.340 284.074 C 314.675 284.074,313.417 282.630,312.262 281.689 C 311.088 280.732,311.126 280.811,312.577 282.337 M306.666 289.537 C 307.150 290.199,307.605 290.741,307.675 290.741 C 307.957 290.741,307.038 289.352,306.431 288.858 C 306.031 288.533,306.120 288.792,306.666 289.537 M193.428 291.852 C 193.556 292.320,194.680 292.409,200.586 292.421 L 207.593 292.434 200.757 292.319 C 195.893 292.238,193.829 292.074,193.599 291.751 C 193.366 291.422,193.319 291.450,193.428 291.852 M181.667 292.222 L 175.741 292.436 181.552 292.514 C 185.114 292.562,187.452 292.449,187.593 292.222 C 187.718 292.019,187.770 291.887,187.707 291.930 C 187.644 291.973,184.926 292.105,181.667 292.222 M217.484 292.497 C 218.850 292.568,221.183 292.568,222.669 292.498 C 224.155 292.427,223.037 292.369,220.185 292.368 C 217.333 292.368,216.118 292.425,217.484 292.497 M184.352 298.780 C 184.810 298.868,185.560 298.868,186.019 298.780 C 186.477 298.692,186.102 298.619,185.185 298.619 C 184.269 298.619,183.894 298.692,184.352 298.780 M240.652 299.151 C 241.113 299.239,241.780 299.236,242.134 299.143 C 242.488 299.051,242.111 298.978,241.296 298.982 C 240.481 298.986,240.192 299.062,240.652 299.151 M246.574 299.165 C 248.662 299.231,252.079 299.231,254.167 299.165 C 256.255 299.099,254.546 299.045,250.370 299.045 C 246.194 299.045,244.486 299.099,246.574 299.165 M261.209 299.155 C 261.772 299.240,262.605 299.238,263.061 299.150 C 263.516 299.062,263.056 298.992,262.037 298.995 C 261.019 298.998,260.646 299.070,261.209 299.155 M127.620 299.722 C 127.724 299.977,128.261 300.504,128.812 300.894 C 129.813 301.601,129.813 301.600,128.727 300.431 C 127.539 299.151,127.333 299.019,127.620 299.722 M226.032 302.037 C 226.035 303.056,226.107 303.428,226.192 302.865 C 226.277 302.302,226.275 301.469,226.187 301.013 C 226.099 300.558,226.029 301.019,226.032 302.037 M319.259 301.481 C 319.259 301.889,319.426 302.222,319.630 302.222 C 319.833 302.222,320.000 301.889,320.000 301.481 C 320.000 301.074,319.833 300.741,319.630 300.741 C 319.426 300.741,319.259 301.074,319.259 301.481 M175.656 303.704 C 175.656 304.620,175.729 304.995,175.817 304.537 C 175.905 304.079,175.905 303.329,175.817 302.870 C 175.729 302.412,175.656 302.787,175.656 303.704 M214.185 304.074 C 214.185 305.194,214.254 305.653,214.339 305.093 C 214.424 304.532,214.424 303.616,214.339 303.056 C 214.254 302.495,214.185 302.954,214.185 304.074 M122.963 308.519 C 122.963 308.722,123.286 308.889,123.682 308.889 C 124.077 308.889,124.504 308.722,124.630 308.519 C 124.759 308.308,124.448 308.148,123.911 308.148 C 123.389 308.148,122.963 308.315,122.963 308.519 M122.036 310.741 C 121.656 310.874,121.501 311.078,121.691 311.194 C 122.065 311.421,124.032 311.276,124.308 311.001 C 124.605 310.703,122.750 310.491,122.036 310.741 M280.888 311.173 C 280.783 311.343,281.040 311.481,281.460 311.481 C 281.879 311.481,282.222 311.343,282.222 311.173 C 282.222 311.003,281.965 310.864,281.650 310.864 C 281.336 310.864,280.993 311.003,280.888 311.173 M85.926 311.852 C 85.593 312.474,85.644 312.593,86.244 312.593 C 86.636 312.593,87.059 312.329,87.183 312.007 C 87.554 311.039,87.439 310.928,86.851 311.688 C 86.387 312.288,86.332 312.300,86.520 311.759 C 86.828 310.875,86.414 310.939,85.926 311.852 M124.245 311.829 C 124.363 312.020,124.165 312.349,123.804 312.559 C 123.269 312.870,123.254 312.943,123.722 312.952 C 124.329 312.964,125.185 312.277,125.185 311.778 C 125.185 311.615,124.925 311.481,124.608 311.481 C 124.290 311.481,124.127 311.638,124.245 311.829 M282.963 311.830 C 282.963 312.433,283.750 312.695,284.199 312.242 C 284.528 311.911,284.462 311.872,283.921 312.078 C 283.426 312.267,283.293 312.217,283.480 311.915 C 283.627 311.676,283.571 311.481,283.355 311.481 C 283.139 311.481,282.963 311.638,282.963 311.830 M88.589 312.174 C 88.270 312.374,88.501 312.490,89.263 312.512 C 89.900 312.530,90.702 312.755,91.044 313.011 C 91.603 313.430,91.610 313.418,91.111 312.890 C 90.389 312.125,89.202 311.788,88.589 312.174 M116.396 312.484 C 115.772 312.998,115.773 313.013,116.419 312.808 C 116.792 312.690,118.042 312.579,119.197 312.563 C 121.555 312.531,121.411 312.366,118.804 312.114 C 117.605 311.998,116.845 312.115,116.396 312.484 M125.796 312.407 C 125.013 312.806,124.602 314.269,125.174 314.623 C 125.366 314.742,125.489 314.376,125.447 313.808 L 125.370 312.778 130.833 312.675 L 136.296 312.573 136.296 314.064 L 136.296 315.556 134.259 315.556 C 132.695 315.556,132.222 315.685,132.222 316.111 C 132.222 316.417,132.389 316.667,132.593 316.667 C 132.796 316.667,132.963 316.500,132.963 316.296 C 132.963 316.093,133.796 315.926,134.815 315.926 C 136.747 315.926,136.993 315.590,136.682 313.373 C 136.642 313.089,136.826 312.723,137.091 312.559 C 137.805 312.118,126.659 311.968,125.796 312.407 M186.699 312.156 C 185.396 312.351,184.815 313.105,184.815 314.603 C 184.815 315.331,184.648 315.926,184.444 315.926 C 184.241 315.926,184.074 316.426,184.074 317.037 C 184.074 317.648,183.907 318.148,183.704 318.148 C 183.500 318.148,183.333 318.634,183.333 319.228 C 183.333 319.823,183.155 320.368,182.938 320.441 C 182.712 320.516,182.593 321.263,182.660 322.174 C 182.766 323.619,182.938 323.228,184.411 318.202 L 186.044 312.628 187.744 312.518 C 188.958 312.439,189.179 312.352,188.519 312.215 C 188.009 312.109,187.191 312.083,186.699 312.156 M276.663 312.224 C 276.379 312.400,276.020 312.465,275.865 312.369 C 275.578 312.192,274.985 312.729,273.337 314.660 C 272.525 315.611,273.844 314.599,275.548 312.963 C 275.760 312.760,276.587 312.637,278.428 312.538 C 279.091 312.502,279.567 312.406,279.486 312.325 C 279.159 311.998,277.146 311.926,276.663 312.224 M98.704 312.826 C 97.800 313.267,97.766 313.323,98.519 313.122 C 99.028 312.986,100.361 312.752,101.481 312.603 L 103.519 312.331 101.667 312.307 C 100.648 312.293,99.315 312.527,98.704 312.826 M104.190 312.461 C 104.325 312.597,105.146 313.024,106.014 313.410 C 107.058 313.875,107.404 313.935,107.037 313.587 C 106.498 313.076,103.697 311.969,104.190 312.461 M138.313 312.698 C 138.212 312.960,138.180 316.085,138.241 319.643 L 138.352 326.111 138.435 319.383 C 138.497 314.411,138.639 312.606,138.981 312.468 C 139.344 312.321,139.342 312.274,138.970 312.251 C 138.709 312.235,138.413 312.436,138.313 312.698 M146.481 314.116 C 146.481 315.515,146.575 315.812,146.882 315.391 C 147.282 314.844,147.163 312.714,146.717 312.438 C 146.587 312.358,146.481 313.113,146.481 314.116 M152.654 313.540 C 153.068 314.241,153.459 314.815,153.523 314.815 C 153.840 314.815,152.746 312.589,152.355 312.439 C 152.101 312.341,152.233 312.826,152.654 313.540 M210.093 312.478 C 210.449 312.571,211.032 312.571,211.389 312.478 C 211.745 312.384,211.454 312.308,210.741 312.308 C 210.028 312.308,209.736 312.384,210.093 312.478 M215.114 312.500 C 215.052 312.653,215.089 316.028,215.197 320.000 L 215.395 327.222 215.475 319.907 L 215.556 312.593 217.029 312.593 L 218.503 312.593 218.612 319.907 L 218.720 327.222 218.805 319.722 L 218.889 312.222 217.059 312.222 C 216.052 312.222,215.177 312.347,215.114 312.500 M229.453 312.512 C 230.043 313.018,231.917 313.738,231.691 313.373 C 231.576 313.187,230.945 312.848,230.287 312.619 C 229.629 312.390,229.254 312.342,229.453 312.512 M253.580 312.469 C 253.444 312.605,253.336 312.897,253.339 313.117 C 253.342 313.338,253.484 313.299,253.654 313.030 C 254.400 311.855,256.795 312.660,257.309 314.259 C 257.757 315.652,257.774 315.665,257.594 314.480 C 257.296 312.516,254.789 311.260,253.580 312.469 M268.060 312.484 C 268.521 312.573,269.187 312.569,269.541 312.477 C 269.895 312.384,269.519 312.312,268.704 312.316 C 267.889 312.320,267.599 312.396,268.060 312.484 M281.048 312.677 C 281.284 312.914,281.635 312.914,282.058 312.677 C 282.605 312.371,282.548 312.315,281.695 312.315 C 281.037 312.315,280.811 312.441,281.048 312.677 M300.906 312.697 C 300.806 312.957,300.770 316.332,300.826 320.197 L 300.928 327.222 301.112 319.722 C 301.293 312.369,301.274 311.737,300.906 312.697 M87.437 313.056 C 87.421 313.412,87.246 313.704,87.049 313.704 C 86.851 313.704,86.796 313.980,86.926 314.319 C 87.124 314.834,87.213 314.794,87.480 314.073 C 87.656 313.599,87.724 313.031,87.632 312.810 C 87.541 312.588,87.453 312.699,87.437 313.056 M172.222 312.963 C 172.528 313.160,173.028 313.322,173.333 313.322 C 173.827 313.322,173.827 313.282,173.333 312.963 C 173.028 312.765,172.528 312.604,172.222 312.604 C 171.728 312.604,171.728 312.644,172.222 312.963 M114.519 313.714 C 113.684 314.492,113.072 316.159,113.474 316.560 C 113.600 316.687,113.704 316.442,113.704 316.016 C 113.704 315.590,114.135 314.729,114.663 314.102 C 115.762 312.796,115.696 312.617,114.519 313.714 M189.265 313.241 C 189.301 314.926,192.173 322.911,192.196 321.389 C 192.210 320.421,192.056 319.630,191.852 319.630 C 191.648 319.630,191.481 319.130,191.481 318.519 C 191.481 317.907,191.315 317.407,191.111 317.407 C 190.907 317.407,190.741 316.907,190.741 316.296 C 190.741 315.685,190.574 315.185,190.370 315.185 C 190.167 315.185,190.000 314.685,190.000 314.074 C 190.000 313.463,189.833 312.963,189.630 312.963 C 189.426 312.963,189.262 313.088,189.265 313.241 M149.042 319.815 C 149.042 323.481,149.098 324.931,149.165 323.037 C 149.232 321.142,149.232 318.142,149.164 316.370 C 149.097 314.598,149.042 316.148,149.042 319.815 M174.435 314.188 C 175.200 315.201,173.431 316.943,172.269 316.321 C 171.836 316.089,171.481 316.053,171.481 316.240 C 171.481 316.880,173.125 317.016,173.993 316.447 C 175.193 315.661,175.405 314.865,174.608 314.138 C 173.968 313.554,173.958 313.557,174.435 314.188 M176.937 316.389 C 176.704 319.499,176.842 326.595,177.142 326.895 C 177.254 327.007,177.366 324.085,177.390 320.401 C 177.437 313.349,177.274 311.908,176.937 316.389 M247.460 314.579 C 247.721 315.162,248.002 315.438,248.085 315.191 C 248.167 314.944,247.953 314.467,247.609 314.130 C 247.024 313.558,247.015 313.586,247.460 314.579 M160.481 315.926 C 160.481 317.046,160.551 317.505,160.636 316.944 C 160.721 316.384,160.721 315.468,160.636 314.907 C 160.551 314.347,160.481 314.806,160.481 315.926 M180.101 315.556 C 180.101 316.472,180.173 316.847,180.261 316.389 C 180.350 315.931,180.350 315.181,180.261 314.722 C 180.173 314.264,180.101 314.639,180.101 315.556 M221.972 314.907 C 221.559 315.366,221.089 315.991,220.927 316.296 C 220.614 316.886,220.699 316.805,222.200 315.093 C 222.691 314.532,223.009 314.074,222.907 314.074 C 222.805 314.074,222.384 314.449,221.972 314.907 M106.145 315.370 C 105.811 315.880,105.682 316.296,105.858 316.296 C 106.034 316.296,106.367 315.880,106.599 315.370 C 106.831 314.861,106.961 314.444,106.887 314.444 C 106.812 314.444,106.479 314.861,106.145 315.370 M96.439 315.349 C 96.326 315.642,96.299 316.184,96.379 316.552 C 96.469 316.971,96.596 316.770,96.716 316.019 C 96.918 314.757,96.787 314.441,96.439 315.349 M101.570 315.397 C 101.687 315.514,102.339 315.677,103.021 315.760 C 103.988 315.879,104.097 315.838,103.519 315.574 C 102.693 315.199,101.239 315.066,101.570 315.397 M117.500 315.567 C 116.321 316.041,116.463 316.322,117.685 315.936 C 119.775 315.275,119.837 315.244,119.074 315.238 C 118.667 315.235,117.958 315.383,117.500 315.567 M125.427 315.647 C 125.522 315.800,126.185 315.926,126.900 315.926 C 128.583 315.926,129.176 316.560,129.367 318.561 C 129.476 319.709,129.510 319.534,129.483 317.963 L 129.444 315.741 127.349 315.554 C 126.197 315.451,125.332 315.493,125.427 315.647 M120.401 315.691 C 121.148 316.344,122.363 316.734,121.899 316.172 C 121.620 315.833,121.133 315.556,120.819 315.556 C 120.504 315.556,120.316 315.616,120.401 315.691 M141.255 316.084 C 140.834 317.184,141.273 318.332,142.135 318.383 C 142.833 318.424,142.849 318.404,142.228 318.264 C 141.376 318.073,141.152 316.121,141.944 315.801 C 142.307 315.655,142.305 315.608,141.933 315.585 C 141.672 315.569,141.367 315.793,141.255 316.084 M167.185 316.420 C 166.432 317.067,166.334 317.284,166.794 317.284 C 167.131 317.284,167.407 317.062,167.407 316.790 C 167.407 316.519,167.648 316.296,167.941 316.296 C 168.235 316.296,168.578 316.130,168.704 315.926 C 169.124 315.245,168.201 315.545,167.185 316.420 M240.000 318.148 L 240.000 320.741 242.037 320.741 C 244.746 320.741,245.733 319.854,245.441 317.681 C 245.192 315.824,244.793 315.568,242.130 315.561 L 240.000 315.556 240.000 318.148 M267.037 320.617 C 267.037 323.401,267.154 325.562,267.297 325.419 C 267.440 325.276,267.514 323.092,267.460 320.566 L 267.363 315.973 268.774 315.827 L 270.185 315.680 268.611 315.618 L 267.037 315.556 267.037 320.617 M276.074 316.815 C 272.882 320.007,275.838 325.227,280.162 324.033 C 284.554 322.821,283.463 315.556,278.889 315.556 C 277.614 315.556,277.106 315.782,276.074 316.815 M290.370 318.148 L 290.370 320.741 292.535 320.741 C 295.100 320.741,295.926 320.086,295.926 318.053 C 295.926 316.117,295.171 315.556,292.566 315.556 L 290.370 315.556 290.370 318.148 M88.951 319.241 C 88.403 320.814,88.388 320.741,89.259 320.741 C 90.038 320.741,90.180 320.037,89.666 318.723 C 89.419 318.092,89.328 318.158,88.951 319.241 M187.158 319.259 C 186.870 320.286,186.903 320.582,187.315 320.681 C 188.135 320.878,188.288 320.478,187.890 319.173 L 187.520 317.963 187.158 319.259 M254.887 319.222 C 254.327 320.816,254.312 320.741,255.185 320.741 C 255.958 320.741,256.026 320.431,255.591 318.889 C 255.333 317.975,255.324 317.980,254.887 319.222 M310.803 319.241 C 310.254 320.814,310.239 320.741,311.111 320.741 C 311.890 320.741,312.032 320.037,311.517 318.723 C 311.271 318.092,311.180 318.158,310.803 319.241 M144.691 318.765 C 144.556 318.901,144.444 319.429,144.444 319.938 C 144.444 321.087,144.709 320.874,144.953 319.529 C 145.144 318.475,145.103 318.354,144.691 318.765 M151.852 320.741 C 151.852 321.827,151.920 322.647,152.003 322.562 C 152.285 322.275,152.379 319.293,152.115 319.028 C 151.970 318.884,151.852 319.654,151.852 320.741 M209.562 320.648 C 209.477 321.005,209.521 321.796,209.660 322.407 C 209.877 323.363,209.918 323.272,209.956 321.759 C 210.001 319.958,209.836 319.494,209.562 320.648 M160.497 323.148 C 160.499 324.778,160.564 325.398,160.642 324.527 C 160.720 323.656,160.719 322.323,160.640 321.564 C 160.560 320.806,160.496 321.519,160.497 323.148 M119.620 321.632 C 120.447 321.931,120.996 322.416,121.157 322.993 C 121.394 323.840,121.410 323.845,121.445 323.077 C 121.487 322.150,120.203 321.097,119.084 321.139 C 118.578 321.158,118.753 321.319,119.620 321.632 M141.250 321.654 C 141.135 321.953,141.127 322.412,141.232 322.673 C 141.354 322.976,141.434 322.917,141.452 322.511 C 141.470 322.122,141.951 321.738,142.685 321.525 L 143.889 321.178 142.674 321.145 C 141.923 321.124,141.379 321.319,141.250 321.654 M103.643 322.105 C 104.253 323.250,104.183 323.619,103.305 323.898 C 102.883 324.032,102.618 324.223,102.718 324.323 C 102.818 324.423,103.247 324.318,103.672 324.091 C 104.601 323.594,104.675 322.503,103.828 321.805 C 103.271 321.345,103.253 321.374,103.643 322.105 M224.500 322.593 C 225.245 323.789,227.935 324.806,228.598 324.143 C 228.965 323.776,228.910 323.696,228.325 323.752 C 226.665 323.909,225.840 323.652,224.907 322.685 C 223.970 321.716,223.951 321.711,224.500 322.593 M99.074 323.265 C 99.481 323.668,100.231 324.118,100.741 324.267 C 101.874 324.597,101.719 324.447,99.815 323.371 C 98.507 322.632,98.420 322.620,99.074 323.265 M208.519 322.937 C 208.519 323.267,207.988 323.367,206.713 323.276 C 205.584 323.196,204.963 323.290,205.054 323.528 C 205.135 323.736,205.905 323.844,206.767 323.767 C 208.365 323.625,209.226 323.176,208.772 322.722 C 208.632 322.583,208.519 322.680,208.519 322.937 M220.752 322.668 C 220.729 323.206,221.614 324.815,221.933 324.815 C 222.116 324.815,222.146 325.023,222.000 325.278 C 221.853 325.532,221.871 325.615,222.040 325.462 C 222.209 325.309,222.694 325.472,223.118 325.825 C 223.542 326.177,223.369 325.886,222.734 325.177 C 222.099 324.469,221.395 323.556,221.171 323.148 C 220.947 322.741,220.758 322.525,220.752 322.668 M234.444 322.900 C 234.444 323.137,233.819 324.036,233.056 324.897 C 231.739 326.381,231.727 326.415,232.835 325.546 C 234.015 324.621,235.011 323.036,234.643 322.668 C 234.534 322.559,234.444 322.663,234.444 322.900 M96.273 323.547 C 95.733 324.197,96.509 325.945,97.471 326.245 C 97.741 326.329,97.561 325.960,97.069 325.425 C 96.200 324.480,96.194 324.431,96.848 323.708 C 97.219 323.298,97.350 322.963,97.140 322.963 C 96.929 322.963,96.539 323.226,96.273 323.547 M151.953 324.444 C 151.953 325.361,152.025 325.736,152.113 325.278 C 152.202 324.819,152.202 324.069,152.113 323.611 C 152.025 323.153,151.953 323.528,151.953 324.444 M171.318 323.530 C 170.923 323.829,170.766 324.074,170.970 324.074 C 171.173 324.074,171.663 323.829,172.059 323.530 C 172.454 323.231,172.611 322.987,172.407 322.987 C 172.204 322.987,171.714 323.231,171.318 323.530 M200.476 324.630 C 200.479 325.648,200.551 326.021,200.636 325.458 C 200.721 324.895,200.719 324.062,200.631 323.606 C 200.543 323.150,200.474 323.611,200.476 324.630 M163.207 323.962 C 163.478 324.729,165.559 326.665,166.111 326.664 C 166.524 326.663,164.420 324.849,163.981 324.828 C 163.829 324.821,163.704 324.575,163.704 324.281 C 163.704 323.988,163.539 323.646,163.338 323.521 C 163.120 323.387,163.067 323.565,163.207 323.962 M192.248 323.611 C 192.350 324.697,192.913 325.302,192.937 324.352 C 192.951 323.792,192.796 323.333,192.593 323.333 C 192.389 323.333,192.234 323.458,192.248 323.611 M87.654 323.951 C 87.519 324.086,87.410 324.378,87.413 324.599 C 87.417 324.870,87.507 324.864,87.691 324.580 C 87.841 324.349,88.296 324.076,88.704 323.975 C 89.420 323.796,89.419 323.788,88.673 323.747 C 88.248 323.723,87.790 323.815,87.654 323.951 M185.591 324.537 C 185.417 324.995,185.211 325.704,185.134 326.111 C 185.024 326.693,184.649 326.877,183.391 326.967 C 181.924 327.073,181.806 327.017,182.005 326.319 C 182.124 325.899,182.317 325.222,182.432 324.815 C 182.548 324.407,182.483 324.074,182.288 324.074 C 181.898 324.074,181.492 326.575,181.762 327.315 C 182.131 328.326,185.556 327.893,185.556 326.835 C 185.556 325.639,186.996 324.180,188.380 323.973 C 189.089 323.868,188.854 323.796,187.676 323.759 C 186.156 323.712,185.863 323.821,185.591 324.537 M253.339 324.352 C 253.343 324.763,253.444 324.847,253.617 324.580 C 253.766 324.349,254.222 324.076,254.630 323.975 C 255.197 323.833,255.133 323.780,254.352 323.747 C 253.610 323.715,253.335 323.880,253.339 324.352 M272.778 324.444 C 273.388 325.119,273.292 325.362,272.472 325.220 C 272.305 325.191,272.282 325.352,272.422 325.579 C 272.601 325.870,272.792 325.875,273.070 325.597 C 273.348 325.318,273.635 325.332,274.047 325.643 C 274.367 325.885,274.140 325.548,273.542 324.893 C 272.944 324.239,272.376 323.704,272.281 323.704 C 272.185 323.704,272.409 324.037,272.778 324.444 M146.752 324.999 C 146.711 325.489,146.831 325.984,147.018 326.099 C 147.205 326.215,147.314 325.890,147.259 325.376 C 147.124 324.115,146.842 323.905,146.752 324.999 M90.833 325.022 C 90.579 325.298,90.370 325.735,90.370 325.993 C 90.370 326.250,90.637 326.080,90.964 325.614 C 91.632 324.660,91.542 324.252,90.833 325.022 M113.970 325.563 C 114.625 326.251,115.224 326.739,115.301 326.648 C 115.378 326.556,114.841 325.994,114.109 325.397 L 112.778 324.313 113.970 325.563 M189.306 325.489 C 189.280 326.166,189.497 326.958,189.788 327.249 C 190.387 327.847,192.963 327.976,192.963 327.407 C 192.963 327.204,192.326 327.037,191.547 327.037 C 190.226 327.037,190.104 326.943,189.742 325.648 L 189.353 324.259 189.306 325.489 M209.692 325.603 C 209.620 327.143,210.234 327.833,211.466 327.595 C 212.860 327.327,212.815 327.037,211.380 327.037 C 210.110 327.037,210.038 326.969,209.899 325.648 L 209.754 324.259 209.692 325.603 M240.059 325.648 C 240.003 326.977,239.944 327.037,238.704 327.037 C 237.991 327.037,237.407 327.192,237.407 327.380 C 237.407 327.797,239.625 327.560,240.092 327.094 C 240.275 326.911,240.356 326.198,240.271 325.510 L 240.119 324.259 240.059 325.648 M128.944 325.803 C 128.839 327.323,129.262 327.778,130.780 327.778 C 131.573 327.778,132.222 327.611,132.222 327.407 C 132.222 327.204,131.567 327.037,130.765 327.037 C 129.460 327.037,129.292 326.931,129.154 326.019 C 129.038 325.253,128.986 325.200,128.944 325.803 M155.679 325.615 C 155.679 325.906,155.901 326.351,156.173 326.605 C 156.444 326.859,156.667 326.925,156.667 326.752 C 156.667 326.579,156.444 326.134,156.173 325.763 C 155.814 325.272,155.679 325.232,155.679 325.615 M247.778 325.463 C 247.778 325.640,248.019 326.108,248.315 326.503 C 248.833 327.197,248.845 327.193,248.641 326.383 C 248.430 325.547,247.778 324.852,247.778 325.463 M122.407 326.321 C 121.796 326.713,121.486 327.034,121.718 327.035 C 121.950 327.036,122.534 326.709,123.015 326.309 C 124.116 325.391,123.851 325.397,122.407 326.321 M94.844 326.389 C 94.822 326.877,94.495 327.037,93.519 327.037 C 92.806 327.037,92.222 327.192,92.222 327.380 C 92.222 327.805,94.444 327.556,94.921 327.079 C 95.112 326.888,95.180 326.509,95.071 326.236 C 94.937 325.901,94.864 325.951,94.844 326.389 M203.733 326.426 C 203.708 327.005,203.452 327.091,202.084 326.982 C 200.961 326.892,200.515 326.984,200.630 327.283 C 200.732 327.549,201.319 327.650,202.153 327.547 C 203.695 327.356,204.247 326.955,203.960 326.236 C 203.832 325.916,203.752 325.983,203.733 326.426 M252.676 326.504 C 252.496 326.826,251.828 327.098,251.171 327.116 C 249.625 327.160,250.035 327.555,251.684 327.609 C 252.386 327.633,252.884 327.575,252.790 327.481 C 252.696 327.387,252.785 326.999,252.989 326.618 C 253.434 325.786,253.138 325.678,252.676 326.504 M98.682 326.824 C 99.077 327.145,99.827 327.390,100.349 327.369 C 101.220 327.335,101.204 327.310,100.153 327.058 C 99.524 326.908,98.774 326.663,98.486 326.513 C 98.198 326.364,98.286 326.504,98.682 326.824 M160.370 326.605 C 160.370 326.864,159.668 327.063,158.611 327.102 L 156.852 327.166 158.476 327.311 C 160.018 327.448,161.170 326.973,160.623 326.426 C 160.484 326.287,160.370 326.367,160.370 326.605 M172.593 326.667 C 172.287 326.864,171.051 327.028,169.846 327.031 C 166.905 327.039,167.377 327.361,170.557 327.516 C 171.959 327.584,172.898 327.571,172.644 327.486 C 172.323 327.379,172.385 327.179,172.851 326.826 C 173.616 326.246,173.425 326.128,172.593 326.667 M260.741 326.605 C 260.741 326.852,260.185 327.037,259.444 327.037 C 258.731 327.037,258.148 327.200,258.148 327.400 C 258.148 327.871,260.304 327.621,260.837 327.088 C 261.063 326.863,261.133 326.565,260.994 326.426 C 260.855 326.287,260.741 326.367,260.741 326.605 M267.037 326.642 C 267.037 326.969,266.549 327.072,265.432 326.982 C 264.522 326.908,263.827 327.012,263.827 327.222 C 263.828 327.753,266.540 327.681,267.086 327.136 C 267.337 326.885,267.429 326.565,267.290 326.426 C 267.151 326.287,267.037 326.384,267.037 326.642 M85.455 326.937 C 84.687 327.017,84.155 327.239,84.273 327.430 C 84.609 327.973,86.155 327.838,86.667 327.222 C 86.920 326.917,87.066 326.695,86.990 326.729 C 86.914 326.763,86.223 326.857,85.455 326.937 M103.704 327.037 C 102.941 327.281,102.908 327.339,103.519 327.365 C 103.926 327.382,104.509 327.235,104.815 327.037 C 105.464 326.618,105.013 326.618,103.704 327.037 M116.252 327.140 C 116.430 327.319,117.055 327.406,117.640 327.333 C 118.619 327.211,118.593 327.185,117.315 327.008 C 116.519 326.898,116.065 326.954,116.252 327.140 M229.259 327.037 L 227.963 327.310 229.352 327.359 C 230.116 327.385,230.741 327.241,230.741 327.037 C 230.741 326.833,230.699 326.689,230.648 326.715 C 230.597 326.742,229.972 326.887,229.259 327.037 M96.099 327.428 C 95.873 327.793,98.442 328.348,98.783 328.007 C 98.909 327.881,98.725 327.778,98.373 327.778 C 98.022 327.778,97.811 327.653,97.906 327.500 C 98.000 327.347,97.675 327.198,97.184 327.169 C 96.693 327.139,96.205 327.256,96.099 327.428 M105.926 327.407 C 105.620 327.605,105.537 327.772,105.741 327.778 C 105.944 327.784,105.861 327.951,105.556 328.148 C 105.250 328.346,105.167 328.507,105.370 328.507 C 105.904 328.507,106.467 328.036,106.574 327.500 C 106.684 326.949,106.645 326.943,105.926 327.407 M109.690 327.419 C 110.078 327.645,110.625 327.650,111.171 327.431 C 111.928 327.127,111.851 327.082,110.556 327.072 C 109.426 327.062,109.220 327.145,109.690 327.419 M138.518 327.315 C 138.518 327.630,146.267 327.561,146.584 327.243 C 146.697 327.130,144.929 327.037,142.654 327.037 C 140.380 327.037,138.518 327.162,138.518 327.315 M149.760 327.458 C 150.239 327.737,150.686 327.741,151.242 327.472 C 151.936 327.136,151.848 327.085,150.556 327.073 C 149.323 327.062,149.189 327.127,149.760 327.458 M277.875 327.303 C 278.438 327.388,279.272 327.386,279.727 327.298 C 280.183 327.210,279.722 327.140,278.704 327.143 C 277.685 327.146,277.312 327.218,277.875 327.303 M93.765 328.473 C 93.363 328.728,93.373 328.825,93.822 328.997 C 94.394 329.217,94.815 328.988,94.815 328.457 C 94.815 328.065,94.399 328.071,93.765 328.473 M108.609 328.420 C 108.353 328.509,108.238 328.734,108.353 328.921 C 108.622 329.357,110.000 329.363,110.000 328.929 C 110.000 328.501,109.206 328.211,108.609 328.420 M265.547 328.868 C 266.109 329.364,266.519 329.516,266.605 329.260 C 266.777 328.742,266.704 328.677,265.556 328.334 L 264.630 328.057 265.547 328.868 M88.061 330.816 C 87.976 331.073,87.296 331.244,86.458 331.221 C 84.826 331.174,84.142 331.436,84.813 331.851 C 85.059 332.003,85.814 332.002,86.490 331.850 C 87.264 331.675,87.889 331.727,88.174 331.990 C 88.512 332.301,88.565 332.297,88.382 331.971 C 88.239 331.716,88.467 331.430,88.932 331.282 C 89.556 331.084,89.617 330.960,89.216 330.706 C 88.518 330.264,88.236 330.291,88.061 330.816 M95.319 330.628 C 95.615 330.924,95.979 331.029,97.778 331.338 C 99.010 331.550,99.038 331.532,98.333 330.977 C 97.627 330.421,94.782 330.091,95.319 330.628 M105.865 330.737 C 105.644 331.401,106.508 332.364,107.034 332.039 C 107.584 331.699,107.488 331.111,106.883 331.111 C 106.594 331.111,106.289 330.903,106.204 330.648 C 106.094 330.318,105.997 330.343,105.865 330.737 M91.852 331.451 C 91.852 331.904,92.625 332.141,93.426 331.934 C 94.477 331.661,94.167 331.111,92.963 331.111 C 92.352 331.111,91.852 331.264,91.852 331.451 " stroke="none" fill="#f1f1f2" fill-rule="evenodd"></path><path id="path1" d="M176.296 261.481 L 176.296 264.815 184.092 264.815 L 191.887 264.815 190.165 261.481 L 188.444 258.148 182.370 258.148 L 176.296 258.148 176.296 261.481 M211.944 261.079 C 211.079 262.693,210.370 264.194,210.370 264.414 C 210.370 264.688,212.769 264.815,217.977 264.815 L 225.584 264.815 225.477 261.574 L 225.370 258.333 219.444 258.239 L 213.519 258.144 211.944 261.079 M143.148 265.534 C 134.853 267.571,129.419 277.328,131.678 286.126 C 135.901 302.571,157.742 303.105,162.421 286.878 C 166.016 274.411,155.304 262.548,143.148 265.534 M151.961 269.187 C 162.711 273.943,162.501 290.704,151.641 294.799 C 145.579 297.085,138.366 294.190,135.735 288.415 C 130.448 276.812,140.981 264.331,151.961 269.187 M176.296 275.185 L 176.296 278.519 187.581 278.519 C 198.184 278.519,198.849 278.479,198.593 277.870 C 198.444 277.514,197.697 276.014,196.934 274.537 L 195.546 271.852 185.921 271.852 L 176.296 271.852 176.296 275.185 M204.921 274.531 C 204.156 276.011,203.408 277.514,203.259 277.870 C 203.003 278.479,203.668 278.519,214.286 278.519 L 225.584 278.519 225.477 275.278 L 225.370 272.037 215.841 271.938 L 206.312 271.839 204.921 274.531 M176.296 288.889 L 176.296 292.222 181.852 292.222 L 187.407 292.222 187.407 288.889 L 187.407 285.556 181.852 285.556 L 176.296 285.556 176.296 288.889 M190.748 285.833 C 190.751 285.986,191.469 287.444,192.342 289.074 L 193.929 292.037 200.898 292.037 L 207.868 292.037 209.485 289.074 C 210.374 287.444,211.104 285.986,211.106 285.833 C 211.109 285.681,206.528 285.556,200.926 285.556 C 195.324 285.556,190.744 285.681,190.748 285.833 M214.815 288.899 L 214.815 292.243 220.093 292.140 L 225.370 292.037 225.477 288.796 L 225.584 285.556 220.200 285.556 L 214.815 285.556 214.815 288.899 M176.661 299.198 C 176.458 299.266,176.296 300.792,176.296 302.633 L 176.296 305.946 181.759 305.843 L 187.222 305.741 187.329 302.520 L 187.436 299.299 182.230 299.186 C 179.367 299.125,176.861 299.130,176.661 299.198 M214.775 299.423 C 214.685 299.513,214.653 300.888,214.704 302.478 C 214.755 304.069,214.801 305.500,214.806 305.658 C 214.811 305.817,217.190 305.900,220.093 305.844 L 225.370 305.741 225.477 302.500 L 225.584 299.259 220.261 299.259 C 217.334 299.259,214.865 299.333,214.775 299.423 M88.292 312.876 C 87.888 313.143,84.074 325.511,84.074 326.554 C 84.074 327.988,86.445 326.907,87.076 325.185 C 87.666 323.577,87.746 323.515,89.363 323.407 L 91.039 323.296 91.660 325.166 C 92.208 326.814,94.815 328.204,94.815 326.847 C 94.815 326.743,93.981 323.828,92.963 320.370 C 91.944 316.912,91.111 314.010,91.111 313.920 C 91.111 313.030,89.155 312.306,88.292 312.876 M99.444 313.112 C 96.910 314.231,96.098 316.459,97.479 318.505 C 98.338 319.778,99.399 320.329,102.494 321.111 C 104.449 321.604,105.172 322.696,104.231 323.735 C 103.369 324.687,100.931 324.671,99.341 323.701 C 98.209 323.011,98.064 323.001,97.218 323.555 C 95.122 324.929,98.803 327.239,102.646 326.961 C 108.887 326.510,108.859 319.828,102.611 318.488 C 101.587 318.268,100.372 317.769,99.912 317.378 L 99.074 316.667 99.948 315.926 C 100.924 315.099,102.620 314.975,104.409 315.599 C 105.618 316.020,106.622 315.398,106.655 314.207 C 106.690 312.946,101.579 312.170,99.444 313.112 M109.424 313.068 C 108.896 314.443,109.453 326.844,110.048 326.958 C 111.744 327.284,112.982 314.612,111.407 313.037 C 110.821 312.451,109.654 312.469,109.424 313.068 M116.055 313.354 C 112.583 315.073,113.411 319.722,117.343 320.589 C 120.839 321.360,122.008 322.102,121.576 323.277 C 121.046 324.715,117.780 324.950,116.150 323.668 C 115.223 322.939,115.108 322.929,114.248 323.492 C 111.132 325.534,118.956 328.325,122.152 326.312 C 125.896 323.953,124.477 319.523,119.644 318.487 C 117.451 318.017,116.073 317.041,116.400 316.189 C 116.714 315.372,119.108 314.992,120.911 315.473 C 122.148 315.803,122.520 315.771,123.056 315.286 C 125.292 313.263,119.480 311.659,116.055 313.354 M126.019 312.833 C 124.242 313.570,125.817 315.556,128.178 315.556 L 129.630 315.556 129.630 321.320 L 129.630 327.084 130.833 326.968 L 132.037 326.852 132.139 321.204 L 132.242 315.556 133.806 315.550 C 135.845 315.542,136.384 315.165,136.233 313.849 L 136.111 312.778 131.296 312.709 C 128.648 312.671,126.273 312.727,126.019 312.833 M138.981 312.831 C 138.634 312.976,138.519 314.776,138.519 320.031 L 138.519 327.037 142.593 327.037 L 146.667 327.037 146.667 325.741 L 146.667 324.444 143.889 324.444 L 141.111 324.444 141.111 322.778 L 141.111 321.111 142.778 321.111 C 144.436 321.111,144.444 321.104,144.444 319.815 C 144.444 318.525,144.436 318.519,142.778 318.519 L 141.111 318.519 141.111 317.053 L 141.111 315.588 143.796 315.479 L 146.481 315.370 146.481 314.074 L 146.481 312.778 142.963 312.708 C 141.028 312.670,139.236 312.725,138.981 312.831 M149.899 312.849 C 149.296 313.007,149.251 313.580,149.344 319.936 L 149.444 326.852 150.636 326.967 L 151.828 327.082 151.932 322.708 L 152.037 318.333 154.492 322.593 L 156.947 326.852 158.566 326.852 L 160.185 326.852 160.286 320.027 C 160.393 312.813,160.308 312.408,158.757 312.797 L 157.778 313.043 157.778 317.262 C 157.778 322.417,157.660 322.434,154.948 317.686 C 152.079 312.664,151.765 312.363,149.899 312.849 M166.481 313.484 C 159.746 316.930,162.234 327.037,169.818 327.037 C 171.387 327.037,174.119 326.011,174.593 325.244 C 175.163 324.322,172.971 323.169,171.877 323.815 C 167.987 326.113,163.954 321.578,166.136 317.360 C 167.184 315.332,170.559 314.664,172.248 316.149 C 172.752 316.593,172.965 316.520,173.848 315.599 L 174.866 314.536 173.551 313.724 C 171.463 312.433,168.718 312.340,166.481 313.484 M177.654 312.840 C 177.519 312.975,177.407 316.124,177.407 319.837 C 177.407 327.057,177.503 327.409,179.311 326.835 C 180.286 326.526,180.383 313.189,179.414 312.817 C 178.648 312.523,177.962 312.532,177.654 312.840 M186.439 312.876 C 186.052 313.131,182.222 325.572,182.222 326.574 C 182.222 328.080,184.691 327.016,185.229 325.278 C 186.015 322.739,188.890 322.365,189.643 324.703 C 190.264 326.630,190.657 327.037,191.897 327.037 C 193.216 327.037,193.302 327.762,191.070 320.055 C 189.003 312.917,188.220 311.702,186.439 312.876 M201.323 313.175 C 200.843 313.655,200.742 314.774,200.746 319.563 C 200.752 326.552,200.848 327.037,202.222 327.037 C 203.475 327.037,203.679 326.436,203.732 322.593 L 203.769 319.815 204.570 321.567 C 205.804 324.268,207.783 324.196,209.077 321.403 L 209.971 319.472 210.078 323.162 L 210.185 326.852 211.389 326.968 L 212.593 327.084 212.593 320.048 C 212.593 313.338,212.558 313.002,211.852 312.778 C 210.164 312.242,209.391 313.266,207.406 318.671 C 206.917 320.003,206.685 319.754,205.369 316.481 C 203.927 312.893,202.649 311.849,201.323 313.175 M216.173 312.840 C 215.567 313.446,215.904 326.682,216.532 326.922 C 218.102 327.525,218.328 326.732,218.435 320.230 C 218.549 313.289,217.887 311.125,216.173 312.840 M225.417 313.137 C 216.670 316.255,221.300 329.599,230.119 326.689 C 233.487 325.577,236.461 320.158,234.413 318.862 C 233.749 318.441,229.607 318.427,228.952 318.842 C 227.743 319.608,228.609 321.285,230.315 321.481 L 231.926 321.667 231.161 322.635 C 229.445 324.807,226.353 324.943,224.652 322.922 C 221.842 319.582,224.851 314.276,228.859 315.506 C 229.920 315.832,230.271 315.795,230.817 315.302 C 232.875 313.438,228.966 311.871,225.417 313.137 M237.221 313.019 C 237.110 313.307,237.065 316.538,237.121 320.198 L 237.222 326.852 238.519 326.852 C 239.804 326.852,239.816 326.837,239.928 325.075 L 240.042 323.298 242.104 323.408 L 244.167 323.519 244.814 325.185 C 245.397 326.685,245.594 326.863,246.791 326.966 L 248.121 327.080 247.540 325.114 C 247.220 324.033,246.890 323.033,246.805 322.893 C 246.720 322.752,246.987 322.085,247.398 321.411 C 248.973 318.828,248.151 314.671,245.827 313.465 C 244.175 312.608,237.511 312.263,237.221 313.019 M254.205 312.876 C 253.799 313.136,250.000 325.510,250.000 326.571 C 250.000 327.989,252.376 326.892,253.002 325.185 C 253.592 323.577,253.672 323.515,255.289 323.407 L 256.965 323.296 257.586 325.166 C 258.171 326.928,258.282 327.037,259.474 327.037 C 261.018 327.037,261.093 327.775,258.743 319.871 C 256.627 312.755,255.971 311.744,254.205 312.876 M260.515 313.121 C 259.918 314.677,260.493 315.369,262.407 315.402 L 264.259 315.433 264.444 321.142 L 264.630 326.852 265.741 326.852 L 266.852 326.852 266.954 321.223 L 267.056 315.594 268.991 315.482 C 271.057 315.363,271.772 314.391,270.724 313.128 C 270.080 312.352,260.812 312.346,260.515 313.121 M275.741 313.482 C 268.697 316.837,271.518 327.460,279.317 326.947 C 286.491 326.476,288.477 316.735,282.057 313.512 C 279.766 312.362,278.108 312.355,275.741 313.482 M288.241 312.838 C 287.893 312.978,287.778 314.772,287.778 320.031 L 287.778 327.037 289.074 327.037 L 290.370 327.037 290.370 325.185 L 290.370 323.333 292.500 323.342 L 294.630 323.351 295.439 325.194 C 296.157 326.827,296.378 327.037,297.384 327.037 C 298.723 327.037,298.724 327.032,297.802 324.511 C 297.089 322.559,297.089 322.547,297.845 321.266 C 298.963 319.371,298.690 315.558,297.339 314.207 C 296.037 312.906,290.237 312.032,288.241 312.838 M301.759 312.844 C 300.802 313.100,300.763 326.454,301.719 326.821 C 303.613 327.548,303.727 327.120,303.619 319.699 C 303.513 312.376,303.512 312.375,301.759 312.844 M310.145 312.876 C 309.919 313.026,309.354 314.481,308.889 316.111 C 308.424 317.741,307.652 320.315,307.173 321.832 C 305.621 326.749,305.615 327.112,307.083 326.971 C 308.216 326.863,308.385 326.688,308.889 325.095 L 309.444 323.337 311.174 323.335 L 312.903 323.333 313.519 325.185 C 314.094 326.917,314.214 327.037,315.376 327.037 C 316.880 327.037,316.935 327.509,314.480 319.303 C 312.517 312.745,311.846 311.749,310.145 312.876 M245.093 316.009 C 245.653 316.466,245.704 319.031,245.172 320.024 C 244.854 320.619,244.383 320.741,242.394 320.741 L 240.000 320.741 240.000 318.179 C 240.000 316.770,240.166 315.562,240.368 315.494 C 241.091 315.251,244.638 315.639,245.093 316.009 M280.539 315.710 C 285.062 317.600,283.242 324.881,278.390 324.304 C 273.909 323.772,273.183 317.287,277.415 315.599 C 278.684 315.092,279.096 315.107,280.539 315.710 M295.554 316.109 C 297.302 318.216,295.765 320.741,292.732 320.741 L 290.370 320.741 290.370 318.148 L 290.370 315.556 292.732 315.556 C 294.376 315.556,295.234 315.724,295.554 316.109 M90.342 320.463 C 90.358 320.616,89.954 320.741,89.444 320.741 C 88.391 320.741,88.352 320.590,88.953 318.865 L 89.387 317.619 89.851 318.902 C 90.105 319.608,90.327 320.310,90.342 320.463 M188.490 320.463 C 188.506 320.616,188.091 320.741,187.568 320.741 C 186.757 320.741,186.652 320.617,186.856 319.907 C 186.988 319.449,187.192 318.741,187.309 318.333 C 187.502 317.660,188.364 319.213,188.490 320.463 M255.469 320.678 C 254.420 320.857,254.317 320.580,254.848 319.006 L 255.325 317.593 255.756 319.074 C 256.149 320.429,256.125 320.566,255.469 320.678 M312.194 320.463 C 312.210 320.616,311.806 320.741,311.296 320.741 C 310.258 320.741,310.131 320.191,310.818 318.682 L 311.266 317.699 311.716 318.942 C 311.963 319.626,312.179 320.310,312.194 320.463 " stroke="none" fill="#c9243b" fill-rule="evenodd"></path><path id="path2" d="M189.259 73.865 C 164.343 76.766,142.488 88.069,127.443 105.833 L 125.482 108.148 162.760 108.148 C 203.211 108.148,201.348 108.055,202.723 110.153 C 203.494 111.330,203.510 113.657,202.755 114.735 C 201.339 116.757,203.347 116.667,159.735 116.667 L 119.433 116.667 118.163 118.606 C 116.964 120.437,112.222 129.366,112.222 129.792 C 112.222 129.901,129.468 130.034,150.547 130.087 L 188.872 130.185 189.847 131.160 C 191.799 133.112,191.452 136.389,189.143 137.796 C 187.994 138.497,186.921 138.516,148.417 138.517 L 108.871 138.519 108.479 139.537 C 107.654 141.686,104.815 153.288,104.815 154.511 C 104.815 154.678,108.773 154.815,113.611 154.816 C 121.630 154.817,122.510 154.880,123.573 155.528 C 125.997 157.007,125.997 160.771,123.573 162.250 C 122.504 162.901,121.620 162.960,112.904 162.962 L 103.400 162.963 103.142 166.063 C 102.872 169.298,103.421 181.835,103.863 182.551 C 104.038 182.834,106.763 182.963,112.560 182.963 C 122.074 182.963,122.611 183.117,123.154 186.011 C 123.940 190.200,122.057 191.111,112.611 191.111 C 108.527 191.111,105.185 191.188,105.185 191.282 C 105.185 192.699,107.821 201.483,109.440 205.463 L 110.080 207.037 112.117 207.037 C 113.930 207.037,114.119 207.108,113.836 207.685 C 111.385 212.700,117.701 221.050,122.941 219.720 C 124.754 219.260,124.616 219.065,125.384 223.162 C 126.311 228.106,125.608 231.252,122.732 235.025 C 119.685 239.024,120.155 244.414,123.832 247.650 C 128.719 251.952,135.466 250.008,138.372 243.460 C 138.838 242.409,139.398 241.439,139.616 241.305 C 139.834 241.170,139.931 240.928,139.832 240.768 C 139.732 240.607,141.133 240.505,142.945 240.541 C 147.107 240.623,148.407 241.377,149.823 244.529 C 153.977 253.782,164.436 252.761,167.571 242.796 L 168.217 240.741 186.314 240.741 L 204.411 240.741 204.656 242.046 C 206.766 253.294,224.374 254.124,228.026 243.148 L 228.765 240.926 240.263 240.828 L 251.761 240.730 252.169 242.351 C 254.229 250.531,264.892 253.370,271.494 247.498 C 275.128 244.265,276.354 239.579,275.036 233.958 C 273.958 229.361,274.386 227.956,276.728 228.404 C 278.076 228.662,281.398 227.638,282.963 226.483 C 286.947 223.540,287.209 219.135,283.792 212.509 C 281.504 208.070,282.590 206.492,287.482 207.148 C 289.304 207.393,290.552 206.971,291.113 205.922 C 291.581 205.049,295.556 192.163,295.556 191.521 C 295.556 191.235,293.363 191.111,288.309 191.111 C 280.872 191.111,280.247 191.008,278.611 189.519 C 277.665 188.657,277.487 186.598,278.220 184.990 C 279.057 183.154,280.022 182.963,288.455 182.963 C 294.925 182.963,296.283 182.870,296.671 182.402 C 297.187 181.780,297.707 165.688,297.267 163.936 L 297.023 162.963 284.846 162.963 L 272.669 162.963 271.520 161.654 C 269.956 159.873,269.931 157.911,271.451 156.210 L 272.531 155.000 284.232 154.892 L 295.933 154.785 295.747 153.967 C 295.645 153.516,295.296 151.821,294.972 150.198 C 285.254 101.604,238.845 68.092,189.259 73.865 M209.713 88.519 C 210.443 89.608,210.889 89.867,212.513 90.145 C 214.649 90.509,214.775 90.763,213.820 92.765 C 213.235 93.993,213.235 94.156,213.820 95.383 C 214.891 97.629,214.698 98.148,212.792 98.148 C 211.095 98.148,209.894 98.955,209.435 100.401 C 209.024 101.694,208.185 101.484,207.027 99.800 C 205.967 98.259,205.779 98.148,204.230 98.148 C 202.204 98.148,201.908 97.615,202.881 95.719 C 203.586 94.345,203.585 94.315,202.837 92.545 C 201.943 90.428,201.954 90.411,204.394 90.122 C 205.440 89.998,206.296 89.766,206.296 89.606 C 206.296 89.128,208.216 86.997,208.542 87.114 C 208.708 87.174,209.235 87.806,209.713 88.519 M242.179 95.833 L 244.474 99.074 248.402 99.444 C 253.564 99.931,253.649 100.061,251.568 104.257 C 249.638 108.148,249.638 108.300,251.549 112.321 C 253.529 116.489,253.409 116.664,248.260 117.079 C 246.263 117.240,244.599 117.380,244.562 117.389 C 244.525 117.399,243.486 118.805,242.252 120.514 C 239.057 124.940,239.074 124.942,235.782 120.107 C 233.776 117.162,234.277 117.376,228.261 116.891 C 224.971 116.626,224.876 116.214,227.037 111.622 C 227.852 109.891,228.519 108.314,228.519 108.118 C 228.519 107.922,227.852 106.435,227.037 104.815 C 224.675 100.116,224.854 99.813,230.213 99.436 L 233.944 99.173 235.213 97.302 C 239.186 91.445,239.085 91.466,242.179 95.833 M220.591 129.326 C 227.327 131.537,230.547 139.810,227.126 146.114 C 222.569 154.511,209.969 154.271,206.050 145.712 C 201.586 135.960,210.432 125.991,220.591 129.326 M261.091 133.611 C 261.632 134.251,262.189 134.444,263.490 134.444 C 265.372 134.444,265.622 134.931,264.630 136.667 C 263.949 137.858,263.953 139.254,264.641 140.163 C 265.683 141.541,265.340 142.131,263.337 142.407 C 261.773 142.622,261.314 142.883,260.343 144.108 C 258.928 145.895,258.841 145.895,257.661 144.112 C 256.822 142.843,256.478 142.636,254.834 142.410 C 252.750 142.123,252.620 141.854,253.587 139.827 C 254.172 138.600,254.172 138.437,253.587 137.210 C 252.529 134.991,252.716 134.445,254.537 134.439 C 256.374 134.432,256.511 134.352,257.934 132.443 L 259.013 130.998 259.699 131.888 C 260.077 132.377,260.703 133.153,261.091 133.611 M149.335 151.316 C 154.291 153.005,157.258 158.724,155.793 163.764 C 152.606 174.726,136.177 173.352,135.280 162.048 C 134.660 154.242,141.838 148.762,149.335 151.316 M223.543 155.957 C 235.340 158.112,242.395 168.891,245.895 190.108 C 248.167 203.877,247.511 207.077,242.394 207.188 C 238.919 207.263,238.341 206.092,236.832 195.926 C 235.329 185.805,231.497 172.251,230.708 174.269 C 230.551 174.671,230.411 183.024,230.396 192.831 C 230.362 216.434,229.243 225.856,224.629 241.371 C 222.851 247.349,215.399 249.357,210.938 245.061 C 209.019 243.212,208.671 242.145,205.970 229.815 C 202.775 215.235,202.600 213.175,202.596 190.013 C 202.593 175.130,202.537 173.600,202.018 174.120 C 200.603 175.534,197.734 185.724,195.936 195.719 C 194.467 203.884,193.594 205.112,189.535 204.722 C 184.804 204.267,184.613 198.947,188.729 182.297 C 193.968 161.103,205.199 152.606,223.543 155.957 M267.689 173.758 C 273.451 176.521,274.228 185.168,269.067 189.105 C 262.051 194.456,252.311 188.227,254.419 179.739 C 255.857 173.946,262.159 171.106,267.689 173.758 M151.481 175.638 C 155.118 176.727,157.758 178.912,164.361 186.296 L 168.832 191.296 175.012 194.444 C 182.791 198.408,183.910 199.683,182.609 203.105 C 181.396 206.295,178.676 206.101,171.157 202.286 C 162.880 198.088,162.787 198.020,158.455 193.019 C 156.351 190.590,154.580 188.647,154.519 188.702 C 154.458 188.757,156.454 195.910,158.954 204.598 C 164.138 222.616,164.063 221.606,160.239 221.776 C 157.255 221.909,157.274 221.036,160.045 230.556 C 163.818 243.519,163.576 242.371,162.858 243.878 C 161.271 247.206,156.264 247.605,154.674 244.531 C 154.386 243.974,152.782 238.935,151.108 233.333 C 149.435 227.731,147.912 222.856,147.724 222.500 C 147.011 221.150,143.333 222.214,143.333 223.771 C 143.333 224.722,133.518 243.660,132.571 244.537 C 130.234 246.699,126.694 245.631,125.323 242.351 C 124.600 240.622,124.775 240.149,129.874 230.024 C 134.291 221.252,134.088 221.929,132.352 221.782 C 130.287 221.606,130.078 220.925,130.991 217.332 C 131.420 215.642,132.685 210.676,133.802 206.296 C 136.874 194.247,136.843 194.211,131.931 204.144 C 126.552 215.021,125.752 215.919,122.413 214.817 C 117.727 213.270,119.314 208.208,131.410 186.111 C 136.556 176.711,143.306 173.189,151.481 175.638 M266.000 194.494 C 271.589 195.689,272.471 196.958,281.103 216.218 C 283.116 220.709,282.524 223.172,279.259 223.889 C 276.660 224.460,275.807 223.308,271.656 213.625 C 270.459 210.831,269.418 208.606,269.344 208.681 C 269.270 208.755,269.552 213.540,269.972 219.315 C 271.593 241.635,271.529 242.780,268.523 245.310 C 265.130 248.165,258.994 247.251,256.884 243.575 L 256.001 242.037 256.493 228.704 C 256.764 221.370,257.063 213.663,257.157 211.577 C 257.361 207.044,257.506 206.993,253.482 212.882 C 248.402 220.316,246.464 221.623,244.163 219.167 C 241.839 216.686,241.982 216.272,248.610 206.296 C 256.177 194.908,258.995 192.996,266.000 194.494 M192.975 208.056 C 193.715 208.721,194.271 209.716,194.577 210.926 C 194.930 212.323,195.233 212.805,195.810 212.890 C 198.102 213.227,198.333 214.151,198.333 222.977 C 198.333 233.139,199.226 232.195,189.608 232.210 C 180.080 232.226,180.955 233.076,180.811 223.663 C 180.665 214.083,180.994 212.963,183.959 212.963 C 185.083 212.963,185.185 212.868,185.185 211.815 C 185.185 210.939,186.122 208.177,186.431 208.143 C 186.459 208.140,187.148 207.897,187.963 207.603 C 190.279 206.769,191.683 206.895,192.975 208.056 M188.751 210.936 C 188.327 212.042,188.506 212.222,190.026 212.222 C 191.377 212.222,191.521 212.136,191.415 211.389 C 191.264 210.330,189.123 209.966,188.751 210.936 M142.407 256.450 C 121.471 260.536,113.977 286.036,129.418 300.652 C 146.359 316.688,173.893 304.068,172.859 280.741 C 172.165 265.083,157.620 253.480,142.407 256.450 M96.852 258.332 C 80.224 262.867,82.587 281.784,100.185 285.014 C 108.656 286.569,112.222 288.703,112.222 292.218 C 112.222 298.774,98.431 299.825,92.339 293.734 C 90.469 291.864,90.929 291.799,87.007 294.485 C 83.057 297.190,83.115 296.793,86.221 299.899 C 95.584 309.262,113.934 308.452,119.270 298.442 C 124.356 288.901,117.649 279.434,104.089 277.013 C 97.024 275.752,93.510 273.303,94.292 270.185 C 95.397 265.783,108.418 265.028,113.915 269.048 C 114.730 269.643,115.187 269.203,118.028 265.088 C 120.024 262.197,120.108 262.396,116.053 260.380 C 111.094 257.915,101.953 256.940,96.852 258.332 M248.704 258.358 C 245.640 258.961,240.787 261.265,238.704 263.105 L 237.222 264.414 253.704 264.415 L 270.185 264.417 268.704 263.140 C 263.758 258.880,255.762 256.968,248.704 258.358 M292.669 258.354 C 276.156 262.799,278.635 281.796,296.148 285.019 C 304.703 286.594,308.139 288.640,308.146 292.165 C 308.159 298.877,294.252 299.845,288.142 293.557 C 287.432 292.827,286.711 292.228,286.538 292.226 C 286.265 292.223,280.764 295.910,279.855 296.705 C 278.589 297.812,285.810 303.412,290.599 305.037 C 303.637 309.461,316.689 303.208,316.727 292.521 C 316.756 284.166,310.842 278.810,299.444 276.871 C 292.027 275.609,287.908 271.524,291.199 268.694 C 291.736 268.232,292.102 267.781,292.013 267.692 C 291.925 267.604,292.060 267.511,292.315 267.486 C 292.569 267.462,293.694 267.173,294.815 266.845 C 298.859 265.659,306.224 266.630,309.434 268.772 C 310.649 269.582,310.937 269.381,313.290 266.083 C 316.088 262.161,316.132 262.520,312.631 260.760 C 306.940 257.899,298.251 256.852,292.669 258.354 M154.052 260.200 C 167.243 264.367,173.794 279.770,167.593 292.037 C 156.646 313.692,124.225 305.921,124.329 281.667 C 124.394 266.410,139.401 255.572,154.052 260.200 M231.141 273.522 C 230.722 274.645,230.271 276.233,230.140 277.052 L 229.902 278.541 234.792 278.437 L 239.682 278.333 240.332 276.413 C 240.689 275.356,241.429 273.815,241.977 272.987 L 242.973 271.481 237.439 271.481 L 231.905 271.481 231.141 273.522 M265.552 273.202 C 266.152 274.148,266.912 275.731,267.240 276.720 L 267.837 278.519 272.670 278.519 L 277.502 278.519 277.266 277.041 C 277.136 276.228,276.686 274.645,276.266 273.522 L 275.502 271.481 269.982 271.481 L 264.461 271.481 265.552 273.202 M145.667 275.747 L 144.230 278.704 141.333 279.146 C 137.637 279.711,137.677 279.603,140.275 282.008 L 142.487 284.056 141.966 287.071 C 141.330 290.752,141.207 290.636,144.100 289.078 C 147.039 287.494,147.033 287.494,150.093 289.064 C 152.925 290.518,152.848 290.603,152.178 286.752 L 151.763 284.369 154.064 282.047 L 156.366 279.725 155.127 279.505 C 154.446 279.384,152.999 279.172,151.910 279.035 L 149.932 278.784 148.518 275.787 L 147.105 272.790 145.667 275.747 M252.121 276.111 C 251.040 278.296,250.575 278.889,249.941 278.889 C 249.497 278.889,248.053 279.077,246.732 279.307 L 244.328 279.726 246.693 281.847 L 249.058 283.969 248.603 286.621 C 247.911 290.658,247.794 290.539,250.926 288.990 L 253.704 287.615 256.481 288.990 C 258.202 289.841,259.259 290.189,259.259 289.904 C 259.259 289.651,259.030 288.245,258.750 286.778 L 258.241 284.112 260.455 281.986 C 262.972 279.569,262.960 279.545,258.959 279.082 L 256.622 278.811 255.267 276.072 C 253.615 272.734,253.794 272.732,252.121 276.111 M230.130 286.963 C 230.256 287.749,230.717 289.254,231.155 290.307 L 231.951 292.222 237.482 292.222 L 243.013 292.222 242.185 291.058 C 241.729 290.418,240.976 288.960,240.512 287.818 L 239.669 285.741 234.785 285.637 L 229.902 285.533 230.130 286.963 M267.535 286.204 C 266.965 287.885,265.459 290.974,264.916 291.574 C 264.336 292.216,264.537 292.238,269.971 292.140 L 275.631 292.037 276.304 290.262 C 276.674 289.286,277.089 287.828,277.225 287.022 L 277.473 285.556 272.614 285.556 C 268.316 285.556,267.729 285.631,267.535 286.204 M238.102 300.282 C 247.098 307.583,259.322 307.882,268.407 301.023 C 269.487 300.208,270.370 299.477,270.370 299.400 C 270.370 299.323,262.829 299.261,253.611 299.263 L 236.852 299.267 238.102 300.282 " stroke="none" fill="#1e3362" fill-rule="evenodd"></path><path id="path3" d="M198.625 73.237 C 199.803 73.311,201.637 73.310,202.699 73.236 C 203.761 73.161,202.796 73.101,200.556 73.102 C 198.315 73.102,197.446 73.163,198.625 73.237 M271.481 104.259 C 272.173 104.972,272.821 105.556,272.923 105.556 C 273.025 105.556,272.543 104.972,271.852 104.259 C 271.161 103.546,270.512 102.963,270.410 102.963 C 270.308 102.963,270.790 103.546,271.481 104.259 M143.796 108.426 C 154.134 108.481,171.051 108.481,181.389 108.426 C 191.727 108.371,183.269 108.326,162.593 108.326 C 141.917 108.326,133.458 108.371,143.796 108.426 M215.838 128.780 C 216.298 128.869,216.965 128.866,217.319 128.773 C 217.673 128.680,217.296 128.608,216.481 128.612 C 215.667 128.616,215.377 128.692,215.838 128.780 M128.241 138.426 C 139.190 138.480,157.106 138.480,168.056 138.426 C 179.005 138.371,170.046 138.327,148.148 138.327 C 126.250 138.327,117.292 138.371,128.241 138.426 M204.921 140.556 C 204.924 141.574,204.995 141.947,205.081 141.384 C 205.166 140.821,205.163 139.987,205.076 139.532 C 204.988 139.076,204.918 139.537,204.921 140.556 M104.779 154.929 C 104.944 155.093,105.978 155.174,107.077 155.109 L 109.074 154.990 106.776 154.810 C 105.513 154.711,104.614 154.764,104.779 154.929 M279.167 155.092 C 282.273 155.154,287.356 155.154,290.463 155.092 C 293.569 155.030,291.028 154.979,284.815 154.979 C 278.602 154.979,276.060 155.030,279.167 155.092 M218.056 155.823 C 218.718 155.906,219.801 155.906,220.463 155.823 C 221.125 155.741,220.583 155.674,219.259 155.674 C 217.935 155.674,217.394 155.741,218.056 155.823 M156.012 161.111 C 156.012 161.824,156.088 162.116,156.181 161.759 C 156.274 161.403,156.274 160.819,156.181 160.463 C 156.088 160.106,156.012 160.398,156.012 161.111 M234.444 162.037 C 235.135 162.750,235.784 163.333,235.886 163.333 C 235.988 163.333,235.506 162.750,234.815 162.037 C 234.124 161.324,233.475 160.741,233.373 160.741 C 233.271 160.741,233.753 161.324,234.444 162.037 M297.508 172.593 C 297.508 173.509,297.581 173.884,297.669 173.426 C 297.757 172.968,297.757 172.218,297.669 171.759 C 297.581 171.301,297.508 171.676,297.508 172.593 M202.731 177.963 C 202.732 180.204,202.793 181.073,202.867 179.894 C 202.940 178.715,202.940 176.882,202.865 175.820 C 202.791 174.758,202.730 175.722,202.731 177.963 M135.906 179.537 L 134.630 180.926 136.019 179.650 C 136.782 178.948,137.407 178.323,137.407 178.261 C 137.407 177.978,137.094 178.244,135.906 179.537 M272.328 181.667 C 272.331 182.685,272.403 183.058,272.488 182.495 C 272.573 181.932,272.571 181.099,272.483 180.643 C 272.395 180.188,272.325 180.648,272.328 181.667 M254.160 181.852 C 254.160 182.565,254.236 182.856,254.329 182.500 C 254.423 182.144,254.423 181.560,254.329 181.204 C 254.236 180.847,254.160 181.139,254.160 181.852 M160.000 181.968 C 160.000 182.031,160.542 182.573,161.204 183.171 L 162.407 184.259 161.320 183.056 C 160.306 181.934,160.000 181.682,160.000 181.968 M262.685 194.329 C 263.042 194.423,263.625 194.423,263.981 194.329 C 264.338 194.236,264.046 194.160,263.333 194.160 C 262.620 194.160,262.329 194.236,262.685 194.329 M254.425 198.056 L 253.148 199.444 254.537 198.168 C 255.830 196.980,256.096 196.667,255.813 196.667 C 255.752 196.667,255.127 197.292,254.425 198.056 M230.101 209.630 C 230.101 210.546,230.173 210.921,230.261 210.463 C 230.350 210.005,230.350 209.255,230.261 208.796 C 230.173 208.338,230.101 208.713,230.101 209.630 M257.143 213.519 C 257.146 214.537,257.218 214.910,257.303 214.347 C 257.388 213.784,257.386 212.950,257.298 212.495 C 257.210 212.039,257.140 212.500,257.143 213.519 M269.345 214.074 C 269.345 214.787,269.421 215.079,269.515 214.722 C 269.608 214.366,269.608 213.782,269.515 213.426 C 269.421 213.069,269.345 213.361,269.345 214.074 M180.889 224.630 C 180.889 227.685,180.947 228.886,181.016 227.298 C 181.086 225.710,181.086 223.210,181.015 221.742 C 180.945 220.275,180.888 221.574,180.889 224.630 M158.426 221.749 C 159.088 221.832,160.171 221.832,160.833 221.749 C 161.495 221.667,160.954 221.600,159.630 221.600 C 158.306 221.600,157.764 221.667,158.426 221.749 M256.768 223.704 C 256.768 224.620,256.840 224.995,256.928 224.537 C 257.016 224.079,257.016 223.329,256.928 222.870 C 256.840 222.412,256.768 222.787,256.768 223.704 M125.656 226.667 C 125.656 227.583,125.729 227.958,125.817 227.500 C 125.905 227.042,125.905 226.292,125.817 225.833 C 125.729 225.375,125.656 225.750,125.656 226.667 M256.390 233.889 C 256.394 234.704,256.470 234.993,256.558 234.533 C 256.647 234.072,256.643 233.405,256.551 233.051 C 256.458 232.697,256.386 233.074,256.390 233.889 M270.842 238.519 C 270.842 239.435,270.914 239.810,271.002 239.352 C 271.090 238.894,271.090 238.144,271.002 237.685 C 270.914 237.227,270.842 237.602,270.842 238.519 M275.656 238.519 C 275.656 239.435,275.729 239.810,275.817 239.352 C 275.905 238.894,275.905 238.144,275.817 237.685 C 275.729 237.227,275.656 237.602,275.656 238.519 M176.090 261.667 L 176.111 265.000 183.982 265.011 L 191.852 265.023 184.088 264.911 L 176.324 264.800 176.197 261.567 L 176.069 258.333 176.090 261.667 M225.631 261.382 L 225.556 264.800 217.685 264.908 L 209.815 265.016 217.697 265.100 C 226.763 265.198,226.013 265.569,225.832 261.080 L 225.706 257.963 225.631 261.382 M128.519 263.519 C 127.619 264.435,126.966 265.185,127.068 265.185 C 127.170 265.185,127.989 264.435,128.889 263.519 C 129.789 262.602,130.441 261.852,130.339 261.852 C 130.238 261.852,129.418 262.602,128.519 263.519 M146.389 265.070 C 146.745 265.163,147.329 265.163,147.685 265.070 C 148.042 264.977,147.750 264.901,147.037 264.901 C 146.324 264.901,146.032 264.977,146.389 265.070 M146.019 268.413 C 146.579 268.498,147.495 268.498,148.056 268.413 C 148.616 268.329,148.157 268.259,147.037 268.259 C 145.917 268.259,145.458 268.329,146.019 268.413 M135.717 269.722 L 134.630 270.926 135.833 269.838 C 136.955 268.824,137.207 268.519,136.921 268.519 C 136.857 268.519,136.316 269.060,135.717 269.722 M225.553 275.109 L 225.736 278.704 225.846 275.404 C 225.907 273.589,225.825 271.972,225.663 271.810 C 225.502 271.648,225.453 273.133,225.553 275.109 M176.059 275.185 C 176.059 277.120,176.122 277.912,176.198 276.944 C 176.274 275.977,176.274 274.394,176.198 273.426 C 176.122 272.458,176.059 273.250,176.059 275.185 M163.082 281.852 C 163.082 283.176,163.149 283.718,163.231 283.056 C 163.313 282.394,163.313 281.310,163.231 280.648 C 163.149 279.986,163.082 280.528,163.082 281.852 M173.082 281.852 C 173.082 283.176,173.149 283.718,173.231 283.056 C 173.313 282.394,173.313 281.310,173.231 280.648 C 173.149 279.986,173.082 280.528,173.082 281.852 M0.842 285.926 C 0.842 286.843,0.914 287.218,1.002 286.759 C 1.090 286.301,1.090 285.551,1.002 285.093 C 0.914 284.634,0.842 285.009,0.842 285.926 M176.084 285.679 C 175.979 285.951,175.951 287.576,176.020 289.290 L 176.146 292.407 176.221 288.991 L 176.296 285.575 181.944 285.462 L 187.593 285.350 181.933 285.267 C 177.499 285.203,176.232 285.292,176.084 285.679 M190.370 285.463 C 190.370 285.616,195.120 285.741,200.926 285.741 C 206.731 285.741,211.481 285.616,211.481 285.463 C 211.481 285.310,206.731 285.185,200.926 285.185 C 195.120 285.185,190.370 285.310,190.370 285.463 M214.495 286.194 C 214.538 287.067,214.569 287.097,214.706 286.389 C 214.863 285.570,214.962 285.556,220.236 285.556 L 225.606 285.556 225.488 289.057 C 225.423 290.983,225.502 292.426,225.663 292.264 C 225.825 292.102,225.908 290.485,225.849 288.670 L 225.741 285.370 220.093 285.268 L 214.444 285.166 214.495 286.194 M232.130 285.460 C 233.606 285.530,236.023 285.530,237.500 285.460 C 238.977 285.390,237.769 285.332,234.815 285.332 C 231.861 285.332,230.653 285.390,232.130 285.460 M272.290 285.462 C 276.715 285.562,277.378 285.657,277.524 286.214 C 277.647 286.682,277.703 286.629,277.735 286.019 C 277.778 285.188,277.762 285.185,272.500 285.266 L 267.222 285.348 272.290 285.462 M214.495 289.700 C 214.467 291.063,214.569 292.256,214.722 292.351 C 214.875 292.445,214.952 291.664,214.893 290.613 C 214.716 287.456,214.548 287.071,214.495 289.700 M1.567 289.259 C 1.567 289.972,1.644 290.264,1.737 289.907 C 1.830 289.551,1.830 288.968,1.737 288.611 C 1.644 288.255,1.567 288.546,1.567 289.259 M2.396 312.963 C 2.396 325.491,2.443 330.616,2.500 324.352 C 2.557 318.088,2.557 307.838,2.500 301.574 C 2.443 295.310,2.396 300.435,2.396 312.963 M264.547 291.574 C 263.749 292.606,263.661 292.956,264.256 292.728 C 264.581 292.603,264.758 292.412,264.649 292.303 C 264.540 292.194,264.636 291.882,264.863 291.608 C 265.090 291.335,265.193 291.111,265.091 291.111 C 264.989 291.111,264.744 291.319,264.547 291.574 M237.319 292.484 C 237.780 292.573,238.447 292.569,238.801 292.477 C 239.155 292.384,238.778 292.312,237.963 292.316 C 237.148 292.320,236.858 292.396,237.319 292.484 M268.981 292.496 C 270.153 292.569,272.069 292.569,273.241 292.496 C 274.412 292.422,273.454 292.362,271.111 292.362 C 268.769 292.362,267.810 292.422,268.981 292.496 M157.946 294.537 L 156.481 296.111 158.056 294.647 C 159.519 293.286,159.800 292.963,159.520 292.963 C 159.459 292.963,158.751 293.671,157.946 294.537 M341.389 296.928 C 341.847 297.016,342.597 297.016,343.056 296.928 C 343.514 296.840,343.139 296.768,342.222 296.768 C 341.306 296.768,340.931 296.840,341.389 296.928 M102.685 297.673 C 103.245 297.758,104.162 297.758,104.722 297.673 C 105.282 297.588,104.824 297.518,103.704 297.518 C 102.583 297.518,102.125 297.588,102.685 297.673 M298.616 297.673 C 299.179 297.758,300.013 297.756,300.468 297.668 C 300.924 297.580,300.463 297.511,299.444 297.513 C 298.426 297.516,298.053 297.588,298.616 297.673 M353.426 298.413 C 353.986 298.498,354.903 298.498,355.463 298.413 C 356.023 298.329,355.565 298.259,354.444 298.259 C 353.324 298.259,352.866 298.329,353.426 298.413 M176.002 302.500 L 176.078 306.111 176.203 302.790 C 176.280 300.724,176.497 299.361,176.775 299.185 C 177.081 298.990,177.018 298.898,176.574 298.895 C 175.996 298.889,175.934 299.277,176.002 302.500 M181.019 299.162 C 182.088 299.237,183.838 299.237,184.907 299.162 C 185.977 299.087,185.102 299.026,182.963 299.026 C 180.824 299.026,179.949 299.087,181.019 299.162 M221.415 299.166 L 225.607 299.284 225.489 302.571 C 225.424 304.379,225.495 305.780,225.648 305.685 C 225.801 305.590,225.926 304.022,225.926 302.200 L 225.926 298.889 221.574 298.968 L 217.222 299.047 221.415 299.166 M236.868 299.234 C 236.750 299.423,236.850 299.699,237.088 299.846 C 237.350 300.008,237.423 299.954,237.272 299.711 C 237.117 299.460,237.480 299.251,238.234 299.157 L 239.444 299.007 238.263 298.948 C 237.613 298.916,236.985 299.044,236.868 299.234 M265.278 299.144 C 265.634 299.237,266.218 299.237,266.574 299.144 C 266.931 299.051,266.639 298.975,265.926 298.975 C 265.213 298.975,264.921 299.051,265.278 299.144 M268.805 299.160 C 269.831 299.253,270.299 299.445,270.136 299.709 C 269.985 299.954,270.057 300.009,270.319 299.846 C 271.127 299.347,270.334 298.889,268.774 298.954 L 267.222 299.018 268.805 299.160 M165.347 300.463 L 164.259 301.667 165.463 300.579 C 166.585 299.565,166.837 299.259,166.551 299.259 C 166.487 299.259,165.945 299.801,165.347 300.463 M367.130 299.885 C 367.486 299.978,368.069 299.978,368.426 299.885 C 368.782 299.792,368.491 299.716,367.778 299.716 C 367.065 299.716,366.773 299.792,367.130 299.885 M324.630 300.370 C 324.355 300.815,325.448 300.815,326.481 300.370 C 327.106 300.102,327.037 300.048,326.040 300.026 C 325.390 300.012,324.756 300.167,324.630 300.370 M214.559 302.778 C 214.561 304.000,214.630 304.455,214.713 303.790 C 214.795 303.124,214.794 302.124,214.709 301.567 C 214.625 301.011,214.557 301.556,214.559 302.778 M145.097 304.706 C 145.558 304.795,146.224 304.792,146.578 304.699 C 146.932 304.606,146.556 304.534,145.741 304.538 C 144.926 304.542,144.636 304.618,145.097 304.706 M251.574 306.181 C 251.931 306.274,252.514 306.274,252.870 306.181 C 253.227 306.088,252.935 306.012,252.222 306.012 C 251.509 306.012,251.218 306.088,251.574 306.181 M254.537 306.181 C 254.894 306.274,255.477 306.274,255.833 306.181 C 256.190 306.088,255.898 306.012,255.185 306.012 C 254.472 306.012,254.181 306.088,254.537 306.181 M102.130 306.567 C 102.995 306.645,104.412 306.645,105.278 306.567 C 106.144 306.490,105.435 306.426,103.704 306.426 C 101.972 306.426,101.264 306.490,102.130 306.567 M297.882 306.569 C 298.855 306.646,300.355 306.645,301.215 306.567 C 302.074 306.489,301.278 306.427,299.444 306.428 C 297.611 306.429,296.908 306.492,297.882 306.569 M145.648 308.048 C 146.412 308.127,147.662 308.127,148.426 308.048 C 149.190 307.968,148.565 307.902,147.037 307.902 C 145.509 307.902,144.884 307.968,145.648 308.048 M108.889 319.815 C 108.889 323.787,109.014 327.037,109.167 327.037 C 109.319 327.037,109.444 323.787,109.444 319.815 C 109.444 315.843,109.319 312.593,109.167 312.593 C 109.014 312.593,108.889 315.843,108.889 319.815 M157.550 317.037 C 157.550 319.583,157.609 320.625,157.682 319.352 C 157.754 318.079,157.754 315.995,157.682 314.722 C 157.609 313.449,157.550 314.491,157.550 317.037 M212.748 319.815 C 212.748 323.889,212.802 325.606,212.868 323.631 C 212.935 321.656,212.935 318.322,212.869 316.223 C 212.803 314.125,212.749 315.741,212.748 319.815 M215.556 319.815 C 215.556 323.787,215.681 327.037,215.833 327.037 C 215.986 327.037,216.111 323.787,216.111 319.815 C 216.111 315.843,215.986 312.593,215.833 312.593 C 215.681 312.593,215.556 315.843,215.556 319.815 M287.491 319.907 L 287.575 327.222 287.685 320.202 C 287.764 315.161,287.923 313.100,288.249 312.893 C 288.567 312.691,288.508 312.602,288.056 312.598 C 287.457 312.593,287.414 313.154,287.491 319.907 M222.384 314.907 L 221.296 316.111 222.500 315.023 C 223.162 314.425,223.704 313.883,223.704 313.820 C 223.704 313.533,223.398 313.785,222.384 314.907 M231.143 314.956 L 230.249 316.111 231.309 315.104 C 231.891 314.550,232.294 314.030,232.203 313.949 C 232.112 313.868,231.635 314.321,231.143 314.956 M264.073 321.221 L 264.257 327.222 264.361 321.510 C 264.418 318.368,264.335 315.668,264.177 315.509 C 264.018 315.350,263.972 317.921,264.073 321.221 M298.619 318.148 C 298.619 319.065,298.692 319.440,298.780 318.981 C 298.868 318.523,298.868 317.773,298.780 317.315 C 298.692 316.856,298.619 317.231,298.619 318.148 M248.234 318.148 C 248.234 318.861,248.310 319.153,248.403 318.796 C 248.497 318.440,248.497 317.856,248.403 317.500 C 248.310 317.144,248.234 317.435,248.234 318.148 M228.148 320.000 C 228.148 320.815,228.286 321.481,228.454 321.481 C 228.623 321.481,228.685 320.963,228.591 320.329 C 228.484 319.597,228.608 319.059,228.933 318.854 C 229.338 318.597,229.309 318.529,228.796 318.524 C 228.286 318.520,228.148 318.834,228.148 320.000 M234.296 318.802 C 234.520 318.952,234.799 319.324,234.915 319.630 C 235.057 320.001,235.136 319.909,235.156 319.352 C 235.176 318.792,234.972 318.520,234.537 318.524 C 234.137 318.528,234.045 318.634,234.296 318.802 M286.019 319.815 C 286.023 320.630,286.099 320.919,286.188 320.459 C 286.276 319.998,286.273 319.331,286.180 318.977 C 286.088 318.623,286.015 319.000,286.019 319.815 M129.395 323.519 C 129.395 325.556,129.458 326.342,129.533 325.265 C 129.608 324.189,129.607 322.522,129.531 321.562 C 129.455 320.601,129.394 321.481,129.395 323.519 M172.623 323.056 C 172.708 323.106,173.278 323.565,173.889 324.074 L 175.000 325.000 174.102 323.981 C 173.608 323.421,173.039 322.963,172.837 322.963 C 172.635 322.963,172.539 323.005,172.623 323.056 M87.640 323.626 C 87.541 323.787,88.073 323.861,88.822 323.790 C 91.113 323.573,91.383 323.421,89.559 323.376 C 88.603 323.353,87.740 323.465,87.640 323.626 M185.789 323.626 C 185.689 323.787,186.221 323.861,186.970 323.790 C 189.261 323.573,189.531 323.421,187.707 323.376 C 186.751 323.353,185.888 323.465,185.789 323.626 M240.833 323.599 C 241.394 323.683,242.310 323.683,242.870 323.599 C 243.431 323.514,242.972 323.444,241.852 323.444 C 240.731 323.444,240.273 323.514,240.833 323.599 M254.542 323.599 C 255.105 323.684,255.938 323.682,256.394 323.594 C 256.850 323.506,256.389 323.436,255.370 323.439 C 254.352 323.442,253.979 323.514,254.542 323.599 M291.204 323.599 C 291.764 323.683,292.681 323.683,293.241 323.599 C 293.801 323.514,293.343 323.444,292.222 323.444 C 291.102 323.444,290.644 323.514,291.204 323.599 M310.093 323.599 C 310.653 323.683,311.569 323.683,312.130 323.599 C 312.690 323.514,312.231 323.444,311.111 323.444 C 309.991 323.444,309.532 323.514,310.093 323.599 M141.852 324.303 C 144.026 324.579,146.955 324.608,146.795 324.352 C 146.701 324.199,145.341 324.099,143.774 324.130 C 142.208 324.160,141.343 324.238,141.852 324.303 M59.907 335.076 C 60.366 335.164,61.116 335.164,61.574 335.076 C 62.032 334.988,61.657 334.916,60.741 334.916 C 59.824 334.916,59.449 334.988,59.907 335.076 M94.074 335.562 C 93.499 335.751,93.990 335.788,95.370 335.659 C 96.593 335.546,97.662 335.392,97.747 335.319 C 98.046 335.060,94.989 335.263,94.074 335.562 M51.019 335.817 C 51.477 335.905,52.227 335.905,52.685 335.817 C 53.144 335.729,52.769 335.656,51.852 335.656 C 50.935 335.656,50.560 335.729,51.019 335.817 M2.222 336.636 C 2.222 337.026,2.014 337.430,1.759 337.532 C 1.483 337.644,1.557 337.731,1.944 337.749 C 2.397 337.769,2.593 337.498,2.593 336.852 C 2.593 336.343,2.509 335.926,2.407 335.926 C 2.306 335.926,2.222 336.245,2.222 336.636 M99.912 336.558 C 100.372 336.647,101.039 336.643,101.393 336.551 C 101.747 336.458,101.370 336.386,100.556 336.390 C 99.741 336.394,99.451 336.470,99.912 336.558 M258.490 337.285 L 257.593 338.274 258.599 337.563 C 259.153 337.172,259.612 336.727,259.618 336.574 C 259.637 336.118,259.434 336.246,258.490 337.285 M152.778 348.347 C 154.285 349.037,155.267 349.023,153.939 348.331 C 153.356 348.027,152.606 347.791,152.272 347.808 C 151.922 347.825,152.135 348.052,152.778 348.347 M243.696 353.157 C 242.981 354.019,243.491 354.182,244.257 353.336 C 244.627 352.927,244.758 352.593,244.547 352.593 C 244.337 352.593,243.954 352.847,243.696 353.157 M165.556 353.271 C 165.861 353.460,166.528 353.726,167.037 353.862 C 167.681 354.034,167.794 354.005,167.407 353.766 C 167.102 353.577,166.435 353.311,165.926 353.175 C 165.282 353.003,165.169 353.032,165.556 353.271 M174.577 357.222 C 174.882 357.528,175.343 357.778,175.600 357.778 C 175.862 357.778,175.752 357.539,175.349 357.234 C 174.405 356.520,173.867 356.512,174.577 357.222 M180.503 360.185 C 180.808 360.491,181.269 360.741,181.526 360.741 C 181.788 360.741,181.678 360.502,181.274 360.197 C 180.331 359.483,179.793 359.475,180.503 360.185 M182.222 361.058 C 182.222 361.439,183.344 361.965,183.603 361.705 C 183.693 361.615,183.420 361.355,182.995 361.128 C 182.570 360.901,182.222 360.869,182.222 361.058 M189.630 364.970 C 189.630 365.196,192.068 366.667,192.445 366.667 C 192.621 366.667,192.151 366.250,191.402 365.741 C 190.082 364.844,189.630 364.647,189.630 364.970 " stroke="none" fill="#8c8ca4" fill-rule="evenodd"></path><path id="path4" d="M268.889 101.667 C 269.580 102.380,270.229 102.963,270.330 102.963 C 270.432 102.963,269.950 102.380,269.259 101.667 C 268.568 100.954,267.920 100.370,267.818 100.370 C 267.716 100.370,268.198 100.954,268.889 101.667 M297.532 168.519 C 297.532 170.046,297.597 170.671,297.677 169.907 C 297.757 169.144,297.757 167.894,297.677 167.130 C 297.597 166.366,297.532 166.991,297.532 168.519 M262.685 172.848 C 263.042 172.941,263.625 172.941,263.981 172.848 C 264.338 172.755,264.046 172.679,263.333 172.679 C 262.620 172.679,262.329 172.755,262.685 172.848 M103.049 174.815 C 103.049 175.528,103.125 175.819,103.218 175.463 C 103.311 175.106,103.311 174.523,103.218 174.167 C 103.125 173.810,103.049 174.102,103.049 174.815 M297.138 179.630 C 297.138 180.546,297.210 180.921,297.298 180.463 C 297.387 180.005,297.387 179.255,297.298 178.796 C 297.210 178.338,297.138 178.713,297.138 179.630 M202.760 195.185 C 202.760 202.620,202.809 205.662,202.870 201.944 C 202.930 198.227,202.930 192.144,202.870 188.426 C 202.809 184.708,202.760 187.750,202.760 195.185 M110.926 207.225 C 111.791 207.526,114.074 207.605,114.074 207.333 C 114.074 207.170,113.282 207.050,112.315 207.066 C 111.347 207.082,110.722 207.154,110.926 207.225 M285.278 207.302 C 285.838 207.387,286.755 207.387,287.315 207.302 C 287.875 207.217,287.417 207.148,286.296 207.148 C 285.176 207.148,284.718 207.217,285.278 207.302 M257.123 210.741 C 257.123 211.454,257.199 211.745,257.292 211.389 C 257.386 211.032,257.386 210.449,257.292 210.093 C 257.199 209.736,257.123 210.028,257.123 210.741 M189.167 212.484 C 189.625 212.572,190.375 212.572,190.833 212.484 C 191.292 212.395,190.917 212.323,190.000 212.323 C 189.083 212.323,188.708 212.395,189.167 212.484 M180.856 217.222 C 180.858 218.444,180.927 218.900,181.009 218.234 C 181.092 217.568,181.090 216.568,181.005 216.012 C 180.921 215.455,180.853 216.000,180.856 217.222 M198.303 222.963 C 198.303 226.935,198.358 228.560,198.424 226.574 C 198.491 224.588,198.491 221.338,198.424 219.352 C 198.358 217.366,198.303 218.991,198.303 222.963 M256.760 220.926 C 256.764 221.741,256.840 222.030,256.929 221.570 C 257.017 221.109,257.014 220.442,256.921 220.088 C 256.828 219.734,256.756 220.111,256.760 220.926 M256.390 231.296 C 256.394 232.111,256.470 232.401,256.558 231.940 C 256.647 231.479,256.643 230.813,256.551 230.459 C 256.458 230.105,256.386 230.481,256.390 231.296 M270.842 235.556 C 270.842 236.472,270.914 236.847,271.002 236.389 C 271.090 235.931,271.090 235.181,271.002 234.722 C 270.914 234.264,270.842 234.639,270.842 235.556 M256.012 241.111 C 256.012 241.824,256.088 242.116,256.181 241.759 C 256.274 241.403,256.274 240.819,256.181 240.463 C 256.088 240.106,256.012 240.398,256.012 241.111 M141.204 240.626 C 141.560 240.719,142.144 240.719,142.500 240.626 C 142.856 240.533,142.565 240.456,141.852 240.456 C 141.139 240.456,140.847 240.533,141.204 240.626 M102.130 257.675 C 102.792 257.757,103.875 257.757,104.537 257.675 C 105.199 257.593,104.657 257.526,103.333 257.526 C 102.009 257.526,101.468 257.593,102.130 257.675 M298.056 257.675 C 298.718 257.757,299.801 257.757,300.463 257.675 C 301.125 257.593,300.583 257.526,299.259 257.526 C 297.935 257.526,297.394 257.593,298.056 257.675 M146.394 259.155 C 146.957 259.240,147.790 259.238,148.246 259.150 C 148.701 259.062,148.241 258.992,147.222 258.995 C 146.204 258.998,145.831 259.070,146.394 259.155 M237.284 263.951 C 237.148 264.086,237.037 264.336,237.037 264.506 C 237.037 264.676,244.579 264.775,253.796 264.726 L 270.556 264.637 253.962 264.537 C 243.135 264.472,237.447 264.309,237.595 264.070 C 237.852 263.654,237.656 263.579,237.284 263.951 M162.222 264.931 C 162.222 264.994,162.764 265.536,163.426 266.134 L 164.630 267.222 163.542 266.019 C 162.528 264.896,162.222 264.645,162.222 264.931 M124.180 282.037 C 124.183 283.056,124.255 283.428,124.340 282.865 C 124.425 282.302,124.423 281.469,124.335 281.013 C 124.247 280.558,124.177 281.019,124.180 282.037 M260.350 282.130 L 259.074 283.519 260.463 282.242 C 261.756 281.054,262.022 280.741,261.739 280.741 C 261.677 280.741,261.052 281.366,260.350 282.130 M247.407 282.778 C 248.098 283.491,248.747 284.074,248.849 284.074 C 248.951 284.074,248.469 283.491,247.778 282.778 C 247.087 282.065,246.438 281.481,246.336 281.481 C 246.234 281.481,246.716 282.065,247.407 282.778 M120.834 292.407 C 120.838 293.222,120.914 293.512,121.003 293.051 C 121.091 292.591,121.088 291.924,120.995 291.570 C 120.903 291.216,120.830 291.593,120.834 292.407 M128.704 300.370 C 129.707 301.389,130.611 302.222,130.713 302.222 C 130.815 302.222,130.077 301.389,129.074 300.370 C 128.071 299.352,127.167 298.519,127.065 298.519 C 126.963 298.519,127.701 299.352,128.704 300.370 " stroke="none" fill="#646c84" fill-rule="evenodd"></path></g></svg>