<svg version="1.1" id="Layer_1" xmlns="http://www.w3.org/2000/svg" xmlns:xlink="http://www.w3.org/1999/xlink" x="0px" y="0px"
	 width="100%" viewBox="0 0 613 557" enable-background="new 0 0 613 557" xml:space="preserve">
<path fill="#FEFFFF" opacity="1.000000" stroke="none" 
	d="
M1.000000,220.000000 
	C1.000000,146.666687 1.000000,73.833374 1.000000,1.000049 
	C205.333252,1.000033 409.666504,1.000033 613.999817,1.000016 
	C613.999878,186.666519 613.999878,372.333038 613.999939,557.999634 
	C409.666870,557.999756 205.333725,557.999756 1.000298,557.999878 
	C1.000000,445.500000 1.000000,333.000000 1.000000,220.000000 
M607.747437,290.382996 
	C607.501831,287.587097 607.256226,284.791168 607.000000,281.099701 
	C606.101501,274.914917 605.285400,268.716217 604.248718,262.554688 
	C603.976318,260.935730 603.020813,259.431732 602.284851,257.521027 
	C602.284851,257.521027 602.104126,257.202515 602.121765,256.347900 
	C598.073914,241.232285 594.618652,225.926468 589.841797,211.044876 
	C582.359314,187.734726 571.732971,165.757339 558.963257,144.859726 
	C540.716003,114.998108 517.805603,89.221939 489.985321,68.013039 
	C445.624634,34.194420 395.562134,14.264969 340.012177,9.210505 
	C277.392456,3.512770 217.892395,14.601958 162.740768,45.579258 
	C131.225159,63.280796 104.306221,86.558655 81.317711,115.275047 
	C80.203537,116.704948 78.974251,118.060539 77.995026,119.577538 
	C73.626770,126.344688 69.329964,133.157944 64.497581,140.257645 
	C64.058914,140.840454 63.620251,141.423279 62.867405,142.647919 
	C60.553612,146.279785 57.929840,149.754059 55.987404,153.574707 
	C51.227245,162.937683 46.781437,172.460449 41.589249,182.287491 
	C38.373585,190.392319 35.157925,198.497162 31.351601,207.099045 
	C26.904760,223.724258 22.457922,240.349457 17.862862,257.763062 
	C16.596622,265.883789 15.330381,274.004517 14.007243,282.931915 
	C14.062309,284.275696 14.117376,285.619446 14.018762,287.833313 
	C13.678650,297.190582 12.956245,306.554199 13.112238,315.903198 
	C13.251895,324.273102 14.359384,332.626892 15.023742,341.544525 
	C15.088894,341.909698 15.154046,342.274872 15.096107,343.551880 
	C16.443367,351.780853 17.790628,360.009796 19.265903,368.976227 
	C19.945942,371.632874 20.625980,374.289490 21.234066,377.587372 
	C21.496031,378.391632 21.757994,379.195923 21.960854,380.801819 
	C24.562878,388.769867 27.164900,396.737885 29.609262,405.173920 
	C29.640547,405.527771 29.804691,405.802124 30.113201,406.746979 
	C34.286831,418.177063 34.472340,418.318359 44.689522,417.564819 
	C45.156811,417.635345 45.624100,417.705872 46.006657,418.568085 
	C41.912495,428.172089 45.160252,436.489746 50.713894,444.479156 
	C50.713894,444.479156 50.526978,444.455353 50.696190,445.103577 
	C57.594490,454.695465 66.566795,458.172882 76.744331,454.885956 
	C77.500633,454.905853 78.256935,454.925751 79.054955,455.780640 
	C80.148872,461.856995 81.242783,467.933350 82.191292,474.697266 
	C82.228470,476.813385 82.265648,478.929474 82.024216,481.784180 
	C80.054977,487.189270 78.085732,492.594330 75.825737,498.209961 
	C75.825737,498.209961 75.845009,498.568420 75.224144,498.878204 
	C72.867775,503.256622 70.511406,507.635071 67.915932,512.626953 
	C67.683701,513.423340 67.451469,514.219727 67.053322,515.744507 
	C67.105911,516.486267 67.158501,517.228027 67.046692,518.799072 
	C67.097168,520.202820 67.147652,521.606628 67.053741,523.827515 
	C68.287292,527.346130 69.520844,530.864685 70.725426,534.225647 
	C70.725426,534.225647 70.610680,534.337585 70.731995,535.010864 
	C73.704468,537.833313 76.676933,540.655701 79.865067,543.306763 
	C79.865067,543.306763 79.613647,543.419189 80.030983,543.965881 
	C88.711800,549.012085 97.408630,549.474731 106.831482,544.014771 
	C114.171432,539.425598 119.525940,533.313782 122.642578,525.064453 
	C123.504333,522.783508 126.118340,520.023621 128.316788,519.624939 
	C132.970108,518.780884 137.912643,519.015137 142.668182,519.490723 
	C144.726807,519.696594 147.179016,521.152527 148.475449,522.806458 
	C152.129288,527.467773 155.385330,532.456116 158.600525,537.442932 
	C164.933105,547.264954 174.065048,551.048340 185.418915,550.218079 
	C196.171768,549.431702 203.329788,543.535950 207.437592,533.948181 
	C209.445862,529.260803 210.565552,524.192749 212.997467,519.108459 
	C216.495346,519.071960 219.993179,519.010376 223.491119,519.002991 
	C252.983826,518.940613 282.476562,518.888123 312.872437,518.981873 
	C315.692780,518.981873 318.513123,518.981873 321.361847,518.981873 
	C322.509216,522.046204 323.519073,524.972412 324.689697,527.832825 
	C332.782990,547.608765 354.656219,557.229919 374.288330,549.074951 
	C384.588043,544.796570 392.440765,537.613098 395.218750,525.365112 
	C395.789276,523.910400 396.359772,522.455688 397.366272,520.479980 
	C397.911407,520.082214 398.456543,519.684448 399.901764,519.557495 
	C421.601562,519.518433 443.301392,519.479309 465.677429,519.815247 
	C466.644073,521.846497 467.794189,523.812195 468.548004,525.919556 
	C474.021820,541.222351 487.863281,550.739319 504.141876,550.294312 
	C518.866211,549.891724 534.629272,537.976562 538.757324,524.025757 
	C541.905884,513.385254 540.043823,502.978546 537.259583,492.573578 
	C534.976379,484.041107 536.642212,482.418274 545.329895,481.913330 
	C567.301086,480.636261 577.353088,464.431000 571.228699,446.902191 
	C569.003845,440.534363 565.706726,434.514069 562.601807,428.488251 
	C559.292908,422.066559 561.288879,418.014404 568.369263,417.592316 
	C571.024536,417.433990 573.696594,417.364685 576.353455,417.461487 
	C585.803833,417.805847 587.363525,416.661804 590.055908,407.579010 
	C593.967834,394.381927 597.963806,381.209747 602.540039,367.585358 
	C603.004639,366.531586 603.705933,365.519257 603.898743,364.417877 
	C607.388123,344.482086 609.780640,324.446136 608.953430,304.150879 
	C608.882935,302.420319 608.300476,300.710632 607.811646,298.334167 
	C607.865417,297.891968 607.919189,297.449738 608.495178,296.633667 
	C608.210938,295.399994 607.926758,294.166351 607.326111,292.463135 
	C607.216980,292.309082 607.107849,292.155060 607.179810,291.526306 
	C607.223206,291.362579 607.266663,291.198883 607.747437,290.382996 
z"/>
<path fill="#213363" opacity="1.000000" stroke="none" 
	d="
M67.219238,515.016113 
	C67.451469,514.219727 67.683701,513.423340 68.371872,512.247986 
	C70.494652,509.551208 72.392090,507.359680 73.753738,504.874603 
	C74.800529,502.964142 75.172791,500.684113 75.845016,498.568420 
	C75.845009,498.568420 75.825737,498.209961 76.304596,498.050476 
	C81.413025,493.189941 84.790657,488.078674 82.302834,481.045593 
	C82.265648,478.929474 82.228470,476.813385 82.618210,474.237549 
	C83.109512,471.137146 83.237633,468.495850 83.211624,465.856110 
	C83.198463,464.519592 82.492630,463.072235 82.821526,461.872864 
	C83.690170,458.705139 82.708595,456.639496 79.013237,454.945648 
	C78.256935,454.925751 77.500633,454.905853 76.052864,454.616211 
	C73.395264,454.230957 71.408699,453.879303 69.467087,454.047241 
	C64.865463,454.445282 61.463001,453.442841 58.658901,449.098358 
	C57.156612,446.770752 53.313663,445.953949 50.526978,444.455353 
	C50.526978,444.455353 50.713894,444.479156 50.764481,444.045258 
	C50.349293,441.759552 50.232834,439.719360 49.354340,438.090088 
	C46.328312,432.477997 44.552803,426.884857 47.463848,420.616608 
	C47.744343,420.012604 46.583267,418.739105 46.091385,417.776367 
	C45.624100,417.705872 45.156811,417.635345 44.269398,417.155548 
	C43.397816,416.286072 42.868416,415.371399 42.506516,415.433502 
	C36.499321,416.463684 34.376938,412.775940 32.878899,407.956238 
	C32.612236,407.098297 31.060205,406.639862 30.101702,405.996979 
	C29.804691,405.802124 29.640547,405.527771 29.755257,404.470581 
	C29.638607,401.843964 29.483009,399.898438 29.088543,398.002594 
	C28.477564,395.066071 27.019272,392.130646 27.157269,389.254089 
	C27.370428,384.810822 25.621130,382.036835 22.019958,380.000183 
	C21.757994,379.195923 21.496031,378.391632 21.490601,376.971375 
	C22.706633,374.270386 23.540220,370.452179 24.645363,370.371887 
	C34.311466,369.669678 44.027218,369.673218 53.725838,369.386322 
	C58.278965,369.251678 62.844330,369.090820 67.361160,368.569519 
	C68.187668,368.474121 68.807030,366.583954 69.567291,365.651489 
	C69.612564,365.780701 69.582932,365.508484 69.979187,365.652863 
	C71.752640,365.236359 73.537804,365.045074 74.437668,364.051758 
	C78.736053,359.306946 75.774666,354.654388 73.927094,350.038391 
	C73.968521,350.041138 73.920555,350.108887 73.945190,349.726135 
	C72.316528,343.157898 70.884773,342.006683 64.719200,342.002289 
	C50.089924,341.991882 35.460430,342.033752 20.831608,341.950836 
	C18.899265,341.939880 16.970354,341.323700 15.039858,340.987793 
	C14.359384,332.626892 13.251895,324.273102 13.112238,315.903198 
	C12.956245,306.554199 13.678650,297.190582 14.328691,287.166931 
	C15.763315,285.050629 16.888010,283.600677 18.331673,282.075317 
	C19.083185,281.945221 19.515730,281.890564 20.217628,281.919556 
	C20.666945,282.057678 20.846907,282.112122 21.344402,282.429626 
	C37.033630,283.125671 52.403908,283.692993 67.778458,283.855042 
	C70.247871,283.881073 74.046150,284.746002 75.114792,280.253937 
	C80.622032,275.766541 82.188347,271.609070 80.539566,266.246185 
	C78.808990,260.617249 74.839897,257.629730 68.155540,257.467316 
	C60.535435,257.282104 52.907089,257.468323 45.283249,257.395813 
	C36.192020,257.309326 27.101765,257.119629 18.011086,256.974670 
	C22.457922,240.349457 26.904760,223.724258 32.103096,206.982178 
	C111.289177,206.888199 189.723770,206.914200 268.158356,206.910141 
	C269.635498,206.910065 271.162323,206.731476 272.581573,206.334534 
	C280.698364,204.064423 284.339081,195.288956 280.152954,188.073120 
	C277.227814,183.030914 272.594421,181.692413 267.013245,181.698044 
	C193.240601,181.772568 119.467819,181.746567 45.695076,181.754211 
	C44.533096,181.754333 43.371128,181.861649 42.209152,181.918930 
	C46.781437,172.460449 51.227245,162.937683 55.987404,153.574707 
	C57.929840,149.754059 60.553612,146.279785 63.393433,142.325531 
	C64.968910,141.582428 66.018364,141.161697 67.409988,140.616455 
	C69.170280,140.566269 70.588425,140.640579 72.186905,141.035202 
	C75.304276,141.571045 78.241219,141.973434 81.178337,141.974808 
	C155.604828,142.009399 230.031357,142.014832 304.457764,141.926956 
	C306.305786,141.924774 308.152527,140.808334 310.299133,140.022308 
	C314.933044,137.904266 318.172852,134.973083 319.068024,130.102402 
	C320.626190,121.624336 314.543243,115.162956 304.874329,115.157272 
	C243.889374,115.121422 182.904388,115.134583 121.919418,115.117447 
	C108.592148,115.113701 95.264885,115.052734 81.937622,115.018112 
	C104.306221,86.558655 131.225159,63.280796 162.740768,45.579258 
	C217.892395,14.601958 277.392456,3.512770 340.012177,9.210505 
	C395.562134,14.264969 445.624634,34.194420 489.985321,68.013039 
	C517.805603,89.221939 540.716003,114.998108 558.963257,144.859726 
	C571.732971,165.757339 582.359314,187.734726 589.841797,211.044876 
	C594.618652,225.926468 598.073914,241.232285 601.639404,256.829071 
	C580.899109,257.318298 560.641052,257.305145 540.383301,257.365967 
	C538.261230,257.372345 536.140503,257.815918 533.654846,258.047394 
	C525.193359,260.981781 523.427979,264.596497 524.763245,275.181641 
	C525.180359,276.113159 525.843811,276.857330 526.364136,277.788879 
	C526.221069,277.976227 526.472717,277.577484 526.333008,277.964539 
	C526.495117,279.221191 526.621399,280.716248 527.127380,280.858276 
	C530.280334,281.743164 533.513000,282.885040 536.729004,282.915771 
	C556.116638,283.101044 575.507996,282.905487 594.895447,283.099823 
	C598.606628,283.136993 602.305969,284.344086 606.149658,285.296997 
	C606.235962,286.177460 606.183472,286.772430 606.101318,287.787659 
	C606.380615,289.472290 606.689697,290.736664 606.998779,292.001068 
	C607.107849,292.155060 607.216980,292.309082 607.322388,292.956604 
	C607.226746,293.631683 607.134949,293.813263 606.737305,294.277313 
	C606.600830,299.035278 606.770142,303.510773 607.016357,308.319702 
	C607.035278,309.102295 606.977295,309.551453 606.532104,310.057861 
	C605.431519,311.760071 604.083862,313.415710 604.111206,315.048340 
	C604.253601,323.560577 604.745728,332.066956 605.087952,340.953552 
	C603.098755,341.907928 601.144897,342.954315 599.175598,342.984253 
	C586.033997,343.184082 572.888733,343.128662 559.745361,343.240082 
	C554.839844,343.281647 550.574341,344.626617 548.185425,349.511932 
	C543.667175,358.751587 549.456909,367.537079 560.515564,367.738831 
	C574.315552,367.990570 588.120972,367.944489 601.923950,368.026947 
	C597.963806,381.209747 593.967834,394.381927 590.055908,407.579010 
	C587.363525,416.661804 585.803833,417.805847 576.353455,417.461487 
	C573.696594,417.364685 571.024536,417.433990 568.369263,417.592316 
	C561.288879,418.014404 559.292908,422.066559 562.601807,428.488251 
	C565.706726,434.514069 569.003845,440.534363 571.228699,446.902191 
	C577.353088,464.431000 567.301086,480.636261 545.329895,481.913330 
	C536.642212,482.418274 534.976379,484.041107 537.259583,492.573578 
	C540.043823,502.978546 541.905884,513.385254 538.757324,524.025757 
	C534.629272,537.976562 518.866211,549.891724 504.141876,550.294312 
	C487.863281,550.739319 474.021820,541.222351 468.548004,525.919556 
	C467.794189,523.812195 466.644073,521.846497 465.180786,519.286255 
	C463.929565,518.505310 463.175385,518.034607 462.420319,518.033081 
	C442.262238,517.992798 422.104004,517.982727 401.946075,518.055176 
	C400.963135,518.058716 399.983093,518.857971 399.001678,519.286682 
	C398.456543,519.684448 397.911407,520.082214 396.820740,520.710205 
	C391.486267,521.464844 394.474030,524.068787 394.923920,525.994019 
	C392.440765,537.613098 384.588043,544.796570 374.288330,549.074951 
	C354.656219,557.229919 332.782990,547.608765 324.689697,527.832825 
	C323.519073,524.972412 322.509216,522.046204 321.361847,518.981873 
	C318.513123,518.981873 315.692780,518.981873 312.102356,518.646240 
	C311.013184,518.221985 310.694153,518.055847 310.374969,518.055542 
	C278.765656,518.029358 247.156296,518.002014 215.547119,518.056091 
	C214.393188,518.058044 213.240631,518.865173 212.087433,519.296997 
	C210.565552,524.192749 209.445862,529.260803 207.437592,533.948181 
	C203.329788,543.535950 196.171768,549.431702 185.418915,550.218079 
	C174.065048,551.048340 164.933105,547.264954 158.600525,537.442932 
	C155.385330,532.456116 152.129288,527.467773 148.475449,522.806458 
	C147.179016,521.152527 144.726807,519.696594 142.668182,519.490723 
	C137.912643,519.015137 132.970108,518.780884 128.316788,519.624939 
	C126.118340,520.023621 123.504333,522.783508 122.642578,525.064453 
	C119.525940,533.313782 114.171432,539.425598 106.151436,543.900024 
	C100.131714,544.190979 94.793640,544.870239 89.451782,544.901428 
	C86.175400,544.920593 82.893227,543.946960 79.613647,543.419189 
	C79.613647,543.419189 79.865067,543.306763 79.766846,543.021118 
	C76.984550,539.574646 76.049500,534.527222 70.610680,534.337585 
	C70.610680,534.337585 70.725426,534.225647 70.697586,533.888184 
	C69.512535,530.037292 68.355331,526.523804 67.198135,523.010376 
	C67.147652,521.606628 67.097168,520.202820 67.339813,518.189209 
	C67.495049,516.724976 67.357147,515.870544 67.219238,515.016113 
M376.317963,534.774658 
	C379.452942,534.005676 381.177643,532.156921 380.944031,528.369751 
	C380.944031,528.369751 381.150635,528.012634 381.863068,527.993835 
	C383.428284,526.235596 385.886719,524.703247 386.398712,522.678589 
	C388.267212,515.289368 389.260712,507.682281 391.024780,500.262115 
	C392.322021,494.805725 394.681061,489.596222 395.899567,484.127991 
	C397.788971,475.649048 399.466858,467.086426 400.504639,458.471375 
	C400.949615,454.777496 403.283142,450.637085 399.835114,446.318390 
	C399.935242,445.876190 400.035370,445.433960 400.441711,444.827698 
	C400.500793,444.729126 400.633728,444.589447 400.605804,444.539276 
	C400.500336,444.349792 400.342621,444.189453 400.077606,443.191040 
	C400.156158,441.798401 400.234711,440.405731 401.031250,438.781891 
	C401.354553,437.901093 401.916473,437.032867 401.963654,436.137512 
	C402.361237,428.590942 402.769836,421.042267 402.974152,413.488770 
	C403.380920,398.451416 403.903961,383.410828 403.920471,368.371063 
	C403.935913,354.276825 403.313690,340.182617 403.106781,326.086395 
	C403.083649,324.509521 403.938751,322.919739 404.386597,321.335968 
	C404.803680,321.374756 405.220795,321.413544 405.637909,321.452362 
	C406.539062,329.632233 412.709167,336.428009 411.298126,345.258667 
	C411.136841,346.268036 411.979706,347.442627 412.373260,348.534760 
	C413.250702,350.969574 413.987244,353.471832 415.084198,355.804138 
	C415.655396,357.018585 416.869537,357.930634 418.064484,359.733063 
	C420.503906,374.845093 422.851013,389.972870 425.419922,405.062866 
	C426.799042,413.163879 432.280029,417.614532 439.485809,416.969910 
	C448.391846,416.173187 453.472778,411.052429 452.966064,402.251404 
	C452.364166,391.796906 451.559113,381.299255 449.900299,370.971558 
	C446.071869,347.135895 441.963196,323.274200 430.815918,301.465088 
	C422.337769,284.877899 410.579132,271.522278 392.716705,264.336945 
	C381.074310,259.653656 368.981781,259.757324 356.818146,259.823303 
	C326.060211,259.990173 302.918304,272.973602 289.080475,300.827240 
	C274.092590,330.995789 269.095276,363.752960 265.433289,396.750366 
	C264.724945,403.132629 269.458344,408.212799 275.850952,409.401001 
	C285.371216,411.170563 291.931641,406.197968 293.962433,396.186157 
	C297.630188,378.104309 301.542267,360.071991 306.058319,341.870605 
	C307.318634,337.394012 308.578949,332.917389 309.775116,327.931702 
	C309.914642,327.623291 310.054169,327.314880 310.857971,326.870239 
	C313.113220,324.928619 313.013062,320.268738 317.779327,321.768860 
	C317.721619,322.527161 317.663879,323.285461 317.373016,324.226715 
	C317.223236,324.532074 317.301361,324.775513 317.783020,325.750885 
	C317.725342,326.828186 317.667664,327.905518 316.887207,329.254547 
	C316.593018,330.320740 316.044312,331.386383 316.042053,332.453186 
	C315.993347,355.407471 315.981049,378.362030 316.074463,401.316071 
	C316.079498,402.551727 317.071686,403.783417 317.773560,405.799713 
	C317.717224,406.860992 317.660889,407.922302 316.886353,409.251434 
	C316.593170,410.317139 315.994080,411.400482 316.054443,412.445770 
	C316.616791,422.179749 317.130219,431.921387 317.982086,441.632416 
	C318.792938,450.875854 319.799408,460.113953 321.167847,469.287567 
	C321.473053,471.333435 323.649658,473.100128 325.304657,475.603638 
	C325.490692,476.739014 325.676727,477.874390 325.562805,479.218018 
	C325.704437,479.479218 325.846069,479.740387 326.254456,480.421051 
	C326.418365,480.753082 326.392883,481.069885 326.081055,482.241943 
	C326.286102,486.359558 325.440979,490.748993 329.513885,494.476196 
	C329.617737,495.323151 329.721558,496.170105 329.258118,497.360535 
	C328.949860,498.075531 328.263977,498.869080 328.393768,499.492920 
	C329.330109,503.992493 330.224976,508.521576 331.579712,512.903198 
	C332.143097,514.725281 330.717590,518.151978 334.994263,518.634705 
	C335.028687,519.088257 335.063141,519.541809 334.722839,520.224243 
	C334.951813,520.478638 335.180786,520.732971 335.444519,521.160522 
	C335.444519,521.160522 335.319855,521.285522 335.135468,522.080994 
	C335.084229,523.680298 334.403870,525.644470 335.085052,526.818970 
	C339.149200,533.826172 344.404053,539.659546 352.968597,540.846375 
	C354.877563,541.110840 356.994232,539.876587 359.666656,539.157471 
	C360.106354,539.229004 360.546051,539.300537 361.183167,540.034790 
	C365.474701,539.449768 369.800385,539.025269 374.025085,538.126160 
	C374.753052,537.971252 375.051819,535.799622 375.860626,534.981934 
	C375.764923,534.835449 375.669250,534.688965 376.317963,534.774658 
M171.262177,367.174286 
	C170.717712,364.959839 170.173248,362.745392 169.628769,360.530914 
	C172.163025,361.790741 173.762024,363.596954 175.350281,365.412598 
	C186.049438,377.643433 195.722931,390.861481 211.750061,397.227875 
	C220.844620,400.840546 229.309555,406.009186 238.209793,410.151001 
	C243.480606,412.603851 250.730240,411.087219 253.980667,407.481720 
	C257.069153,404.055878 258.283081,396.998383 255.440567,392.946747 
	C253.353500,389.971954 250.118317,387.477875 246.885040,385.692993 
	C237.266602,380.383453 227.342300,375.630798 217.659348,370.433533 
	C214.930756,368.968994 212.288498,367.035522 210.176941,364.782562 
	C200.840424,354.820831 192.070435,344.306549 182.437943,334.647949 
	C157.613495,309.756134 121.130539,314.706116 104.122963,345.380096 
	C94.037010,363.570618 84.812996,382.241028 75.300812,400.746735 
	C71.649818,407.849640 68.004944,414.978699 64.859795,422.311340 
	C62.340591,428.184570 64.004120,434.591461 68.081100,437.887634 
	C72.133980,441.164246 78.573128,441.903870 83.028946,438.530457 
	C85.928513,436.335297 88.277100,432.977631 89.950035,429.673676 
	C96.527306,416.684052 102.709587,403.494812 109.123550,390.421448 
	C109.921204,388.795654 111.227722,387.419525 112.298439,385.927734 
	C111.993744,393.396393 111.017838,400.456238 109.307182,407.333282 
	C105.852921,421.219910 102.080315,435.029419 98.284920,448.828369 
	C95.308578,459.649536 95.937225,460.807953 107.156143,462.530334 
	C106.103104,464.879913 105.173225,467.164001 104.077538,469.365509 
	C96.959084,483.668335 89.816345,497.959045 82.657372,512.241638 
	C78.502251,520.531311 80.577225,528.650940 87.865990,532.436340 
	C95.428185,536.363647 103.173927,533.724182 107.475388,525.443176 
	C111.771423,517.172607 115.799850,508.762482 119.907387,500.394775 
	C125.557266,488.885010 131.355469,477.442291 136.709442,465.795837 
	C138.836243,461.169403 142.687195,461.599487 146.355042,461.304962 
	C150.089462,461.005096 150.189224,464.338196 150.984360,466.756256 
	C152.336060,470.866699 153.589493,475.010254 154.838287,479.153717 
	C159.544052,494.767365 164.169891,510.405609 168.988419,525.984253 
	C169.754913,528.462341 170.985535,530.996216 172.646484,532.958435 
	C176.603058,537.632751 182.882034,538.749207 188.045502,536.175781 
	C194.433685,532.992004 197.769775,527.551575 196.170639,521.243713 
	C193.637894,511.253052 190.492371,501.418091 187.627579,491.511078 
	C184.772003,481.635864 181.942825,471.752991 178.898163,461.164398 
	C181.848572,461.164398 184.125946,461.166260 186.403320,461.164093 
	C197.740463,461.153320 198.266602,460.519073 195.086136,449.458069 
	C187.269516,422.273438 179.381668,395.109253 171.262177,367.174286 
M466.095673,401.606964 
	C464.675964,403.859589 463.296448,406.138763 461.829590,408.360229 
	C455.227386,418.358948 448.447052,428.244232 442.041565,438.367004 
	C438.378357,444.156128 439.963440,451.024353 445.110901,454.242737 
	C450.616150,457.684937 456.535828,456.329803 460.655975,450.508606 
	C467.194092,441.271057 473.625519,431.958038 480.128571,422.695557 
	C481.108002,421.300598 482.231049,420.006531 483.287659,418.665771 
	C484.290741,419.831085 484.313446,420.559937 484.287415,421.287018 
	C483.107941,454.219910 481.875916,487.151123 480.837891,520.088440 
	C480.759491,522.575806 481.532379,525.419678 482.808167,527.562927 
	C488.256989,536.716370 499.608093,540.624878 510.272064,537.389221 
	C520.431824,534.306580 526.467590,525.938477 525.841492,514.659485 
	C524.245422,485.907379 522.357910,457.171539 520.596191,428.428589 
	C520.451843,426.073120 520.377625,423.713318 520.270752,421.355530 
	C520.672791,421.269379 521.074890,421.183197 521.476929,421.097015 
	C522.331909,422.982391 523.201660,424.861206 524.039307,426.754242 
	C529.087158,438.162048 534.019409,449.622650 539.217712,460.961395 
	C541.683044,466.338867 545.866821,468.639435 550.689209,467.986420 
	C555.353943,467.354797 560.087646,462.955261 560.369507,457.913544 
	C560.536682,454.924194 559.647644,451.629517 558.397827,448.847565 
	C550.829041,432.000397 543.195007,415.177704 535.247620,398.506622 
	C524.334473,375.614410 495.441284,370.252960 477.010223,387.760468 
	C472.963745,391.604218 469.974152,396.560608 466.095673,401.606964 
M469.635956,138.951569 
	C469.413269,136.892334 469.641357,134.645950 468.879272,132.810699 
	C466.968536,128.209030 464.231903,123.926620 462.582886,119.249496 
	C461.702545,116.752556 461.637909,113.432755 462.527252,110.959763 
	C464.319641,105.975441 467.115479,101.361229 469.310608,96.509811 
	C471.392303,91.909065 469.957642,89.577568 464.915619,89.135574 
	C459.610138,88.670494 454.235229,88.662888 449.009979,87.762718 
	C446.535248,87.336403 443.738892,85.797119 442.141022,83.883148 
	C438.851074,79.942307 436.339844,75.360855 433.376617,71.135284 
	C430.005951,66.328651 427.561432,66.325478 424.270081,71.022789 
	C421.212921,75.385895 418.474518,80.003868 415.092224,84.093124 
	C413.600067,85.897163 410.980072,87.388550 408.666656,87.767349 
	C403.432159,88.624443 398.068665,88.685249 392.760101,89.101219 
	C387.375824,89.523140 385.983063,91.803436 388.228943,96.632484 
	C390.474060,101.459831 393.153961,106.119118 394.967133,111.098297 
	C395.828674,113.464317 395.827087,116.658821 394.971283,119.028259 
	C393.228210,123.854286 390.583984,128.349045 388.415436,133.028671 
	C385.863525,138.535461 387.122101,140.546448 393.323914,141.007935 
	C398.471710,141.391006 403.666901,141.432617 408.753510,142.203522 
	C410.921661,142.532104 413.449615,143.866348 414.799835,145.554733 
	C418.325165,149.963028 421.242615,154.852768 424.494354,159.486053 
	C427.191956,163.329788 430.053589,163.437973 432.808380,159.664948 
	C435.751831,155.633545 438.650360,151.539276 441.175934,147.241776 
	C443.464050,143.348343 446.506439,142.009583 450.969635,141.827469 
	C457.026367,141.580368 463.044006,140.376633 469.635956,138.951569 
M356.137024,177.489731 
	C354.666809,177.773651 353.180359,177.992020 351.728882,178.351532 
	C335.141418,182.459991 324.159882,196.579636 324.205750,213.707596 
	C324.251190,230.657455 334.726837,244.092361 351.181702,248.303925 
	C367.102753,252.378860 384.206604,245.067612 391.899963,230.390991 
	C398.287598,218.205322 397.591370,205.827118 390.438049,194.233505 
	C382.860168,181.951797 371.248474,176.798904 356.137024,177.489731 
M303.900848,452.544556 
	C303.906677,438.020172 303.294220,436.936920 293.382385,433.940338 
	C290.900055,420.556244 288.008148,416.992157 279.732422,417.117310 
	C269.287201,417.275330 266.105377,420.754883 263.951691,434.501068 
	C263.361298,434.611267 262.728699,434.800812 262.087219,434.838379 
	C253.519180,435.339783 251.022491,437.974396 251.017044,446.580841 
	C251.009033,459.222900 250.963577,471.865143 251.024048,484.506897 
	C251.055511,491.085907 253.536575,493.617310 260.069611,493.660339 
	C271.382355,493.734833 282.696777,493.736450 294.009033,493.623047 
	C301.140961,493.551544 303.858765,490.669830 303.884338,483.479218 
	C303.919861,473.496948 303.898041,463.514435 303.900848,452.544556 
M168.203094,295.647186 
	C169.057358,294.420563 170.002106,293.246643 170.751892,291.959167 
	C178.352753,278.907501 175.898270,262.878967 164.794373,252.841690 
	C153.790085,242.894409 136.692551,241.851273 124.614120,250.390213 
	C112.849442,258.707336 108.138840,275.387970 113.805199,288.665619 
	C122.918968,310.021423 151.363586,313.992950 168.203094,295.647186 
M475.552429,332.459167 
	C475.297974,334.932526 474.795380,337.409515 474.831329,339.878662 
	C475.001312,351.546417 479.964813,360.336456 490.805847,365.277557 
	C501.643463,370.217224 513.538696,368.084930 522.498230,359.338348 
	C530.879517,351.156250 532.228821,340.960358 528.889221,330.304718 
	C525.448486,319.326324 514.967346,312.285339 503.407990,312.139893 
	C490.228149,311.973999 480.746460,318.687958 475.552429,332.459167 
M347.678040,84.023308 
	C349.551453,83.741249 351.424866,83.459190 354.551300,82.988487 
	C349.368134,76.062439 348.517792,69.613075 353.105103,63.048576 
	C353.235413,62.862141 351.362793,60.486118 350.563812,60.564018 
	C343.616150,61.241402 339.371185,57.822647 336.447662,52.001495 
	C336.191498,51.491447 335.436279,51.232040 334.025787,50.219284 
	C330.908783,58.605751 324.159943,61.366142 315.306854,61.420391 
	C321.541565,68.852135 320.160706,75.765060 315.112396,82.995811 
	C317.717346,83.461189 319.143402,84.006058 320.525360,83.910789 
	C325.532562,83.565628 328.907928,85.467964 331.503418,89.918045 
	C334.228882,94.590996 335.275665,94.456978 338.272797,89.639503 
	C340.326447,86.338531 342.474731,83.641663 347.678040,84.023308 
M507.841248,196.568527 
	C500.544769,195.349792 493.522095,193.674942 490.015533,186.024841 
	C489.946930,185.875183 489.406067,185.942001 488.221252,185.815613 
	C485.446930,193.400101 479.269928,196.526917 468.997375,195.185379 
	C475.328613,203.469803 475.430847,210.548477 468.874725,218.887619 
	C479.246124,217.586517 485.564484,220.810303 489.523376,229.339554 
	C493.149323,220.417999 499.721191,217.696808 508.464600,218.715164 
	C507.773621,216.452591 507.694183,215.210648 507.081451,214.347137 
	C503.419006,209.185669 503.823608,204.204971 507.400208,199.221741 
	C507.767029,198.710617 507.828156,197.980072 507.841248,196.568527 
z"/>
<path fill="#E3E4E7" opacity="1.000000" stroke="none" 
	d="
M72.006561,140.714890 
	C70.588425,140.640579 69.170280,140.566269 67.152290,140.496490 
	C66.037407,140.318878 65.522369,140.136719 65.007339,139.954544 
	C69.329964,133.157944 73.626770,126.344688 77.995026,119.577538 
	C78.974251,118.060539 80.203537,116.704948 81.627670,115.146576 
	C95.264885,115.052734 108.592148,115.113701 121.919418,115.117447 
	C182.904388,115.134583 243.889374,115.121422 304.874329,115.157272 
	C314.543243,115.162956 320.626190,121.624336 319.068024,130.102402 
	C318.172852,134.973083 314.933044,137.904266 309.831055,139.992737 
	C307.068726,140.207611 305.073822,140.310623 303.078918,140.310989 
	C228.200974,140.324860 153.323013,140.326157 78.445076,140.350906 
	C76.298859,140.351624 74.152733,140.588257 72.006561,140.714890 
z"/>
<path fill="#E4E6E7" opacity="1.000000" stroke="none" 
	d="
M41.899200,182.103210 
	C43.371128,181.861649 44.533096,181.754333 45.695076,181.754211 
	C119.467819,181.746567 193.240601,181.772568 267.013245,181.698044 
	C272.594421,181.692413 277.227814,183.030914 280.152954,188.073120 
	C284.339081,195.288956 280.698364,204.064423 272.581573,206.334534 
	C271.162323,206.731476 269.635498,206.910065 268.158356,206.910141 
	C189.723770,206.914200 111.289177,206.888199 32.398426,206.733658 
	C35.157925,198.497162 38.373585,190.392319 41.899200,182.103210 
z"/>
<path fill="#E6E6E7" opacity="1.000000" stroke="none" 
	d="
M525.009583,274.994324 
	C523.427979,264.596497 525.193359,260.981781 533.946533,258.320435 
	C538.189819,259.051147 541.781311,259.912964 545.363647,259.876373 
	C560.745483,259.719147 576.124329,259.286438 591.505005,258.987305 
	C593.317261,258.952087 595.692810,258.419373 596.838257,259.332672 
	C599.750122,261.654236 600.872314,259.564209 602.379028,257.874939 
	C603.020813,259.431732 603.976318,260.935730 604.248718,262.554688 
	C605.285400,268.716217 606.101501,274.914917 606.731812,281.562805 
	C606.281555,282.039978 606.099548,282.054077 605.942627,282.047424 
	C605.967651,282.026703 605.978638,282.090759 605.705383,281.771667 
	C604.797363,281.303986 604.164062,281.031982 603.527710,281.024689 
	C582.709656,280.785431 561.891418,280.564117 541.072632,280.416077 
	C540.716064,280.413544 540.352844,281.341400 539.661926,281.911987 
	C538.884155,281.936981 538.437256,281.885193 537.897827,281.689941 
	C537.540771,281.637512 537.276123,281.728546 536.621704,281.889648 
	C532.978882,280.498993 529.725769,279.038239 526.472717,277.577484 
	C526.472717,277.577484 526.221069,277.976227 526.284180,277.495392 
	C525.901367,276.341156 525.455444,275.667725 525.009583,274.994324 
z"/>
<path fill="#E2E3E6" opacity="1.000000" stroke="none" 
	d="
M17.936974,257.368866 
	C27.101765,257.119629 36.192020,257.309326 45.283249,257.395813 
	C52.907089,257.468323 60.535435,257.282104 68.155540,257.467316 
	C74.839897,257.629730 78.808990,260.617249 80.539566,266.246185 
	C82.188347,271.609070 80.622032,275.766541 74.712234,280.374298 
	C70.043808,281.091797 66.009544,281.465485 61.658108,281.575165 
	C49.641956,281.205841 37.943062,281.070679 26.243864,281.034363 
	C24.838909,281.029999 23.432291,281.561554 21.778139,281.930115 
	C21.362181,282.065887 21.194525,282.116241 21.026871,282.166595 
	C20.846907,282.112122 20.666945,282.057678 20.000853,281.687012 
	C18.351719,281.529053 17.188713,281.687286 15.703192,281.920837 
	C14.941831,282.039185 14.502985,282.082214 14.064140,282.125244 
	C15.330381,274.004517 16.596622,265.883789 17.936974,257.368866 
z"/>
<path fill="#E1E3E7" opacity="1.000000" stroke="none" 
	d="
M602.232056,367.806152 
	C588.120972,367.944489 574.315552,367.990570 560.515564,367.738831 
	C549.456909,367.537079 543.667175,358.751587 548.185425,349.511932 
	C550.574341,344.626617 554.839844,343.281647 559.745361,343.240082 
	C572.888733,343.128662 586.033997,343.184082 599.175598,342.984253 
	C601.144897,342.954315 603.098755,341.907928 605.399719,340.607574 
	C606.132874,329.922485 606.526123,319.961548 606.919373,310.000610 
	C606.977295,309.551453 607.035278,309.102295 607.120789,307.897156 
	C607.417542,304.424561 607.686646,301.707886 607.955811,298.991241 
	C608.300476,300.710632 608.882935,302.420319 608.953430,304.150879 
	C609.780640,324.446136 607.388123,344.482086 603.898743,364.417877 
	C603.705933,365.519257 603.004639,366.531586 602.232056,367.806152 
z"/>
<path fill="#E3E5E7" opacity="1.000000" stroke="none" 
	d="
M19.137890,368.238770 
	C17.790628,360.009796 16.443367,351.780853 15.600170,343.209229 
	C30.656961,342.941895 45.210411,343.130737 59.762074,343.038239 
	C65.823608,342.999725 70.844299,344.454468 73.920555,350.108887 
	C73.920555,350.108887 73.968521,350.041138 73.950165,350.491333 
	C75.668213,356.748383 73.614212,361.423584 69.582932,365.508484 
	C69.582932,365.508484 69.612564,365.780701 69.204163,365.737335 
	C65.778503,366.397644 62.775242,367.633698 59.741592,367.713409 
	C46.211765,368.069000 32.673260,368.094208 19.137890,368.238770 
z"/>
<path fill="#C8CCDD" opacity="1.000000" stroke="none" 
	d="
M602.331909,257.697998 
	C600.872314,259.564209 599.750122,261.654236 596.838257,259.332672 
	C595.692810,258.419373 593.317261,258.952087 591.505005,258.987305 
	C576.124329,259.286438 560.745483,259.719147 545.363647,259.876373 
	C541.781311,259.912964 538.189819,259.051147 534.310852,258.329651 
	C536.140503,257.815918 538.261230,257.372345 540.383301,257.365967 
	C560.641052,257.305145 580.899109,257.318298 601.630615,257.256378 
	C602.104126,257.202515 602.284851,257.521027 602.331909,257.697998 
z"/>
<path fill="#283154" opacity="1.000000" stroke="none" 
	d="
M399.451721,519.422119 
	C399.983093,518.857971 400.963135,518.058716 401.946075,518.055176 
	C422.104004,517.982727 442.262238,517.992798 462.420319,518.033081 
	C463.175385,518.034607 463.929565,518.505310 464.842651,519.098755 
	C443.301392,519.479309 421.601562,519.518433 399.451721,519.422119 
z"/>
<path fill="#293154" opacity="1.000000" stroke="none" 
	d="
M212.542450,519.202759 
	C213.240631,518.865173 214.393188,518.058044 215.547119,518.056091 
	C247.156296,518.002014 278.765656,518.029358 310.374969,518.055542 
	C310.694153,518.055847 311.013184,518.221985 311.650787,518.571655 
	C282.476562,518.888123 252.983826,518.940613 223.491119,519.002991 
	C219.993179,519.010376 216.495346,519.071960 212.542450,519.202759 
z"/>
<path fill="#2F385A" opacity="1.000000" stroke="none" 
	d="
M19.201897,368.607483 
	C32.673260,368.094208 46.211765,368.069000 59.741592,367.713409 
	C62.775242,367.633698 65.778503,366.397644 69.158890,365.608124 
	C68.807030,366.583954 68.187668,368.474121 67.361160,368.569519 
	C62.844330,369.090820 58.278965,369.251678 53.725838,369.386322 
	C44.027218,369.673218 34.311466,369.669678 24.645363,370.371887 
	C23.540220,370.452179 22.706633,374.270386 21.526577,376.650757 
	C20.625980,374.289490 19.945942,371.632874 19.201897,368.607483 
z"/>
<path fill="#2F385A" opacity="1.000000" stroke="none" 
	d="
M73.945190,349.726135 
	C70.844299,344.454468 65.823608,342.999725 59.762074,343.038239 
	C45.210411,343.130737 30.656961,342.941895 15.661716,342.753296 
	C15.154046,342.274872 15.088894,341.909698 15.031798,341.266174 
	C16.970354,341.323700 18.899265,341.939880 20.831608,341.950836 
	C35.460430,342.033752 50.089924,341.991882 64.719200,342.002289 
	C70.884773,342.006683 72.316528,343.157898 73.945190,349.726135 
z"/>
<path fill="#2F385A" opacity="1.000000" stroke="none" 
	d="
M50.611584,444.779480 
	C53.313663,445.953949 57.156612,446.770752 58.658901,449.098358 
	C61.463001,453.442841 64.865463,454.445282 69.467087,454.047241 
	C71.408699,453.879303 73.395264,454.230957 75.665985,454.622833 
	C66.566795,458.172882 57.594490,454.695465 50.611584,444.779480 
z"/>
<path fill="#2F385A" opacity="1.000000" stroke="none" 
	d="
M46.049019,418.172241 
	C46.583267,418.739105 47.744343,420.012604 47.463848,420.616608 
	C44.552803,426.884857 46.328312,432.477997 49.354340,438.090088 
	C50.232834,439.719360 50.349293,441.759552 50.676765,444.022766 
	C45.160252,436.489746 41.912495,428.172089 46.049019,418.172241 
z"/>
<path fill="#2F385A" opacity="1.000000" stroke="none" 
	d="
M21.990406,380.401001 
	C25.621130,382.036835 27.370428,384.810822 27.157269,389.254089 
	C27.019272,392.130646 28.477564,395.066071 29.088543,398.002594 
	C29.483009,399.898438 29.638607,401.843964 29.834087,404.236572 
	C27.164900,396.737885 24.562878,388.769867 21.990406,380.401001 
z"/>
<path fill="#2F385A" opacity="1.000000" stroke="none" 
	d="
M79.822311,543.692505 
	C82.893227,543.946960 86.175400,544.920593 89.451782,544.901428 
	C94.793640,544.870239 100.131714,544.190979 105.798706,543.921143 
	C97.408630,549.474731 88.711800,549.012085 79.822311,543.692505 
z"/>
<path fill="#2F385A" opacity="1.000000" stroke="none" 
	d="
M79.034096,455.363159 
	C82.708595,456.639496 83.690170,458.705139 82.821526,461.872864 
	C82.492630,463.072235 83.198463,464.519592 83.211624,465.856110 
	C83.237633,468.495850 83.109512,471.137146 82.690918,473.893738 
	C81.242783,467.933350 80.148872,461.856995 79.034096,455.363159 
z"/>
<path fill="#2F385A" opacity="1.000000" stroke="none" 
	d="
M30.107452,406.371979 
	C31.060205,406.639862 32.612236,407.098297 32.878899,407.956238 
	C34.376938,412.775940 36.499321,416.463684 42.506516,415.433502 
	C42.868416,415.371399 43.397816,416.286072 43.933468,417.042023 
	C34.472340,418.318359 34.286831,418.177063 30.107452,406.371979 
z"/>
<path fill="#2F385A" opacity="1.000000" stroke="none" 
	d="
M82.163528,481.414886 
	C84.790657,488.078674 81.413025,493.189941 76.449966,497.945190 
	C78.085732,492.594330 80.054977,487.189270 82.163528,481.414886 
z"/>
<path fill="#2F385A" opacity="1.000000" stroke="none" 
	d="
M75.534576,498.723328 
	C75.172791,500.684113 74.800529,502.964142 73.753738,504.874603 
	C72.392090,507.359680 70.494652,509.551208 68.491425,511.941284 
	C70.511406,507.635071 72.867775,503.256622 75.534576,498.723328 
z"/>
<path fill="#2F385A" opacity="1.000000" stroke="none" 
	d="
M70.671341,534.674194 
	C76.049500,534.527222 76.984550,539.574646 79.659012,543.106812 
	C76.676933,540.655701 73.704468,537.833313 70.671341,534.674194 
z"/>
<path fill="#2F385A" opacity="1.000000" stroke="none" 
	d="
M67.125931,523.418945 
	C68.355331,526.523804 69.512535,530.037292 70.712067,533.967041 
	C69.520844,530.864685 68.287292,527.346130 67.125931,523.418945 
z"/>
<path fill="#283050" opacity="1.000000" stroke="none" 
	d="
M607.883667,298.662720 
	C607.686646,301.707886 607.417542,304.424561 607.043945,307.563721 
	C606.770142,303.510773 606.600830,299.035278 606.846558,294.580963 
	C607.498779,295.403900 607.735901,296.205719 607.973022,297.007538 
	C607.919189,297.449738 607.865417,297.891968 607.883667,298.662720 
z"/>
<path fill="#E1E3E7" opacity="1.000000" stroke="none" 
	d="
M605.917480,282.068176 
	C606.099548,282.054077 606.281555,282.039978 606.737061,282.010559 
	C607.256226,284.791168 607.501831,287.587097 607.400391,290.332642 
	C606.745911,289.310669 606.438477,288.339020 606.130981,287.367371 
	C606.183472,286.772430 606.235962,286.177460 606.206665,284.930756 
	C606.055786,283.542053 605.986633,282.805115 605.917480,282.068176 
z"/>
<path fill="#252E50" opacity="1.000000" stroke="none" 
	d="
M14.035691,282.528564 
	C14.502985,282.082214 14.941831,282.039185 16.032339,281.987854 
	C17.126905,282.036591 17.569807,282.093658 18.012707,282.150726 
	C16.888010,283.600677 15.763315,285.050629 14.405533,286.731903 
	C14.117376,285.619446 14.062309,284.275696 14.035691,282.528564 
z"/>
<path fill="#283154" opacity="1.000000" stroke="none" 
	d="
M395.071350,525.679565 
	C394.474030,524.068787 391.486267,521.464844 396.602753,520.970703 
	C396.359772,522.455688 395.789276,523.910400 395.071350,525.679565 
z"/>
<path fill="#E1E3E7" opacity="1.000000" stroke="none" 
	d="
M608.234131,296.820618 
	C607.735901,296.205719 607.498779,295.403900 607.152344,294.298462 
	C607.134949,293.813263 607.226746,293.631683 607.480591,293.191406 
	C607.926758,294.166351 608.210938,295.399994 608.234131,296.820618 
z"/>
<path fill="#273454" opacity="1.000000" stroke="none" 
	d="
M64.752457,140.106094 
	C65.522369,140.136719 66.037407,140.318878 66.810135,140.621002 
	C66.018364,141.161697 64.968910,141.582428 63.550522,142.004623 
	C63.620251,141.423279 64.058914,140.840454 64.752457,140.106094 
z"/>
<path fill="#283050" opacity="1.000000" stroke="none" 
	d="
M606.101257,287.787659 
	C606.438477,288.339020 606.745911,289.310669 607.181763,290.658752 
	C607.266663,291.198883 607.223206,291.362579 607.089294,291.763672 
	C606.689697,290.736664 606.380615,289.472290 606.101257,287.787659 
z"/>
<path fill="#2F385A" opacity="1.000000" stroke="none" 
	d="
M67.136284,515.380310 
	C67.357147,515.870544 67.495049,516.724976 67.422012,517.774597 
	C67.158501,517.228027 67.105911,516.486267 67.136284,515.380310 
z"/>
<path fill="#E5E6E7" opacity="1.000000" stroke="none" 
	d="
M325.862793,479.009766 
	C325.676727,477.874390 325.490692,476.739014 325.170166,474.885071 
	C323.048981,462.390289 320.614075,450.667053 319.214081,438.821503 
	C318.047394,428.950012 318.094849,418.935028 317.604553,408.983582 
	C317.660889,407.922302 317.717224,406.860992 317.788452,404.948029 
	C317.738922,379.058502 317.674469,354.020660 317.609985,328.982819 
	C317.667664,327.905518 317.725342,326.828186 317.772034,325.125519 
	C317.761017,324.500153 317.606171,324.043762 317.606171,324.043762 
	C317.663879,323.285461 317.721619,322.527161 317.784668,321.015808 
	C317.470276,318.320465 317.150574,316.378174 316.830872,314.435883 
	C316.289764,314.349487 315.748688,314.263123 315.207581,314.176727 
	C313.536285,318.453308 311.864990,322.729889 310.193695,327.006470 
	C310.054169,327.314880 309.914642,327.623291 309.537567,328.468079 
	C307.984131,333.342621 306.668243,337.680817 305.352325,342.019012 
	C301.542267,360.071991 297.630188,378.104309 293.962433,396.186157 
	C291.931641,406.197968 285.371216,411.170563 275.850952,409.401001 
	C269.458344,408.212799 264.724945,403.132629 265.433289,396.750366 
	C269.095276,363.752960 274.092590,330.995789 289.080475,300.827240 
	C302.918304,272.973602 326.060211,259.990173 356.818146,259.823303 
	C368.981781,259.757324 381.074310,259.653656 392.716705,264.336945 
	C410.579132,271.522278 422.337769,284.877899 430.815918,301.465088 
	C441.963196,323.274200 446.071869,347.135895 449.900299,370.971558 
	C451.559113,381.299255 452.364166,391.796906 452.966064,402.251404 
	C453.472778,411.052429 448.391846,416.173187 439.485809,416.969910 
	C432.280029,417.614532 426.799042,413.163879 425.419922,405.062866 
	C422.851013,389.972870 420.503906,374.845093 417.956543,358.963989 
	C414.137787,343.461823 410.818756,328.592438 403.105743,315.103577 
	C402.131561,318.475983 401.866791,321.703949 401.862427,324.932251 
	C401.828003,350.363220 402.005341,375.795776 401.774567,401.224731 
	C401.660248,413.824219 400.823273,426.417175 400.313293,439.013092 
	C400.234711,440.405731 400.156158,441.798401 400.032288,443.841553 
	C400.036469,444.658630 400.085968,444.825195 400.135498,444.991760 
	C400.035370,445.433960 399.935242,445.876190 399.733093,447.008606 
	C396.658875,463.359497 394.072662,479.106750 390.585358,494.651825 
	C388.059479,505.910950 384.338593,516.902039 381.150635,528.012634 
	C381.150635,528.012634 380.944031,528.369751 380.616150,528.718750 
	C378.716705,530.892639 377.145172,532.717590 375.573608,534.542542 
	C375.669250,534.688965 375.764923,534.835449 375.365967,534.862671 
	C370.242767,536.286316 365.614258,537.829163 360.985748,539.372070 
	C360.546051,539.300537 360.106354,539.229004 358.948547,539.127747 
	C346.559601,538.348999 339.655945,531.468506 335.319855,521.285522 
	C335.319855,521.285522 335.444519,521.160522 335.424194,520.802246 
	C335.301758,520.294495 335.199646,520.144958 335.097565,519.995361 
	C335.063141,519.541809 335.028687,519.088257 334.884644,517.935181 
	C333.125183,510.496094 331.475281,503.756561 329.825409,497.017059 
	C329.721558,496.170105 329.617737,495.323151 329.359619,493.809326 
	C328.196228,489.218811 327.187103,485.295166 326.177979,481.371490 
	C326.392883,481.069885 326.418365,480.753082 326.159119,479.954620 
	C325.996796,479.328735 325.929810,479.169250 325.862793,479.009766 
z"/>
<path fill="#E4E5E7" opacity="1.000000" stroke="none" 
	d="
M171.392334,367.555573 
	C179.381668,395.109253 187.269516,422.273438 195.086136,449.458069 
	C198.266602,460.519073 197.740463,461.153320 186.403320,461.164093 
	C184.125946,461.166260 181.848572,461.164398 178.898163,461.164398 
	C181.942825,471.752991 184.772003,481.635864 187.627579,491.511078 
	C190.492371,501.418091 193.637894,511.253052 196.170639,521.243713 
	C197.769775,527.551575 194.433685,532.992004 188.045502,536.175781 
	C182.882034,538.749207 176.603058,537.632751 172.646484,532.958435 
	C170.985535,530.996216 169.754913,528.462341 168.988419,525.984253 
	C164.169891,510.405609 159.544052,494.767365 154.838287,479.153717 
	C153.589493,475.010254 152.336060,470.866699 150.984360,466.756256 
	C150.189224,464.338196 150.089462,461.005096 146.355042,461.304962 
	C142.687195,461.599487 138.836243,461.169403 136.709442,465.795837 
	C131.355469,477.442291 125.557266,488.885010 119.907387,500.394775 
	C115.799850,508.762482 111.771423,517.172607 107.475388,525.443176 
	C103.173927,533.724182 95.428185,536.363647 87.865990,532.436340 
	C80.577225,528.650940 78.502251,520.531311 82.657372,512.241638 
	C89.816345,497.959045 96.959084,483.668335 104.077538,469.365509 
	C105.173225,467.164001 106.103104,464.879913 107.156143,462.530334 
	C95.937225,460.807953 95.308578,459.649536 98.284920,448.828369 
	C102.080315,435.029419 105.852921,421.219910 109.307182,407.333282 
	C111.017838,400.456238 111.993744,393.396393 112.298439,385.927734 
	C111.227722,387.419525 109.921204,388.795654 109.123550,390.421448 
	C102.709587,403.494812 96.527306,416.684052 89.950035,429.673676 
	C88.277100,432.977631 85.928513,436.335297 83.028946,438.530457 
	C78.573128,441.903870 72.133980,441.164246 68.081100,437.887634 
	C64.004120,434.591461 62.340591,428.184570 64.859795,422.311340 
	C68.004944,414.978699 71.649818,407.849640 75.300812,400.746735 
	C84.812996,382.241028 94.037010,363.570618 104.122963,345.380096 
	C121.130539,314.706116 157.613495,309.756134 182.437943,334.647949 
	C192.070435,344.306549 200.840424,354.820831 210.176941,364.782562 
	C212.288498,367.035522 214.930756,368.968994 217.659348,370.433533 
	C227.342300,375.630798 237.266602,380.383453 246.885040,385.692993 
	C250.118317,387.477875 253.353500,389.971954 255.440567,392.946747 
	C258.283081,396.998383 257.069153,404.055878 253.980667,407.481720 
	C250.730240,411.087219 243.480606,412.603851 238.209793,410.151001 
	C229.309555,406.009186 220.844620,400.840546 211.750061,397.227875 
	C195.722931,390.861481 186.049438,377.643433 175.350281,365.412598 
	C173.762024,363.596954 172.163025,361.790741 169.628769,360.530914 
	C170.173248,362.745392 170.717712,364.959839 171.392334,367.555573 
z"/>
<path fill="#E4E5E7" opacity="1.000000" stroke="none" 
	d="
M466.296753,401.305786 
	C469.974152,396.560608 472.963745,391.604218 477.010223,387.760468 
	C495.441284,370.252960 524.334473,375.614410 535.247620,398.506622 
	C543.195007,415.177704 550.829041,432.000397 558.397827,448.847565 
	C559.647644,451.629517 560.536682,454.924194 560.369507,457.913544 
	C560.087646,462.955261 555.353943,467.354797 550.689209,467.986420 
	C545.866821,468.639435 541.683044,466.338867 539.217712,460.961395 
	C534.019409,449.622650 529.087158,438.162048 524.039307,426.754242 
	C523.201660,424.861206 522.331909,422.982391 521.476929,421.097015 
	C521.074890,421.183197 520.672791,421.269379 520.270752,421.355530 
	C520.377625,423.713318 520.451843,426.073120 520.596191,428.428589 
	C522.357910,457.171539 524.245422,485.907379 525.841492,514.659485 
	C526.467590,525.938477 520.431824,534.306580 510.272064,537.389221 
	C499.608093,540.624878 488.256989,536.716370 482.808167,527.562927 
	C481.532379,525.419678 480.759491,522.575806 480.837891,520.088440 
	C481.875916,487.151123 483.107941,454.219910 484.287415,421.287018 
	C484.313446,420.559937 484.290741,419.831085 483.287659,418.665771 
	C482.231049,420.006531 481.108002,421.300598 480.128571,422.695557 
	C473.625519,431.958038 467.194092,441.271057 460.655975,450.508606 
	C456.535828,456.329803 450.616150,457.684937 445.110901,454.242737 
	C439.963440,451.024353 438.378357,444.156128 442.041565,438.367004 
	C448.447052,428.244232 455.227386,418.358948 461.829590,408.360229 
	C463.296448,406.138763 464.675964,403.859589 466.296753,401.305786 
z"/>
<path fill="#E4E5E7" opacity="1.000000" stroke="none" 
	d="
M469.357178,139.267395 
	C463.044006,140.376633 457.026367,141.580368 450.969635,141.827469 
	C446.506439,142.009583 443.464050,143.348343 441.175934,147.241776 
	C438.650360,151.539276 435.751831,155.633545 432.808380,159.664948 
	C430.053589,163.437973 427.191956,163.329788 424.494354,159.486053 
	C421.242615,154.852768 418.325165,149.963028 414.799835,145.554733 
	C413.449615,143.866348 410.921661,142.532104 408.753510,142.203522 
	C403.666901,141.432617 398.471710,141.391006 393.323914,141.007935 
	C387.122101,140.546448 385.863525,138.535461 388.415436,133.028671 
	C390.583984,128.349045 393.228210,123.854286 394.971283,119.028259 
	C395.827087,116.658821 395.828674,113.464317 394.967133,111.098297 
	C393.153961,106.119118 390.474060,101.459831 388.228943,96.632484 
	C385.983063,91.803436 387.375824,89.523140 392.760101,89.101219 
	C398.068665,88.685249 403.432159,88.624443 408.666656,87.767349 
	C410.980072,87.388550 413.600067,85.897163 415.092224,84.093124 
	C418.474518,80.003868 421.212921,75.385895 424.270081,71.022789 
	C427.561432,66.325478 430.005951,66.328651 433.376617,71.135284 
	C436.339844,75.360855 438.851074,79.942307 442.141022,83.883148 
	C443.738892,85.797119 446.535248,87.336403 449.009979,87.762718 
	C454.235229,88.662888 459.610138,88.670494 464.915619,89.135574 
	C469.957642,89.577568 471.392303,91.909065 469.310608,96.509811 
	C467.115479,101.361229 464.319641,105.975441 462.527252,110.959763 
	C461.637909,113.432755 461.702545,116.752556 462.582886,119.249496 
	C464.231903,123.926620 466.968536,128.209030 468.879272,132.810699 
	C469.641357,134.645950 469.413269,136.892334 469.357178,139.267395 
z"/>
<path fill="#E4E5E7" opacity="1.000000" stroke="none" 
	d="
M356.559265,177.402374 
	C371.248474,176.798904 382.860168,181.951797 390.438049,194.233505 
	C397.591370,205.827118 398.287598,218.205322 391.899963,230.390991 
	C384.206604,245.067612 367.102753,252.378860 351.181702,248.303925 
	C334.726837,244.092361 324.251190,230.657455 324.205750,213.707596 
	C324.159882,196.579636 335.141418,182.459991 351.728882,178.351532 
	C353.180359,177.992020 354.666809,177.773651 356.559265,177.402374 
z"/>
<path fill="#E3E4E6" opacity="1.000000" stroke="none" 
	d="
M303.900818,453.038300 
	C303.898041,463.514435 303.919861,473.496948 303.884338,483.479218 
	C303.858765,490.669830 301.140961,493.551544 294.009033,493.623047 
	C282.696777,493.736450 271.382355,493.734833 260.069611,493.660339 
	C253.536575,493.617310 251.055511,491.085907 251.024048,484.506897 
	C250.963577,471.865143 251.009033,459.222900 251.017044,446.580841 
	C251.022491,437.974396 253.519180,435.339783 262.087219,434.838379 
	C262.728699,434.800812 263.361298,434.611267 263.951691,434.501068 
	C266.105377,420.754883 269.287201,417.275330 279.732422,417.117310 
	C288.008148,416.992157 290.900055,420.556244 293.382385,433.940338 
	C303.294220,436.936920 303.906677,438.020172 303.900818,453.038300 
M275.483582,426.933014 
	C274.835388,428.780365 274.187164,430.627747 273.410706,432.840607 
	C277.403931,432.840607 280.403931,432.840607 283.387268,432.840607 
	C283.550049,426.423187 282.327942,425.405365 275.483582,426.933014 
z"/>
<path fill="#E4E5E7" opacity="1.000000" stroke="none" 
	d="
M167.970352,295.921509 
	C151.363586,313.992950 122.918968,310.021423 113.805199,288.665619 
	C108.138840,275.387970 112.849442,258.707336 124.614120,250.390213 
	C136.692551,241.851273 153.790085,242.894409 164.794373,252.841690 
	C175.898270,262.878967 178.352753,278.907501 170.751892,291.959167 
	C170.002106,293.246643 169.057358,294.420563 167.970352,295.921509 
z"/>
<path fill="#E4E5E7" opacity="1.000000" stroke="none" 
	d="
M475.687836,332.065857 
	C480.746460,318.687958 490.228149,311.973999 503.407990,312.139893 
	C514.967346,312.285339 525.448486,319.326324 528.889221,330.304718 
	C532.228821,340.960358 530.879517,351.156250 522.498230,359.338348 
	C513.538696,368.084930 501.643463,370.217224 490.805847,365.277557 
	C479.964813,360.336456 475.001312,351.546417 474.831329,339.878662 
	C474.795380,337.409515 475.297974,334.932526 475.687836,332.065857 
z"/>
<path fill="#E1E2E6" opacity="1.000000" stroke="none" 
	d="
M347.249481,84.047165 
	C342.474731,83.641663 340.326447,86.338531 338.272797,89.639503 
	C335.275665,94.456978 334.228882,94.590996 331.503418,89.918045 
	C328.907928,85.467964 325.532562,83.565628 320.525360,83.910789 
	C319.143402,84.006058 317.717346,83.461189 315.112396,82.995811 
	C320.160706,75.765060 321.541565,68.852135 315.306854,61.420391 
	C324.159943,61.366142 330.908783,58.605751 334.025787,50.219284 
	C335.436279,51.232040 336.191498,51.491447 336.447662,52.001495 
	C339.371185,57.822647 343.616150,61.241402 350.563812,60.564018 
	C351.362793,60.486118 353.235413,62.862141 353.105103,63.048576 
	C348.517792,69.613075 349.368134,76.062439 354.551300,82.988487 
	C351.424866,83.459190 349.551453,83.741249 347.249481,84.047165 
z"/>
<path fill="#E0E2E6" opacity="1.000000" stroke="none" 
	d="
M507.936188,196.959930 
	C507.828156,197.980072 507.767029,198.710617 507.400208,199.221741 
	C503.823608,204.204971 503.419006,209.185669 507.081451,214.347137 
	C507.694183,215.210648 507.773621,216.452591 508.464600,218.715164 
	C499.721191,217.696808 493.149323,220.417999 489.523376,229.339554 
	C485.564484,220.810303 479.246124,217.586517 468.874725,218.887619 
	C475.430847,210.548477 475.328613,203.469803 468.997375,195.185379 
	C479.269928,196.526917 485.446930,193.400101 488.221252,185.815613 
	C489.406067,185.942001 489.946930,185.875183 490.015533,186.024841 
	C493.522095,193.674942 500.544769,195.349792 507.936188,196.959930 
z"/>
<path fill="#273454" opacity="1.000000" stroke="none" 
	d="
M72.186905,141.035202 
	C74.152733,140.588257 76.298859,140.351624 78.445076,140.350906 
	C153.323013,140.326157 228.200974,140.324860 303.078918,140.310989 
	C305.073822,140.310623 307.068726,140.207611 309.531738,140.182037 
	C308.152527,140.808334 306.305786,141.924774 304.457764,141.926956 
	C230.031357,142.014832 155.604828,142.009399 81.178337,141.974808 
	C78.241219,141.973434 75.304276,141.571045 72.186905,141.035202 
z"/>
<path fill="#303C5F" opacity="1.000000" stroke="none" 
	d="
M400.672241,438.897491 
	C400.823273,426.417175 401.660248,413.824219 401.774567,401.224731 
	C402.005341,375.795776 401.828003,350.363220 401.862427,324.932251 
	C401.866791,321.703949 402.131561,318.475983 403.105743,315.103577 
	C410.818756,328.592438 414.137787,343.461823 417.820953,358.587097 
	C416.869537,357.930634 415.655396,357.018585 415.084198,355.804138 
	C413.987244,353.471832 413.250702,350.969574 412.373260,348.534760 
	C411.979706,347.442627 411.136841,346.268036 411.298126,345.258667 
	C412.709167,336.428009 406.539062,329.632233 405.637909,321.452362 
	C405.220795,321.413544 404.803680,321.374756 404.386597,321.335968 
	C403.938751,322.919739 403.083649,324.509521 403.106781,326.086395 
	C403.313690,340.182617 403.935913,354.276825 403.920471,368.371063 
	C403.903961,383.410828 403.380920,398.451416 402.974152,413.488770 
	C402.769836,421.042267 402.361237,428.590942 401.963654,436.137512 
	C401.916473,437.032867 401.354553,437.901093 400.672241,438.897491 
z"/>
<path fill="#303C5F" opacity="1.000000" stroke="none" 
	d="
M381.506836,528.003235 
	C384.338593,516.902039 388.059479,505.910950 390.585358,494.651825 
	C394.072662,479.106750 396.658875,463.359497 399.802429,447.344421 
	C403.283142,450.637085 400.949615,454.777496 400.504639,458.471375 
	C399.466858,467.086426 397.788971,475.649048 395.899567,484.127991 
	C394.681061,489.596222 392.322021,494.805725 391.024780,500.262115 
	C389.260712,507.682281 388.267212,515.289368 386.398712,522.678589 
	C385.886719,524.703247 383.428284,526.235596 381.506836,528.003235 
z"/>
<path fill="#303C5F" opacity="1.000000" stroke="none" 
	d="
M317.248596,329.118683 
	C317.674469,354.020660 317.738922,379.058502 317.703857,404.556641 
	C317.071686,403.783417 316.079498,402.551727 316.074463,401.316071 
	C315.981049,378.362030 315.993347,355.407471 316.042053,332.453186 
	C316.044312,331.386383 316.593018,330.320740 317.248596,329.118683 
z"/>
<path fill="#303C5F" opacity="1.000000" stroke="none" 
	d="
M317.245453,409.117493 
	C318.094849,418.935028 318.047394,428.950012 319.214081,438.821503 
	C320.614075,450.667053 323.048981,462.390289 325.000183,474.580933 
	C323.649658,473.100128 321.473053,471.333435 321.167847,469.287567 
	C319.799408,460.113953 318.792938,450.875854 317.982086,441.632416 
	C317.130219,431.921387 316.616791,422.179749 316.054443,412.445770 
	C315.994080,411.400482 316.593170,410.317139 317.245453,409.117493 
z"/>
<path fill="#283050" opacity="1.000000" stroke="none" 
	d="
M605.942566,282.047424 
	C605.986633,282.805115 606.055786,283.542053 606.067871,284.645203 
	C602.305969,284.344086 598.606628,283.136993 594.895447,283.099823 
	C575.507996,282.905487 556.116638,283.101044 536.729004,282.915771 
	C533.513000,282.885040 530.280334,281.743164 527.127380,280.858276 
	C526.621399,280.716248 526.495117,279.221191 526.333008,277.964539 
	C529.725769,279.038239 532.978882,280.498993 536.865601,281.956573 
	C537.662964,281.913361 537.826660,281.873383 537.990356,281.833374 
	C538.437256,281.885193 538.884155,281.936981 540.126953,281.983765 
	C562.608154,282.016083 584.293396,282.053436 605.978638,282.090759 
	C605.978638,282.090759 605.967651,282.026703 605.942566,282.047424 
z"/>
<path fill="#303C5F" opacity="1.000000" stroke="none" 
	d="
M335.227661,521.683228 
	C339.655945,531.468506 346.559601,538.348999 358.622833,539.215210 
	C356.994232,539.876587 354.877563,541.110840 352.968597,540.846375 
	C344.404053,539.659546 339.149200,533.826172 335.085052,526.818970 
	C334.403870,525.644470 335.084229,523.680298 335.227661,521.683228 
z"/>
<path fill="#283050" opacity="1.000000" stroke="none" 
	d="
M606.532104,310.057861 
	C606.526123,319.961548 606.132874,329.922485 605.427917,340.229401 
	C604.745728,332.066956 604.253601,323.560577 604.111206,315.048340 
	C604.083862,313.415710 605.431519,311.760071 606.532104,310.057861 
z"/>
<path fill="#252E50" opacity="1.000000" stroke="none" 
	d="
M21.344402,282.429626 
	C21.194525,282.116241 21.362181,282.065887 22.241306,281.995911 
	C35.960278,281.930603 48.967773,281.884918 61.975273,281.839203 
	C66.009544,281.465485 70.043808,281.091797 74.480637,280.597717 
	C74.046150,284.746002 70.247871,283.881073 67.778458,283.855042 
	C52.403908,283.692993 37.033630,283.125671 21.344402,282.429626 
z"/>
<path fill="#303C5F" opacity="1.000000" stroke="none" 
	d="
M329.541748,497.188782 
	C331.475281,503.756561 333.125183,510.496094 334.730560,517.627441 
	C330.717590,518.151978 332.143097,514.725281 331.579712,512.903198 
	C330.224976,508.521576 329.330109,503.992493 328.393768,499.492920 
	C328.263977,498.869080 328.949860,498.075531 329.541748,497.188782 
z"/>
<path fill="#2F385A" opacity="1.000000" stroke="none" 
	d="
M69.979187,365.652863 
	C73.614212,361.423584 75.668213,356.748383 73.908737,350.488586 
	C75.774666,354.654388 78.736053,359.306946 74.437668,364.051758 
	C73.537804,365.045074 71.752640,365.236359 69.979187,365.652863 
z"/>
<path fill="#303C5F" opacity="1.000000" stroke="none" 
	d="
M310.525818,326.938354 
	C311.864990,322.729889 313.536285,318.453308 315.207581,314.176727 
	C315.748688,314.263123 316.289764,314.349487 316.830872,314.435883 
	C317.150574,316.378174 317.470276,318.320465 317.697510,320.643311 
	C313.013062,320.268738 313.113220,324.928619 310.525818,326.938354 
z"/>
<path fill="#303C5F" opacity="1.000000" stroke="none" 
	d="
M361.084473,539.703430 
	C365.614258,537.829163 370.242767,536.286316 375.210083,534.651489 
	C375.051819,535.799622 374.753052,537.971252 374.025085,538.126160 
	C369.800385,539.025269 365.474701,539.449768 361.084473,539.703430 
z"/>
<path fill="#303C5F" opacity="1.000000" stroke="none" 
	d="
M305.705322,341.944824 
	C306.668243,337.680817 307.984131,333.342621 309.569641,328.722595 
	C308.578949,332.917389 307.318634,337.394012 305.705322,341.944824 
z"/>
<path fill="#303C5F" opacity="1.000000" stroke="none" 
	d="
M326.129517,481.806702 
	C327.187103,485.295166 328.196228,489.218811 329.160767,493.555481 
	C325.440979,490.748993 326.286102,486.359558 326.129517,481.806702 
z"/>
<path fill="#303C5F" opacity="1.000000" stroke="none" 
	d="
M375.945801,534.658569 
	C377.145172,532.717590 378.716705,530.892639 380.597900,528.924194 
	C381.177643,532.156921 379.452942,534.005676 375.945801,534.658569 
z"/>
<path fill="#283050" opacity="1.000000" stroke="none" 
	d="
M524.763245,275.181641 
	C525.455444,275.667725 525.901367,276.341156 526.427246,277.308044 
	C525.843811,276.857330 525.180359,276.113159 524.763245,275.181641 
z"/>
<path fill="#E3E9FC" opacity="1.000000" stroke="none" 
	d="
M18.331676,282.075317 
	C17.569807,282.093658 17.126905,282.036591 16.354855,281.912506 
	C17.188713,281.687286 18.351719,281.529053 19.731499,281.603394 
	C19.515730,281.890564 19.083185,281.945221 18.331676,282.075317 
z"/>
<path fill="#303C5F" opacity="1.000000" stroke="none" 
	d="
M334.910217,520.109802 
	C335.199646,520.144958 335.301758,520.294495 335.406799,520.715698 
	C335.180786,520.732971 334.951813,520.478638 334.910217,520.109802 
z"/>
<path fill="#303C5F" opacity="1.000000" stroke="none" 
	d="
M325.712799,479.113892 
	C325.929810,479.169250 325.996796,479.328735 326.025757,479.744873 
	C325.846069,479.740387 325.704437,479.479218 325.712799,479.113892 
z"/>
<path fill="#303C5F" opacity="1.000000" stroke="none" 
	d="
M400.288605,444.909729 
	C400.085968,444.825195 400.036469,444.658630 400.095703,444.255127 
	C400.342621,444.189453 400.500336,444.349792 400.605804,444.539276 
	C400.633728,444.589447 400.500793,444.729126 400.288605,444.909729 
z"/>
<path fill="#303C5F" opacity="1.000000" stroke="none" 
	d="
M317.489594,324.135254 
	C317.606171,324.043762 317.761017,324.500153 317.684204,324.728577 
	C317.301361,324.775513 317.223236,324.532074 317.489594,324.135254 
z"/>
<path fill="#E3E9FC" opacity="1.000000" stroke="none" 
	d="
M605.705383,281.771667 
	C584.293396,282.053436 562.608154,282.016083 540.457886,281.906952 
	C540.352844,281.341400 540.716064,280.413544 541.072632,280.416077 
	C561.891418,280.564117 582.709656,280.785431 603.527710,281.024689 
	C604.164062,281.031982 604.797363,281.303986 605.705383,281.771667 
z"/>
<path fill="#E3E9FC" opacity="1.000000" stroke="none" 
	d="
M537.897827,281.689941 
	C537.826660,281.873383 537.662964,281.913361 537.255432,281.886475 
	C537.276123,281.728546 537.540771,281.637512 537.897827,281.689941 
z"/>
<path fill="#E3E9FC" opacity="1.000000" stroke="none" 
	d="
M61.658108,281.575165 
	C48.967773,281.884918 35.960278,281.930603 22.489613,281.910522 
	C23.432291,281.561554 24.838909,281.029999 26.243864,281.034363 
	C37.943062,281.070679 49.641956,281.205841 61.658108,281.575165 
z"/>
<path fill="#343F65" opacity="1.000000" stroke="none" 
	d="
M275.812195,426.675018 
	C282.327942,425.405365 283.550049,426.423187 283.387268,432.840607 
	C280.403931,432.840607 277.403931,432.840607 273.410706,432.840607 
	C274.187164,430.627747 274.835388,428.780365 275.812195,426.675018 
z"/>
</svg>