<?xml version="1.0" encoding="UTF-8"?>
<svg id="Capa_1" data-name="Capa 1" xmlns="http://www.w3.org/2000/svg" viewBox="0 0 658.84 733.76">
  <defs>
    <style>
      .cls-1 {
        fill: #fff;
      }

      .cls-2 {
        fill: #e53859;
      }

      .cls-3 {
        fill: #2b3561;
      }
    </style>
  </defs>
  <path class="cls-1" d="m658.73,628.75c1.24-17.96-7.9-38.25-29.66-50.13,4.24-.45,8.27-2.66,10.95-6.42l12.73-17.76c2.39-3.37,3.35-7.63,2.63-11.7-.72-4.07-3.09-7.74-6.46-10.05-10.69-7.37-28.83-15.25-47.8-15.35-38.1-1.84-59.57,17.15-65.5,38.12-.86-.19-.93-15.09-18.94-24.9,67.74-54.69,111.07-138.39,111.07-232.23C627.75,133.57,494.19,0,329.42,0S31.09,133.57,31.09,298.33c0,72.43,25.82,138.83,68.75,190.5.1,2,.33,4.05.71,6.14,1.39,29.74,37.23,31.97,37.81,32.46-4.64,3.15-8.96,6.73-12.88,10.71,0,0-3.58-4.06-5.63-5.46-10.69-7.37-28.83-15.25-47.8-15.35-43.29-2.1-65.11,22.7-67.07,46.74-1.15,14.65,4.89,29.23,16.56,40,2.62,2.41,5.48,4.6,8.57,6.56-1.85.41-3.65,1.17-5.29,2.3l-17.97,12.23c-3.41,2.3-5.8,5.94-6.56,9.98-.76,4.05.15,8.31,2.51,11.72,3.84,5.52,8.52,10.56,13.96,15.03,2.15,1.75,4.37,3.31,6.63,4.71-5.24,1.02-9.6,4.86-11.15,10.12l-11.31,38.33c-1.29,4.38-.44,9.12,2.29,12.78,2.74,3.66,7.04,5.82,11.61,5.82h3.74l-.03.06h39.99c2.68-.02,9.45.01,11.52,0h34.34c2.41.07,9.75.04,11.52,0h125.86c2.19.01,8.19.01,10.13,0h146.4c2.33-.04,8.63.04,10.69,0h127.86c1.94-.02,7.46.01,9.32,0h95.52l-.04-.06h2.26c4.57,0,8.87-2.16,11.61-5.81,2.74-3.66,3.59-8.4,2.3-12.78l-11.02-37.43c-1.14-5.07-4.94-9.12-9.85-10.65,1.61-1.16,3.17-2.4,4.66-3.73,10.23-9.16,16.32-21.45,17.14-34.51Z"/>
  <g>
    <g>
      <path class="cls-3" d="m34.6,710.7h-9.44l-2.83,9.53h-7.52l11.31-38.33h7.52v.1l11.26,38.23h-7.47l-2.83-9.53Zm-2.11-7.14l-2.59-8.91-2.63,8.91h5.22Z"/>
      <path class="cls-3" d="m64.17,720.72c-2.3,0-8.05-.38-12.41-3.93-1.34-1.1-2.54-2.4-3.5-3.83l5.85-3.98c.62.91,1.29,1.68,2.11,2.3,3.21,2.64,8.43,2.35,8.48,2.35h.24c3.98,0,6.18-2.06,6.32-4.12.14-2.25-2.2-4.84-7.81-5.61-4.12-.43-7.62-1.87-10.06-4.12-2.49-2.3-3.79-5.32-3.55-8.38.43-5.27,5.37-10.44,15.52-9.92,4.6,0,9.39,2.01,12.12,3.98l-4.12,5.75c-1.77-1.29-5.22-2.68-8.1-2.68h-.14c-5.22-.24-8.1,1.53-8.24,3.45-.19,2.68,3.64,4.5,7.33,4.94h.1c10.16,1.29,14.37,7.52,13.99,13.08-.34,5.32-5.03,10.68-13.27,10.73h-.86Z"/>
      <path class="cls-3" d="m90.28,720.09h-7.19v-38.19h7.19v38.19Z"/>
      <path class="cls-3" d="m110.02,720.72c-2.3,0-8.05-.38-12.41-3.93-1.34-1.1-2.54-2.4-3.5-3.83l5.85-3.98c.62.91,1.29,1.68,2.11,2.3,3.21,2.64,8.43,2.35,8.48,2.35h.24c3.98,0,6.18-2.06,6.32-4.12.14-2.25-2.2-4.84-7.81-5.61-4.12-.43-7.62-1.87-10.06-4.12-2.49-2.3-3.79-5.32-3.55-8.38.43-5.27,5.37-10.44,15.52-9.92,4.6,0,9.39,2.01,12.12,3.98l-4.12,5.75c-1.77-1.29-5.22-2.68-8.1-2.68h-.14c-5.22-.24-8.1,1.53-8.24,3.45-.19,2.68,3.64,4.5,7.33,4.94h.1c10.16,1.29,14.37,7.52,13.99,13.08-.34,5.32-5.03,10.68-13.27,10.73h-.86Z"/>
      <path class="cls-3" d="m156.31,689.05h-10.83v31.19h-7.14v-31.19h-10.83v-7.14h28.8v7.14Z"/>
      <path class="cls-3" d="m169.73,689v8.43h8.96v7.14h-8.96v8.53h15.04v7.14h-22.23v-38.38h22.23v7.14h-15.04Z"/>
      <path class="cls-3" d="m221.43,681.91v38.33h-8.96l-13.8-24v24h-7.19v-38.33h7.86l14.9,25.87v-25.87h7.19Z"/>
      <path class="cls-3" d="m260.68,714.92c-3.55,3.55-8.48,5.75-13.89,5.75-10.83,0-19.6-8.77-19.6-19.6s8.77-19.6,19.6-19.6c5.41,0,10.35,2.2,13.89,5.75l-5.41,5.37c-2.01-2.35-4.98-3.79-8.48-3.79-6.76,0-11.55,5.51-11.55,12.27s4.79,12.27,11.55,12.27c3.5,0,6.47-1.44,8.48-3.79l5.41,5.37Z"/>
      <path class="cls-3" d="m274.58,720.09h-7.19v-38.19h7.19v38.19Z"/>
      <path class="cls-3" d="m299.64,710.7h-9.44l-2.83,9.53h-7.52l11.31-38.33h7.52v.1l11.26,38.23h-7.47l-2.83-9.53Zm-2.11-7.14l-2.59-8.91-2.63,8.91h5.22Z"/>
      <path class="cls-3" d="m362.94,720.24h-7.14v-21.27l-4.89,11.64h-7.86l-4.84-11.55v21.18h-7.19v-38.33h7.91l8.05,19.31,8.1-19.31h7.86v38.33Z"/>
      <path class="cls-3" d="m378.27,720.09h-7.19v-38.19h7.19v38.19Z"/>
      <path class="cls-3" d="m423.22,701.12c0,10.83-8.77,19.6-19.6,19.6s-19.6-8.77-19.6-19.6,8.77-19.6,19.6-19.6c4.36,0,8.38,1.44,11.64,3.83l-5.37,5.37c-1.72-1.2-3.88-1.87-6.28-1.87-6.76,0-11.55,5.51-11.55,12.27s4.79,12.27,11.55,12.27c5.37,0,9.49-3.45,10.97-8.19h-9.49v-7.33h17.87c.14,1.05.24,2.16.24,3.26Z"/>
      <path class="cls-3" d="m454.56,707.97l4.36,12.27h-7.52l-3.45-9.68c-.77.1-1.58.14-2.44.14h-9.34v9.53h-7.19v-38.33h16.53c9.77,0,13.42,6.42,13.42,14.37,0,4.79-1.2,9.06-4.36,11.69Zm-9.06-4.46c2.44,0,4.07-.48,4.89-1.53.86-1.05,1.34-3.07,1.34-5.7,0-2.49-.48-4.5-1.39-5.65-.33-.38-1.29-1.58-4.84-1.58h-9.34v14.47h9.34Z"/>
      <path class="cls-3" d="m482.55,710.7h-9.44l-2.83,9.53h-7.52l11.31-38.33h7.52v.1l11.26,38.23h-7.47l-2.83-9.53Zm-2.11-7.14l-2.59-8.91-2.63,8.91h5.22Z"/>
      <path class="cls-3" d="m520.21,689.05h-10.83v31.19h-7.14v-31.19h-10.83v-7.14h28.8v7.14Z"/>
      <path class="cls-3" d="m561.08,701.02c0,10.83-8.77,19.6-19.6,19.6s-19.6-8.77-19.6-19.6,8.77-19.6,19.6-19.6,19.6,8.77,19.6,19.6Zm-31.14,0c0,6.76,4.79,12.27,11.55,12.27s11.59-5.51,11.59-12.27-4.79-12.27-11.59-12.27-11.55,5.51-11.55,12.27Z"/>
      <path class="cls-3" d="m590.75,707.97l4.36,12.27h-7.52l-3.45-9.68c-.77.1-1.58.14-2.44.14h-9.34v9.53h-7.19v-38.33h16.53c9.77,0,13.42,6.42,13.42,14.37,0,4.79-1.2,9.06-4.36,11.69Zm-9.06-4.46c2.44,0,4.07-.48,4.89-1.53.86-1.05,1.34-3.07,1.34-5.7,0-2.49-.48-4.5-1.39-5.65-.33-.38-1.29-1.58-4.84-1.58h-9.34v14.47h9.34Z"/>
      <path class="cls-3" d="m608.53,720.09h-7.19v-38.19h7.19v38.19Z"/>
      <path class="cls-3" d="m633.59,710.7h-9.44l-2.83,9.53h-7.52l11.31-38.33h7.52v.1l11.26,38.23h-7.47l-2.83-9.53Zm-2.11-7.14l-2.59-8.91-2.63,8.91h5.22Z"/>
    </g>
    <path class="cls-3" d="m68.18,584.83s-.09-.01-.13-.01h-.2s-.08,0-.12,0c-12.39-1.46-25.25-7.59-24.61-16.6.48-6.45,10.16-12.41,27.73-11.61h.48c9.26,0,20.29,4.28,26.45,8.47.44.3,1.05.19,1.37-.25l12.7-17.72c.32-.45.22-1.09-.25-1.41-9.31-6.42-24.93-12.79-39.95-12.79-34.17-1.77-50.78,15.64-52.23,33.37-.81,10.32,3.55,20.47,11.93,28.21,8.22,7.58,19.99,12.41,33.85,13.86,18.86,2.58,26.76,11.28,26.28,18.86-.48,6.93-7.9,13.87-21.28,13.87h-.81c-.16,0-17.73.96-28.53-7.9-2.5-1.91-4.6-4.23-6.54-6.94-.31-.44-.92-.55-1.37-.24l-18.02,12.26c-.46.31-.58.94-.26,1.4,3.13,4.5,6.95,8.57,11.2,12.06,14.67,11.93,34.01,13.22,41.75,13.22h2.9c27.73-.16,43.53-18.21,44.65-36.11,1.29-18.69-12.88-39.63-47-44Z"/>
    <path class="cls-3" d="m185.74,668.91c-18.69,0-36.22-7.28-49.57-20.63-13.88-13.88-21.19-32.27-20.59-51.78,1.13-37,31-66.87,68-68,19.52-.59,37.9,6.72,51.78,20.59,13.88,13.88,21.19,32.27,20.59,51.78-1.13,37-31,66.86-68,68-.74.02-1.48.03-2.21.03Zm.04-131.86c-.64,0-1.29,0-1.94.03-32.48.99-58.69,27.21-59.69,59.69-.52,17.12,5.9,33.27,18.09,45.45,11.73,11.73,27.11,18.12,43.51,18.12.65,0,1.29,0,1.94-.03,32.48-.99,58.69-27.21,59.69-59.69h0c.52-17.12-5.9-33.27-18.09-45.45-11.73-11.73-27.11-18.12-43.52-18.12Z"/>
    <path class="cls-2" d="m185.76,644.24c-12.06,0-23.11-4.79-31.11-13.5-7.76-8.44-12.03-19.83-12.03-32.06s4.27-23.62,12.03-32.06c8-8.7,19.05-13.5,31.11-13.5s23.22,4.79,31.24,13.49c7.77,8.43,12.06,19.82,12.06,32.06s-4.28,23.63-12.06,32.06c-8.02,8.7-19.12,13.49-31.24,13.49Zm0-82.54c-19.7,0-34.56,15.9-34.56,36.98s14.86,36.98,34.56,36.98,34.72-15.9,34.72-36.98-14.93-36.98-34.72-36.98Z"/>
    <path class="cls-3" d="m297.69,534.99c-.19-.37-.65-.62-1.15-.62h-31.02c-.69,0-1.24.44-1.24,1v17.42h42.64l-9.24-17.81Zm-33.41,109.92v17.42c0,.55.55,1,1.24,1h27.6c.69,0,1.24-.45,1.24-1v-17.42h-30.08Zm0-36.85v18.42h30.08v-18.42h-30.08Zm52.2-36.85h-52.2v18.43h61.75l-9.55-18.43Zm-13.79,36.85l9.61,18.42h37.53l9.62-18.42h-56.76Zm43.04-36.85l-9.61,18.43h61.73v-18.43h-52.12Zm22.23,36.85v18.42h29.88v-18.42h-29.88Zm0,36.85v17.42c0,.55.55,1,1.24,1h27.4c.69,0,1.25-.45,1.25-1v-17.42h-29.88Zm28.64-110.54h-30.82c-.5,0-.95.24-1.15.61l-9.29,17.81h42.5v-17.42c0-.55-.56-1-1.25-1Z"/>
    <path class="cls-3" d="m597.26,584.83s-.09-.01-.13-.01h-.19s-.09,0-.13,0c-12.39-1.46-25.25-7.59-24.6-16.6.48-6.45,10.15-12.41,27.72-11.61h.48c9.26,0,20.29,4.28,26.45,8.47.45.3,1.05.19,1.37-.25l12.7-17.72c.32-.45.22-1.09-.25-1.41-9.31-6.42-24.93-12.79-39.95-12.79-34.17-1.77-50.78,15.64-52.23,33.37-.81,10.32,3.55,20.47,11.93,28.21,8.22,7.58,19.99,12.41,33.85,13.86,18.86,2.58,26.76,11.28,26.28,18.86-.48,6.93-7.9,13.87-21.28,13.87h-.8c-.16,0-17.74.96-28.54-7.9-2.5-1.91-4.6-4.23-6.53-6.94-.32-.44-.93-.55-1.38-.24l-18.02,12.26c-.46.31-.57.94-.25,1.4,3.12,4.5,6.94,8.57,11.19,12.06,14.67,11.93,34.01,13.22,41.75,13.22h2.9c27.73-.16,43.53-18.21,44.66-36.11,1.29-18.69-12.88-39.63-47.01-44Z"/>
    <polygon class="cls-3" points="185.76 613.95 170.07 622.2 173.07 604.73 160.38 592.36 177.92 589.81 185.76 573.91 193.61 589.81 211.15 592.36 198.45 604.73 201.45 622.2 185.76 613.95"/>
    <polygon class="cls-2" points="473.5 613.95 457.81 622.2 460.81 604.73 448.11 592.36 465.65 589.81 473.5 573.91 481.34 589.81 498.89 592.36 486.19 604.73 489.19 622.2 473.5 613.95"/>
    <g>
      <path class="cls-3" d="m475.58,663.92c16.99-.52,32.34-7.52,43.66-18.62h-91.25c12.24,11.96,29.12,19.19,47.6,18.62Z"/>
      <path class="cls-3" d="m436.03,608h-27.1c.95,6.58,2.9,12.85,5.67,18.65h30.48c-4.45-5.15-7.58-11.55-9.06-18.65Z"/>
      <path class="cls-3" d="m511.21,608c-1.47,7.1-4.62,13.5-9.07,18.65h30.41c2.75-5.8,4.67-12.07,5.61-18.65h-26.95Z"/>
      <path class="cls-3" d="m511.21,589.34h26.94c-.95-6.58-2.9-12.85-5.67-18.65h-30.34c4.46,5.15,7.6,11.55,9.07,18.65Z"/>
      <path class="cls-3" d="m445.08,570.69h-30.55c-2.75,5.8-4.67,12.06-5.61,18.65h27.11c1.47-7.1,4.61-13.5,9.06-18.65Z"/>
      <path class="cls-3" d="m471.5,533.42c-16.99.52-32.34,7.52-43.66,18.62h91.26c-12.24-11.96-29.12-19.19-47.6-18.62Z"/>
    </g>
    <g>
      <path class="cls-3" d="m591.05,277.55h-4.35c-17.8.01-35.61.03-53.41.01-2.27,0-4.6.14-6.79-.35-5.47-1.23-8.37-6.43-7.56-13.01.6-4.85,4.87-8.43,10.5-8.46,16.79-.07,33.59-.03,50.39-.03h7.78c-20.74-130.15-136.06-232.66-282.7-219.54-75.91,6.79-136.84,42.49-177.95,93.56h199.5c6.18,0,11.24,5.06,11.24,11.23,0,3.08-1.26,5.9-3.3,7.94-2.04,2.03-4.85,3.3-7.94,3.3H110.76c-7.44,11.59-13.99,23.78-19.58,36.44h202.22c6.18,0,11.24,5.05,11.24,11.23,0,3.08-1.26,5.9-3.3,7.94-2.04,2.03-4.85,3.3-7.94,3.3H82.41c-4.92,14.44-8.66,29.37-11.17,44.6h4.16c13.39-.02,26.77-.03,40.16-.04,4,0,7.45,1.23,9.66,4.78,4.83,7.78-.23,16.93-9.59,17.02-14.52.15-29.05.06-43.57.07h-4.35c-.48,5.94-1.37,11.44-1.27,16.92.18,10.67.86,21.34,1.44,32,.27,4.96.38,4.89,5.44,4.86,12.37-.03,24.75-.09,37.12.03,5.72.06,9.35,3.03,10.48,7.98,1.65,7.26-3.28,13.77-10.87,13.95-8.96.2-17.92.08-26.89.1-3.5.01-7,0-10.87,0,3.01,14.69,7,28.61,12.84,41.97.38.89,2.08,1.64,3.21,1.69,4.23.2,5.24.1,8.5.1-8.18,7.69,5.01,42.33,28.07,32.55.42,2.25,2.52,12.77,2.87,14.58,1.94,11.06-1.59,16.48-5.09,24.15-7.33,8.14-9.6,15.35-7.87,25.1,1.93,10.87,13.94,20.06,24.82,18.97,10.16-1,17.17-6.44,21.72-15.39,1.62-3.19,2.54-7.61,5.16-9.17,2.72-1.64,7.13-.25,10.76-.64,5.3-.56,9.11.21,11.09,6.26,1.07,3.3,4.93,5.57,6.72,8.77,4.84,8.59,12.36,12.39,21.74,12.39,9.63-.01,16.86-4.9,21.22-13.33,2.19-4.23,3.22-9.05,4.8-13.74h97.15c4.18,17.47,16.01,27.66,32.82,28.29,6.55.24,12.76-1.31,18.28-4.98,8.37-5.55,13.32-13.47,15.38-23.15.58-.14.93-.29,1.29-.29,19.57-.04,39.14-.11,58.71-.01.53,0,1.09.22,1.64.52,3.97,16.44,15.14,26.04,31,26.63,6.2.23,12.07-1.24,17.28-4.7,21.65-13.75,16.95-33.78,13.98-45.04-3.82-13,4.54-10.74,6.01-10.53,8.38,1.14,41.53-9.53,15.38-48.5-1.75-5.68.39-8.56,6.16-8.76,1.39-.05,2.77-.07,4.17-.12,3.63-.13,8.19,1.01,10.64-.76,2.61-1.89,3.54-6.44,4.66-10,3.39-10.7,6.5-21.48,9.92-32.9h-5.33c-10.98,0-21.98.18-32.95-.15-2.51-.07-5.39-1.45-7.32-3.12-3.41-2.96-4.01-7.13-2.57-11.42,1.61-4.77,5.32-7.04,10.08-7.13,12.24-.21,24.49-.27,36.73-.11,3.49.04,5-.87,5.09-4.53.29-11.69,1.01-23.38,1.2-35.07.08-4.69-.77-9.4-1.21-14.24Zm-66.73,51.05c.33,15.06-12.58,24.94-25.35,24.79-12.86-.15-25.14-10.18-23.94-27.12.85-11.87,10.38-22.94,26.47-22.2,13.69.64,23.64,12.53,22.83,24.54Zm-49.41-118.24l-3.46-7.18c-.52-1.07.2-2.33,1.4-2.42l7.95-.6c.52-.03.98-.3,1.27-.73l4.49-6.59c.67-.98,2.11-.98,2.79,0l4.48,6.59c.29.42.76.7,1.27.74l7.95.59c1.19.09,1.91,1.35,1.4,2.42l-3.46,7.19c-.22.46-.22,1,0,1.46l3.46,7.19c.52,1.07-.21,2.33-1.4,2.42l-7.95.59c-.52.04-.98.31-1.27.74l-4.49,6.59c-.67.98-2.12.98-2.79-.01l-4.49-6.58c-.28-.42-.76-.7-1.26-.74l-7.96-.6c-1.18-.08-1.91-1.34-1.4-2.41l3.47-7.19c.22-.47.22-1,0-1.47Zm-69.49-82.25l-7.68-15.93c-1.14-2.38.47-5.16,3.09-5.35l17.63-1.31c1.13-.08,2.17-.68,2.81-1.62l9.96-14.61c1.48-2.17,4.69-2.17,6.18,0l9.95,14.61c.64.94,1.68,1.54,2.81,1.63l17.63,1.31c2.63.19,4.24,2.97,3.09,5.35l-7.69,15.93c-.5,1.02-.5,2.21,0,3.25l7.68,15.93c1.14,2.37-.47,5.16-3.09,5.35l-17.63,1.31c-1.13.08-2.17.68-2.81,1.62l-9.95,14.61c-1.49,2.17-4.7,2.17-6.19,0l-9.95-14.61c-.64-.94-1.67-1.55-2.81-1.63l-17.63-1.31c-2.63-.2-4.24-2.98-3.08-5.35l7.68-15.93c.5-1.03.5-2.23,0-3.25Zm-30.26,56.66c17.6.79,31.14,15.74,30.29,33.46-.29,17.24-15.09,31.5-34.25,30.29-16.77-1.06-30.34-14.32-29.3-33.74.93-17.47,15.56-30.8,33.26-30.01Zm-39.04-82.68c-1.18-.09-1.91-1.34-1.4-2.42l3.47-7.18c.22-.47.22-1,0-1.47l-3.47-7.19c-.52-1.07.21-2.33,1.4-2.41l7.96-.6c.52-.04.98-.3,1.26-.73l4.5-6.59c.67-.98,2.11-.98,2.78,0l4.49,6.59c.29.42.76.7,1.27.73l7.95.6c1.19.09,1.91,1.35,1.4,2.42l-3.47,7.18c-.22.47-.22,1.01,0,1.47l3.47,7.19c.52,1.07-.21,2.33-1.4,2.42l-7.96.59c-.51.04-.97.31-1.26.74l-4.49,6.58c-.67.99-2.12.99-2.79,0l-4.49-6.59c-.29-.42-.76-.69-1.26-.73l-7.96-.6Zm-155.76,142.21c18.96-.62,29.73,14.3,29.87,27.38.15,16.05-12.64,28.96-30.49,28.25-14.77-.59-26.23-12.46-26.03-27.03-.08-15.88,11.82-28.12,26.66-28.59Zm84.89,146.46c-12.06-6.02-24.29-11.8-35.84-18.71-4.77-2.85-8.02-8.26-11.89-12.57-4.02-4.48-7.98-9.03-11.96-13.55-.21.11-.43.21-.64.32,1.95,6.66,3.92,13.32,5.86,19.98,6,20.79,12.03,41.59,17.93,62.41,1.68,5.93.49,7.36-5.49,7.4-3.01.01-6.04,0-9.65,0,2.11,7.4,4.1,14.46,6.15,21.49,2.93,9.97,5.85,19.94,8.91,29.88,1.56,5.09.09,9.32-3.63,12.62-3.81,3.39-8.4,4.47-13.32,2.37-4.19-1.78-6.13-5.41-7.36-9.52-3.01-10.07-5.99-20.16-9-30.23-2.28-7.58-4.54-15.15-6.92-22.7-.56-1.77-.7-4.16-3.72-3.8-2.95.33-6.14-.89-7.98,3.13-4.23,9.21-8.88,18.23-13.36,27.34-4.32,8.79-8.59,17.61-12.99,26.37-2.32,4.6-6,7.53-11.35,7.5-5.04-.03-8.91-2.29-11.35-6.83-2.07-3.86-1.95-7.69-.02-11.55,6.71-13.39,13.41-26.79,20.1-40.19.78-1.55,1.46-3.15,2.4-5.17-1.53-.08-2.6-.17-3.66-.18-4.62-.08-6.68-2.64-5.5-7.15,3.3-12.58,6.76-25.12,9.98-37.72,2.54-9.92,4.82-19.9,6.71-30.07-3.49,7.12-6.97,14.23-10.45,21.35-4.57,9.35-9.07,18.74-13.73,28.04-2.45,4.9-7.73,7.51-12.84,6.72-4.79-.74-8.78-4.79-9.17-10.18-.18-2.51.39-5.37,1.53-7.62,11.15-22.16,21.97-44.51,33.95-66.21,6.38-11.55,16.02-20.34,29.97-22.79,16.09-2.83,29.62,1.98,40.68,13.7,8.57,9.08,16.63,18.64,25.18,27.73,1.97,2.09,5.01,3.25,7.66,4.64,8.26,4.33,16.58,8.56,24.87,12.84,5.79,3,7.98,7.13,7.04,13.2-.77,5-3.93,8.02-10.27,8.91-2.18.3-4.8-.21-6.8-1.21Zm50.82,73.87c-10.61.07-21.21.06-31.81.03-4.38-.02-7.17-2.63-7.19-6.98-.07-12.5-.03-24.99.07-37.49.03-4.28,3.45-7.5,7.71-7.62,1.24-.03,2.49-.01,4.22-.01-.23-5.36-.17-10.79,4.92-13.54,2.81-1.53,6.41-2.3,9.63-2.21,6.89.17,10.37,5.4,10.77,15.26,6.67.5,9.56,3.58,9.57,10.11.02,11.49.03,22.98,0,34.47,0,5.19-2.68,7.95-7.89,7.98Zm115.76-75.99c-1.43-6.23-1.98-12.65-2.92-18.99-2.98-20.12-7.01-39.98-14.6-58.94-.58-1.45-1.33-2.82-2.01-4.23-.42.08-.82.15-1.23.23-.16,2.87-.46,5.73-.46,8.61-.06,28.16.33,56.32-.27,84.47-.27,13.13-1.65,26.35-3.95,39.28-2.97,16.7-6.99,33.24-11.28,49.67-4.23,16.22-21.96,19.64-33.34,13.22-5.92-3.34-8.85-9.06-10.34-15.2-3.84-15.79-7.11-31.72-10.68-47.58-4.99-22.18-4.69-44.7-4.58-67.24.1-20.58-.09-41.16-.18-61.74-.01-1.29-.23-2.6-.35-3.89-.37-.1-.74-.2-1.1-.3-.76,1.28-1.67,2.5-2.24,3.85-6.56,15.66-10.34,32.09-13.6,48.67-1.41,7.14-2.51,14.33-3.8,21.49-1.26,7.03-6.82,11.05-14.27,10.42-6.6-.56-11.24-5.16-10.68-12.15.78-9.6,2.15-19.2,3.95-28.67,3.04-16.03,6.56-32,12.86-47.16,7.49-18.05,18.68-32.94,37.55-40.2,6.1-2.36,12.81-3.36,19.35-4.24,5.1-.69,10.34-.21,15.51-.28,24.77-.33,42.34,11.58,54.63,32.28,7.74,13.03,11.57,27.47,14.87,42.08,3.82,16.95,6.55,34.05,7.26,51.42.31,7.67-3.13,11.5-10.65,13.18-5.81,1.29-12.07-2.08-13.44-8.04Zm118.1,38.11c.47,1.01.75,2.12.98,3.23.99,4.68-2.08,9.74-6.99,11.56-4.26,1.58-8.83-.15-11.29-4.37-1.01-1.74-1.91-3.55-2.72-5.4-4.63-10.56-9.21-21.14-13.96-32.04-.26.92-.65,1.62-.61,2.28.33,5.39.75,10.77,1.13,16.15.97,13.74,2.08,27.48,2.85,41.23.53,9.5.8,19.02,1.11,28.53-.09.34-.18.69-.27,1.03-4,15.34-20.76,18.57-31.53,12.5-4.29-2.42-6.91-6.16-8.54-10.39,1.14-30.98,2.27-61.97,3.4-92.95-1.2.27-1.52.75-1.84,1.21-6.54,9.42-13.05,18.87-19.67,28.24-2.31,3.26-5.64,4.52-9.61,3.81-4-.72-6.39-3.17-7.64-7-1.74-5.35,1.35-9.09,4.01-13.08,6.5-9.75,13.13-19.42,19.29-29.38,5.77-9.36,12.95-16.76,24-19.29,13.81-3.17,29.5,2.81,36.32,17.12,7.41,15.55,14.41,31.31,21.55,47.01Z"/>
      <path class="cls-3" d="m301.99,404.81c-3.26-.21-4.45,1.33-4.71,6.17h8.5c.3-3.28.09-5.92-3.79-6.17Z"/>
    </g>
  </g>
</svg>