<svg id="svg" version="1.1" xmlns="http://www.w3.org/2000/svg" xmlns:xlink="http://www.w3.org/1999/xlink" width="400" height="400" viewBox="0, 0, 400,400"><g id="svgg"><path id="path0" d="M189.074 73.332 C 188.259 73.476,189.509 73.513,191.852 73.413 C 194.194 73.312,196.181 73.170,196.265 73.097 C 196.535 72.864,190.619 73.057,189.074 73.332 M205.473 73.235 C 206.344 73.313,207.677 73.312,208.436 73.232 C 209.194 73.153,208.481 73.089,206.852 73.090 C 205.222 73.091,204.602 73.156,205.473 73.235 M210.031 73.473 C 210.116 73.550,211.352 73.706,212.778 73.820 C 214.770 73.980,215.027 73.953,213.889 73.702 C 212.392 73.373,209.746 73.215,210.031 73.473 M221.667 75.396 C 222.685 75.680,223.685 75.897,223.889 75.880 C 224.516 75.826,221.344 74.871,220.556 74.876 C 220.148 74.879,220.648 75.113,221.667 75.396 M236.628 80.019 C 237.523 80.424,238.329 80.683,238.419 80.593 C 238.654 80.358,237.403 79.769,236.111 79.507 C 235.254 79.333,235.372 79.450,236.628 80.019 M157.315 82.064 C 155.879 82.843,156.041 83.112,157.500 82.370 C 158.896 81.660,159.143 81.476,158.673 81.496 C 158.486 81.504,157.875 81.760,157.315 82.064 M242.222 82.404 C 242.222 82.657,244.490 83.782,244.659 83.612 C 244.740 83.532,244.224 83.189,243.514 82.850 C 242.803 82.511,242.222 82.311,242.222 82.404 M152.222 84.581 C 149.873 85.763,145.319 88.740,144.968 89.325 C 144.736 89.710,144.787 89.723,145.207 89.383 C 145.500 89.146,147.729 87.771,150.158 86.328 C 154.534 83.728,155.437 82.964,152.222 84.581 M245.935 84.192 C 246.042 84.307,247.959 85.506,250.194 86.857 C 255.856 90.278,261.924 94.956,267.189 99.961 L 271.667 104.216 268.148 100.602 C 264.080 96.422,257.103 90.733,252.364 87.730 C 249.368 85.832,245.460 83.681,245.935 84.192 M206.578 88.903 C 205.659 90.232,205.410 90.370,203.954 90.370 C 201.851 90.370,201.785 90.482,202.656 92.576 L 203.395 94.354 202.622 95.867 C 201.720 97.637,202.153 98.148,204.556 98.148 C 205.629 98.148,205.980 98.379,206.808 99.630 C 208.017 101.456,208.129 101.458,209.234 99.671 C 210.033 98.378,210.309 98.213,211.922 98.058 C 214.238 97.835,214.277 97.775,213.318 95.895 L 212.510 94.311 213.299 92.687 C 214.272 90.685,214.098 90.370,212.020 90.370 C 210.518 90.370,210.299 90.247,209.400 88.889 C 208.187 87.056,207.854 87.058,206.578 88.903 M141.296 91.549 C 139.515 92.548,130.953 100.423,130.296 101.667 C 130.080 102.074,131.467 100.893,133.378 99.043 C 135.289 97.193,138.154 94.651,139.746 93.395 C 142.454 91.259,143.024 90.580,141.296 91.549 M238.268 92.905 C 238.066 93.039,237.016 94.453,235.935 96.048 C 233.788 99.215,233.134 99.628,230.254 99.634 C 224.943 99.645,224.529 100.194,226.650 104.411 C 228.499 108.088,228.498 108.193,226.616 112.245 C 224.668 116.438,224.723 116.522,229.699 116.875 C 233.862 117.170,233.411 116.886,236.310 121.041 C 238.698 124.464,238.993 124.428,241.750 120.370 L 243.889 117.222 247.963 116.797 C 250.204 116.563,252.079 116.355,252.130 116.334 C 252.535 116.169,251.987 114.384,250.741 111.806 C 248.937 108.076,248.936 108.500,250.752 104.750 C 252.924 100.267,252.653 99.783,247.917 99.673 C 244.211 99.588,243.964 99.446,241.697 96.109 C 239.618 93.048,238.969 92.441,238.268 92.905 M126.749 104.917 C 125.481 106.196,124.444 107.457,124.444 107.719 C 124.444 107.982,123.611 109.008,122.593 110.000 C 121.321 111.239,120.741 112.101,120.741 112.754 C 120.741 113.276,120.574 113.704,120.370 113.704 C 120.167 113.704,120.000 113.976,120.000 114.308 C 120.000 114.641,119.665 115.204,119.255 115.559 C 118.091 116.569,116.796 118.644,114.610 123.002 C 112.032 128.142,112.002 128.740,114.566 123.889 C 116.137 120.916,118.187 117.378,118.704 116.747 C 118.752 116.689,136.604 116.645,158.377 116.648 C 181.027 116.652,198.582 116.510,199.410 116.316 C 202.826 115.517,204.002 111.774,201.531 109.566 L 200.359 108.519 162.574 108.519 C 126.700 108.519,124.807 108.486,125.142 107.870 C 125.510 107.194,126.262 106.315,128.467 103.981 C 130.684 101.636,129.200 102.444,126.749 104.917 M276.874 110.833 C 278.031 112.412,279.051 113.704,279.140 113.704 C 279.496 113.704,277.984 111.530,276.424 109.800 C 274.901 108.110,274.937 108.193,276.874 110.833 M281.679 117.778 C 281.853 118.083,282.574 119.244,283.281 120.357 C 283.989 121.469,285.619 124.553,286.904 127.208 C 289.175 131.900,289.874 133.061,288.668 130.138 C 287.247 126.693,284.188 120.790,283.030 119.259 C 281.633 117.412,281.201 116.938,281.679 117.778 M212.482 129.423 C 205.747 131.826,202.783 139.606,206.118 146.127 C 210.957 155.588,225.711 153.248,227.788 142.689 C 229.488 134.051,220.746 126.475,212.482 129.423 M110.972 130.537 C 110.609 131.092,110.390 131.625,110.487 131.722 C 110.584 131.819,110.450 132.817,110.188 133.940 C 109.927 135.063,109.798 136.303,109.900 136.695 C 110.052 137.275,109.890 137.408,109.025 137.409 C 108.017 137.410,107.930 137.544,107.306 140.054 C 106.476 143.394,106.722 143.823,107.602 140.572 L 108.258 138.148 148.197 138.148 L 188.136 138.148 189.266 137.130 C 191.602 135.024,190.735 131.482,187.632 130.459 C 186.524 130.094,178.144 130.014,149.034 130.089 C 127.651 130.144,111.805 130.046,111.742 129.857 C 111.682 129.676,111.336 129.982,110.972 130.537 M257.356 132.925 C 256.515 134.141,256.137 134.366,254.652 134.533 C 252.437 134.783,252.448 134.764,253.342 136.784 L 254.100 138.498 253.332 140.002 C 252.378 141.872,252.582 142.222,254.627 142.222 C 256.095 142.222,256.347 142.361,257.291 143.696 C 258.257 145.061,259.259 145.645,259.259 144.843 C 259.259 143.703,261.231 142.222,262.749 142.222 C 264.812 142.222,264.879 142.105,264.011 140.016 L 263.272 138.239 264.054 136.707 L 264.835 135.175 263.875 134.810 C 263.347 134.609,262.454 134.444,261.890 134.444 C 261.118 134.444,260.644 134.108,259.969 133.080 C 258.784 131.274,258.509 131.258,257.356 132.925 M290.209 134.630 C 290.751 136.056,291.414 137.806,291.682 138.519 C 291.951 139.231,292.182 139.601,292.196 139.340 C 292.230 138.729,290.015 132.895,289.565 132.408 C 289.377 132.204,289.667 133.204,290.209 134.630 M292.760 142.001 C 292.883 142.388,293.250 143.769,293.577 145.070 C 293.904 146.370,294.242 147.363,294.328 147.277 C 294.543 147.062,293.355 142.543,292.901 141.852 C 292.612 141.411,292.583 141.442,292.760 142.001 M105.741 145.926 C 105.600 146.566,105.562 147.167,105.657 147.262 C 105.751 147.356,105.935 146.901,106.065 146.250 C 106.374 144.706,106.074 144.407,105.741 145.926 M294.484 148.148 C 294.480 148.454,294.713 149.704,295.002 150.926 L 295.527 153.148 295.309 151.111 C 295.098 149.135,294.499 146.985,294.484 148.148 M142.179 151.252 C 130.593 155.392,133.834 172.005,146.037 171.025 C 151.528 170.584,155.167 166.899,155.488 161.454 C 155.898 154.500,148.645 148.941,142.179 151.252 M103.704 155.556 C 103.704 156.574,103.537 157.407,103.333 157.407 C 103.128 157.407,102.963 158.395,102.963 159.630 C 102.963 160.852,102.831 161.852,102.671 161.852 C 102.510 161.852,102.353 162.894,102.322 164.167 C 102.264 166.597,102.380 166.650,102.761 164.369 L 102.990 162.998 112.580 162.888 C 124.235 162.754,125.680 162.157,124.605 157.916 C 123.901 155.139,123.356 155.000,113.211 155.000 C 104.891 155.000,104.267 154.954,104.368 154.352 C 104.428 153.995,104.303 153.704,104.090 153.704 C 103.873 153.704,103.704 154.516,103.704 155.556 M271.570 155.757 C 269.929 156.907,269.870 160.405,271.465 162.000 C 272.219 162.754,272.613 162.781,284.639 162.885 L 297.037 162.991 297.081 164.181 L 297.125 165.370 297.385 164.259 C 297.716 162.847,297.575 162.593,296.460 162.593 C 295.561 162.593,295.556 162.569,295.556 158.889 L 295.556 155.185 283.971 155.185 C 274.124 155.185,272.265 155.271,271.570 155.757 M213.333 155.819 C 198.197 157.260,190.850 166.961,186.662 191.035 C 184.705 202.282,185.667 205.487,190.742 204.629 C 193.537 204.157,194.052 203.149,195.385 195.536 C 197.279 184.711,201.033 172.393,202.109 173.467 C 202.273 173.631,202.505 183.126,202.625 194.567 C 202.866 217.563,202.739 216.125,205.697 229.444 C 208.221 240.806,208.721 242.543,209.904 244.030 C 213.769 248.893,222.006 247.624,223.865 241.880 C 224.679 239.368,226.488 231.931,227.566 226.667 C 229.542 217.020,229.695 214.856,229.895 193.594 C 230.033 178.928,230.194 173.706,230.504 173.808 C 231.918 174.273,235.389 186.890,236.844 196.852 C 238.194 206.095,238.644 207.037,241.707 207.037 C 246.777 207.037,247.556 203.842,245.524 191.381 C 241.083 164.145,231.942 154.047,213.333 155.819 M102.359 173.704 C 102.359 175.843,102.420 176.718,102.495 175.648 C 102.570 174.579,102.570 172.829,102.495 171.759 C 102.420 170.690,102.359 171.565,102.359 173.704 M259.911 173.490 C 252.610 176.096,251.877 186.457,258.750 189.920 C 266.249 193.699,274.516 185.984,271.277 178.229 C 269.560 174.120,264.296 171.925,259.911 173.490 M297.037 178.148 C 297.037 180.253,297.152 181.861,297.292 181.721 C 297.581 181.431,297.524 174.808,297.229 174.513 C 297.124 174.408,297.037 176.043,297.037 178.148 M142.407 175.712 C 135.940 177.550,134.278 179.736,124.425 199.363 C 119.147 209.876,118.850 210.727,119.813 212.589 C 122.088 216.989,125.906 215.397,129.084 208.722 C 133.737 198.951,136.296 193.949,136.292 194.634 C 136.285 195.728,134.423 203.592,132.048 212.553 C 129.712 221.368,129.712 221.364,132.396 221.813 L 133.730 222.037 129.273 231.026 C 124.003 241.651,123.789 243.434,127.589 245.022 C 131.328 246.585,131.733 246.133,138.203 233.190 C 144.737 220.120,143.616 221.903,145.445 221.673 C 147.488 221.416,147.287 220.992,150.859 233.074 C 154.768 246.294,155.513 247.462,159.307 246.326 C 162.666 245.319,163.223 243.071,161.506 237.448 C 159.644 231.352,157.037 222.258,157.037 221.861 C 157.037 221.638,158.103 221.481,159.617 221.481 C 161.697 221.481,162.262 221.356,162.536 220.833 C 162.842 220.251,158.439 203.982,154.608 191.536 C 153.366 187.499,153.455 187.499,157.030 191.554 C 162.724 198.011,162.403 197.761,169.918 201.596 C 178.853 206.155,181.590 206.263,182.374 202.085 C 182.917 199.188,182.237 198.549,174.205 194.411 L 168.159 191.296 162.752 185.293 C 154.437 176.061,149.448 173.712,142.407 175.712 M102.564 180.370 C 102.387 182.752,102.454 183.234,103.031 183.747 C 103.529 184.191,103.704 184.882,103.704 186.410 C 103.704 187.546,103.870 188.578,104.074 188.704 C 104.278 188.830,104.467 189.798,104.495 190.855 C 104.523 191.913,104.618 192.403,104.706 191.944 C 104.865 191.117,104.912 191.111,111.600 191.109 C 119.005 191.107,120.704 190.820,121.835 189.382 C 122.907 188.019,122.845 185.691,121.701 184.259 L 120.812 183.148 111.980 182.963 L 103.148 182.778 102.959 180.185 L 102.771 177.593 102.564 180.370 M296.710 182.500 C 296.677 182.854,294.822 182.963,288.796 182.964 C 279.572 182.964,278.704 183.187,277.806 185.786 C 276.388 189.885,278.373 190.912,287.829 190.971 C 291.829 190.996,295.313 191.147,295.571 191.306 C 295.877 191.495,295.948 191.447,295.776 191.168 C 295.631 190.933,295.688 190.741,295.904 190.741 C 296.150 190.741,296.296 189.528,296.296 187.481 C 296.296 185.616,296.470 184.049,296.701 183.817 C 296.924 183.594,297.027 183.103,296.930 182.725 C 296.832 182.346,296.733 182.245,296.710 182.500 M294.130 196.082 C 293.690 197.598,293.234 199.142,293.118 199.512 C 292.916 200.157,292.925 200.158,293.334 199.519 C 293.827 198.749,295.284 193.679,295.073 193.468 C 294.995 193.390,294.571 194.566,294.130 196.082 M259.630 194.791 C 256.479 195.753,253.382 198.456,251.052 202.279 C 250.389 203.368,248.446 206.343,246.736 208.889 C 242.207 215.634,242.053 216.030,243.142 218.136 C 244.959 221.650,247.562 220.475,251.905 214.178 C 253.811 211.414,255.740 208.719,256.192 208.188 L 257.014 207.222 257.030 208.704 C 257.039 209.519,256.774 217.396,256.441 226.210 L 255.835 242.234 256.807 243.702 C 260.041 248.590,268.835 247.328,270.274 241.769 C 270.737 239.980,270.129 227.480,268.744 210.299 C 268.504 207.321,269.270 208.380,272.059 214.882 C 275.941 223.935,277.802 225.588,280.769 222.621 C 282.637 220.753,281.995 218.821,273.680 201.296 C 271.237 196.147,264.859 193.194,259.630 194.791 M105.202 195.188 C 105.140 197.223,108.674 206.806,109.735 207.480 C 109.982 207.638,110.727 207.769,111.389 207.772 C 112.445 207.777,112.593 207.899,112.593 208.765 C 112.593 209.934,112.768 209.823,113.098 208.446 C 113.330 207.479,113.283 207.445,111.576 207.335 C 109.432 207.198,108.632 205.863,106.513 198.889 C 105.801 196.546,105.211 194.881,105.202 195.188 M292.480 201.389 C 292.095 202.076,291.851 203.748,292.165 203.554 C 292.353 203.438,292.581 202.840,292.671 202.227 C 292.834 201.115,292.776 200.861,292.480 201.389 M290.926 205.662 L 290.185 207.222 286.559 207.407 C 282.378 207.621,281.211 208.602,282.593 210.741 C 282.882 211.188,282.953 211.131,282.957 210.446 C 282.970 208.611,284.477 207.778,287.787 207.778 C 291.195 207.778,291.673 207.508,291.913 205.446 C 292.121 203.669,291.843 203.729,290.926 205.662 M187.213 207.924 C 185.922 208.487,185.185 209.853,185.185 211.684 C 185.185 212.808,185.071 212.963,184.241 212.963 C 180.974 212.963,180.741 213.642,180.741 223.157 C 180.741 233.085,179.939 232.222,189.173 232.222 C 198.392 232.222,197.778 232.881,197.778 222.997 C 197.778 214.648,197.633 214.023,195.505 213.171 C 194.370 212.717,194.074 212.404,194.074 211.658 C 194.074 208.109,190.835 206.346,187.213 207.924 M190.639 210.300 C 191.977 211.150,191.337 212.405,189.505 212.522 C 187.786 212.631,187.725 212.602,187.976 211.781 C 188.486 210.122,189.484 209.566,190.639 210.300 M112.647 211.667 C 112.630 212.496,112.872 213.474,113.198 213.889 C 113.763 214.607,113.772 214.602,113.493 213.704 C 113.334 213.194,113.086 212.194,112.941 211.481 L 112.678 210.185 112.647 211.667 M114.238 215.791 C 114.898 217.179,118.007 220.007,118.848 219.984 C 119.176 219.975,118.840 219.648,118.100 219.257 C 116.825 218.583,115.821 217.590,114.344 215.540 C 113.690 214.633,113.689 214.635,114.238 215.791 M120.278 220.261 C 120.736 220.350,121.486 220.350,121.944 220.261 C 122.403 220.173,122.028 220.101,121.111 220.101 C 120.194 220.101,119.819 220.173,120.278 220.261 M177.130 241.018 C 181.968 241.077,189.884 241.077,194.722 241.018 C 199.560 240.960,195.602 240.912,185.926 240.912 C 176.250 240.912,172.292 240.960,177.130 241.018 M234.375 241.018 C 237.494 241.080,242.494 241.080,245.486 241.018 C 248.478 240.955,245.926 240.905,239.815 240.905 C 233.704 240.905,231.256 240.956,234.375 241.018 M262.320 251.007 C 262.883 251.092,263.716 251.089,264.172 251.001 C 264.627 250.914,264.167 250.844,263.148 250.847 C 262.130 250.849,261.757 250.921,262.320 251.007 M252.685 257.663 C 253.042 257.756,253.625 257.756,253.981 257.663 C 254.338 257.570,254.046 257.493,253.333 257.493 C 252.620 257.493,252.329 257.570,252.685 257.663 M177.778 258.029 C 182.678 258.296,188.436 258.311,188.277 258.056 C 188.182 257.903,185.323 257.809,181.923 257.848 C 178.523 257.886,176.657 257.968,177.778 258.029 M212.834 258.056 C 212.739 258.208,214.604 258.290,216.979 258.237 C 224.682 258.064,225.505 257.919,219.189 257.848 C 215.789 257.809,212.929 257.903,212.834 258.056 M142.963 259.515 C 124.976 262.526,117.825 284.916,130.743 297.780 C 145.047 312.025,169.174 302.246,169.317 282.144 C 169.417 268.130,156.705 257.215,142.963 259.515 M149.259 265.207 C 168.647 268.324,166.480 298.959,146.877 298.880 C 125.798 298.795,125.245 266.406,146.296 264.861 C 146.602 264.839,147.935 264.995,149.259 265.207 M102.500 266.558 C 102.958 266.646,103.708 266.646,104.167 266.558 C 104.625 266.469,104.250 266.397,103.333 266.397 C 102.417 266.397,102.042 266.469,102.500 266.558 M298.426 266.558 C 298.884 266.646,299.634 266.646,300.093 266.558 C 300.551 266.469,300.176 266.397,299.259 266.397 C 298.343 266.397,297.968 266.469,298.426 266.558 M142.505 269.079 C 131.166 273.244,131.399 291.028,142.842 294.836 C 153.934 298.527,163.211 286.498,157.911 275.295 C 155.416 270.021,148.041 267.045,142.505 269.079 M84.921 270.926 C 84.924 271.944,84.995 272.317,85.081 271.754 C 85.166 271.191,85.163 270.358,85.076 269.902 C 84.988 269.447,84.918 269.907,84.921 270.926 M280.834 270.926 C 280.838 271.741,280.914 272.030,281.003 271.570 C 281.091 271.109,281.088 270.442,280.995 270.088 C 280.903 269.734,280.830 270.111,280.834 270.926 M180.485 271.759 C 183.298 271.821,187.798 271.821,190.485 271.758 C 193.172 271.695,190.870 271.643,185.370 271.644 C 179.870 271.644,177.672 271.696,180.485 271.759 M210.278 271.758 C 212.977 271.822,217.394 271.822,220.093 271.758 C 222.792 271.695,220.583 271.643,215.185 271.643 C 209.787 271.643,207.579 271.695,210.278 271.758 M150.243 278.540 C 150.619 278.677,152.051 278.908,153.426 279.054 C 156.459 279.375,156.462 279.398,153.768 282.035 L 151.610 284.148 152.140 287.282 C 152.792 291.140,152.948 291.024,149.522 289.229 L 146.677 287.738 143.865 289.272 C 140.479 291.120,140.621 291.223,141.337 287.427 L 141.918 284.346 139.663 282.070 C 136.904 279.287,136.901 279.411,139.722 279.099 C 143.656 278.665,143.603 278.700,145.264 275.418 L 146.788 272.407 148.174 275.349 C 148.940 276.975,149.866 278.403,150.243 278.540 M181.389 278.796 C 184.495 278.857,189.579 278.857,192.685 278.796 C 195.792 278.734,193.250 278.683,187.037 278.683 C 180.824 278.683,178.282 278.734,181.389 278.796 M208.426 278.796 C 211.532 278.857,216.616 278.857,219.722 278.796 C 222.829 278.734,220.287 278.683,214.074 278.683 C 207.861 278.683,205.319 278.734,208.426 278.796 M244.278 280.471 C 244.377 280.730,244.831 281.169,245.285 281.446 C 246.073 281.926,246.070 281.904,245.213 280.975 C 244.211 279.886,244.013 279.780,244.278 280.471 M312.207 282.315 C 313.115 283.282,313.907 284.074,313.966 284.074 C 314.244 284.074,313.950 283.742,312.315 282.207 L 310.556 280.556 312.207 282.315 M193.058 291.852 C 193.185 292.320,194.310 292.409,200.216 292.421 L 207.222 292.434 200.387 292.319 C 195.523 292.238,193.459 292.074,193.229 291.751 C 192.996 291.422,192.948 291.450,193.058 291.852 M181.481 292.222 L 175.741 292.437 181.367 292.515 C 184.805 292.562,187.082 292.449,187.222 292.222 C 187.348 292.019,187.400 291.887,187.337 291.930 C 187.274 291.973,184.639 292.104,181.481 292.222 M217.113 292.497 C 218.480 292.568,220.813 292.568,222.299 292.498 C 223.784 292.427,222.667 292.369,219.815 292.368 C 216.963 292.368,215.747 292.425,217.113 292.497 M183.981 298.780 C 184.440 298.868,185.190 298.868,185.648 298.780 C 186.106 298.692,185.731 298.619,184.815 298.619 C 183.898 298.619,183.523 298.692,183.981 298.780 M240.282 299.151 C 240.743 299.239,241.409 299.236,241.764 299.143 C 242.118 299.051,241.741 298.978,240.926 298.982 C 240.111 298.986,239.821 299.062,240.282 299.151 M246.204 299.165 C 248.292 299.231,251.708 299.231,253.796 299.165 C 255.884 299.099,254.176 299.045,250.000 299.045 C 245.824 299.045,244.116 299.099,246.204 299.165 M260.838 299.155 C 261.401 299.240,262.235 299.238,262.690 299.150 C 263.146 299.062,262.685 298.992,261.667 298.995 C 260.648 298.998,260.275 299.070,260.838 299.155 M225.661 302.037 C 225.664 303.056,225.736 303.428,225.821 302.865 C 225.906 302.302,225.904 301.469,225.816 301.013 C 225.728 300.558,225.659 301.019,225.661 302.037 M175.286 303.704 C 175.286 304.620,175.358 304.995,175.447 304.537 C 175.535 304.079,175.535 303.329,175.447 302.870 C 175.358 302.412,175.286 302.787,175.286 303.704 M213.815 304.074 C 213.815 305.194,213.884 305.653,213.969 305.093 C 214.054 304.532,214.054 303.616,213.969 303.056 C 213.884 302.495,213.815 302.954,213.815 304.074 M88.150 312.221 C 87.921 312.363,88.255 312.493,88.892 312.512 C 89.530 312.530,90.331 312.764,90.674 313.032 C 91.223 313.461,91.241 313.447,90.822 312.911 C 90.285 312.224,88.776 311.834,88.150 312.221 M98.519 312.816 C 97.937 313.173,97.868 313.283,98.333 313.112 C 98.741 312.961,99.991 312.724,101.111 312.585 L 103.148 312.331 101.296 312.290 C 100.213 312.266,99.060 312.484,98.519 312.816 M103.704 312.412 C 103.704 312.688,106.392 313.731,106.591 313.532 C 106.691 313.432,106.540 313.268,106.257 313.168 C 105.973 313.067,105.282 312.817,104.722 312.613 C 104.162 312.408,103.704 312.318,103.704 312.412 M115.784 312.522 C 115.682 312.687,116.631 312.758,117.892 312.680 C 121.116 312.481,121.369 312.286,118.448 312.251 C 117.085 312.235,115.886 312.357,115.784 312.522 M127.685 312.484 C 128.144 312.572,128.894 312.572,129.352 312.484 C 129.810 312.395,129.435 312.323,128.519 312.323 C 127.602 312.323,127.227 312.395,127.685 312.484 M152.258 313.496 C 152.686 314.221,153.107 314.815,153.194 314.815 C 153.457 314.815,152.255 312.657,151.854 312.409 C 151.648 312.282,151.830 312.771,152.258 313.496 M185.176 313.172 C 184.977 313.695,184.828 314.320,184.844 314.561 C 184.860 314.803,185.052 314.500,185.270 313.889 C 185.488 313.278,185.850 312.655,186.074 312.506 C 186.354 312.319,186.334 312.232,186.009 312.228 C 185.750 312.225,185.375 312.650,185.176 313.172 M209.722 312.478 C 210.079 312.571,210.662 312.571,211.019 312.478 C 211.375 312.384,211.083 312.308,210.370 312.308 C 209.657 312.308,209.366 312.384,209.722 312.478 M229.083 312.512 C 229.673 313.018,231.547 313.738,231.321 313.373 C 231.206 313.187,230.574 312.848,229.917 312.619 C 229.259 312.390,228.883 312.342,229.083 312.512 M253.210 312.469 C 253.074 312.605,252.966 312.897,252.969 313.117 C 252.972 313.338,253.114 313.299,253.284 313.030 C 254.029 311.855,256.424 312.660,256.939 314.259 C 257.387 315.652,257.404 315.665,257.224 314.480 C 256.926 312.516,254.419 311.260,253.210 312.469 M267.690 312.484 C 268.150 312.573,268.817 312.569,269.171 312.477 C 269.525 312.384,269.148 312.312,268.333 312.316 C 267.519 312.320,267.229 312.396,267.690 312.484 M275.744 312.587 C 275.603 312.815,275.977 312.864,276.741 312.719 C 278.378 312.407,278.520 312.222,277.121 312.222 C 276.488 312.222,275.868 312.386,275.744 312.587 M300.535 312.697 C 300.435 312.957,300.399 316.332,300.455 320.197 L 300.557 327.222 300.742 319.722 C 300.922 312.369,300.904 311.737,300.535 312.697 M86.878 313.545 C 86.742 314.088,86.702 314.603,86.789 314.691 C 86.877 314.778,87.060 314.405,87.196 313.862 C 87.332 313.320,87.372 312.804,87.285 312.717 C 87.197 312.630,87.015 313.002,86.878 313.545 M124.787 312.685 C 124.528 313.556,124.523 314.450,124.777 314.606 C 124.953 314.715,125.078 314.307,125.053 313.699 C 125.015 312.766,124.897 312.316,124.787 312.685 M137.778 319.228 C 137.778 324.059,137.657 325.904,137.334 326.012 C 137.048 326.108,137.103 326.243,137.490 326.391 C 138.029 326.598,138.094 325.911,138.132 319.607 C 138.155 315.749,138.085 312.593,137.976 312.593 C 137.867 312.593,137.778 315.579,137.778 319.228 M146.302 314.167 C 146.305 315.111,146.427 315.552,146.607 315.269 C 146.889 314.825,146.749 312.593,146.439 312.593 C 146.361 312.593,146.299 313.301,146.302 314.167 M171.852 312.963 C 172.157 313.160,172.657 313.322,172.963 313.322 C 173.457 313.322,173.457 313.282,172.963 312.963 C 172.657 312.765,172.157 312.604,171.852 312.604 C 171.358 312.604,171.358 312.644,171.852 312.963 M273.494 314.173 L 272.037 315.740 273.514 314.444 C 274.327 313.731,275.063 313.106,275.150 313.056 C 275.237 313.005,275.228 312.883,275.130 312.785 C 275.032 312.686,274.296 313.311,273.494 314.173 M114.148 313.714 C 113.313 314.492,112.702 316.159,113.104 316.560 C 113.230 316.687,113.333 316.442,113.333 316.016 C 113.333 315.590,113.765 314.729,114.292 314.102 C 115.392 312.796,115.326 312.617,114.148 313.714 M148.672 319.815 C 148.672 323.481,148.727 324.931,148.795 323.037 C 148.862 321.142,148.862 318.142,148.794 316.370 C 148.726 314.598,148.671 316.148,148.672 319.815 M174.065 314.188 C 174.830 315.201,173.060 316.943,171.898 316.321 C 171.465 316.089,171.111 316.053,171.111 316.240 C 171.111 316.880,172.755 317.016,173.623 316.447 C 174.823 315.661,175.034 314.865,174.238 314.138 C 173.598 313.554,173.588 313.557,174.065 314.188 M176.644 315.463 C 176.497 326.880,176.555 327.431,177.892 327.370 C 178.682 327.335,178.680 327.327,177.838 327.090 L 176.972 326.847 177.019 320.275 C 177.046 316.661,176.977 313.704,176.867 313.704 C 176.757 313.704,176.656 314.495,176.644 315.463 M247.089 314.579 C 247.351 315.162,247.632 315.438,247.714 315.191 C 247.796 314.944,247.583 314.467,247.239 314.130 C 246.654 313.558,246.644 313.586,247.089 314.579 M160.111 315.926 C 160.111 317.046,160.180 317.505,160.265 316.944 C 160.350 316.384,160.350 315.468,160.265 314.907 C 160.180 314.347,160.111 314.806,160.111 315.926 M179.731 315.556 C 179.731 316.472,179.803 316.847,179.891 316.389 C 179.979 315.931,179.979 315.181,179.891 314.722 C 179.803 314.264,179.731 314.639,179.731 315.556 M221.601 314.907 C 221.189 315.366,220.718 315.991,220.556 316.296 C 220.244 316.886,220.329 316.805,221.829 315.093 C 222.320 314.532,222.638 314.074,222.537 314.074 C 222.435 314.074,222.014 314.449,221.601 314.907 M96.068 315.349 C 95.955 315.642,95.929 316.184,96.008 316.552 C 96.099 316.971,96.226 316.770,96.346 316.019 C 96.548 314.757,96.416 314.441,96.068 315.349 M101.200 315.397 C 101.316 315.514,101.969 315.677,102.650 315.760 C 103.618 315.879,103.727 315.838,103.148 315.574 C 102.323 315.199,100.869 315.066,101.200 315.397 M117.130 315.567 C 115.951 316.041,116.092 316.322,117.315 315.936 C 119.404 315.275,119.466 315.244,118.704 315.238 C 118.296 315.235,117.588 315.383,117.130 315.567 M128.814 317.706 C 129.019 320.478,129.259 320.661,129.259 318.047 C 129.259 316.904,129.124 315.886,128.958 315.784 C 128.793 315.681,128.728 316.546,128.814 317.706 M131.852 321.296 L 131.852 327.037 130.556 327.037 C 129.843 327.037,129.259 327.204,129.259 327.407 C 129.259 327.877,130.052 327.880,131.272 327.417 L 132.222 327.055 132.222 321.514 L 132.222 315.973 133.426 315.823 C 134.611 315.676,134.608 315.673,133.241 315.615 L 131.852 315.556 131.852 321.296 M140.885 316.084 C 140.463 317.184,140.903 318.332,141.765 318.383 C 142.463 318.424,142.478 318.404,141.858 318.264 C 141.006 318.073,140.781 316.121,141.574 315.801 C 141.937 315.655,141.934 315.608,141.562 315.585 C 141.301 315.569,140.997 315.793,140.885 316.084 M166.814 316.420 C 166.062 317.067,165.964 317.284,166.423 317.284 C 166.761 317.284,167.037 317.087,167.037 316.847 C 167.037 316.606,167.412 316.229,167.870 316.008 C 168.329 315.787,168.505 315.594,168.261 315.581 C 168.018 315.567,167.367 315.944,166.814 316.420 M239.630 318.148 C 239.630 320.569,239.683 320.741,240.441 320.741 C 241.192 320.741,241.204 320.705,240.603 320.266 C 239.315 319.324,239.912 316.116,241.380 316.089 C 243.288 316.054,243.268 315.556,241.358 315.556 L 239.630 315.556 239.630 318.148 M243.853 316.113 C 244.241 316.406,244.693 317.276,244.859 318.045 L 245.161 319.444 245.016 317.817 C 244.880 316.294,244.389 315.559,243.519 315.573 C 243.315 315.576,243.465 315.819,243.853 316.113 M266.667 320.617 C 266.667 323.401,266.784 325.562,266.927 325.419 C 267.070 325.276,267.143 323.092,267.090 320.566 L 266.993 315.973 268.404 315.827 L 269.815 315.680 268.241 315.618 L 266.667 315.556 266.667 320.617 M275.528 316.915 L 274.630 317.903 275.637 317.192 C 276.190 316.801,276.649 316.356,276.655 316.204 C 276.674 315.748,276.471 315.876,275.528 316.915 M183.545 318.730 C 183.409 319.273,183.369 319.788,183.456 319.876 C 183.543 319.963,183.726 319.590,183.862 319.048 C 183.999 318.505,184.039 317.989,183.951 317.902 C 183.864 317.815,183.681 318.187,183.545 318.730 M144.321 318.765 C 144.185 318.901,144.074 319.429,144.074 319.938 C 144.074 321.087,144.339 320.874,144.583 319.529 C 144.774 318.475,144.732 318.354,144.321 318.765 M151.481 320.741 C 151.481 321.827,151.550 322.647,151.633 322.562 C 151.915 322.275,152.009 319.293,151.744 319.028 C 151.600 318.884,151.481 319.654,151.481 320.741 M294.550 319.889 C 294.099 320.357,293.865 320.741,294.030 320.741 C 294.391 320.741,295.739 319.301,295.522 319.146 C 295.439 319.086,295.001 319.420,294.550 319.889 M243.611 319.895 C 243.051 319.980,242.593 320.205,242.593 320.395 C 242.593 320.914,243.469 320.811,244.281 320.197 C 244.676 319.898,244.917 319.673,244.815 319.697 C 244.713 319.721,244.171 319.810,243.611 319.895 M209.175 320.654 C 209.081 321.014,209.133 321.639,209.291 322.043 C 209.509 322.603,209.584 322.447,209.604 321.389 C 209.631 319.901,209.452 319.593,209.175 320.654 M160.127 323.148 C 160.128 324.778,160.193 325.398,160.272 324.527 C 160.350 323.656,160.349 322.323,160.269 321.564 C 160.190 320.806,160.126 321.519,160.127 323.148 M119.250 321.632 C 120.077 321.931,120.626 322.416,120.787 322.993 C 121.024 323.840,121.039 323.845,121.074 323.077 C 121.116 322.150,119.833 321.097,118.714 321.139 C 118.208 321.158,118.382 321.319,119.250 321.632 M140.879 321.654 C 140.765 321.953,140.757 322.412,140.862 322.673 C 140.983 322.976,141.063 322.917,141.082 322.511 C 141.100 322.122,141.580 321.738,142.315 321.525 L 143.519 321.178 142.303 321.145 C 141.552 321.124,141.008 321.319,140.879 321.654 M103.273 322.105 C 103.883 323.250,103.813 323.619,102.935 323.898 C 102.512 324.032,102.248 324.223,102.348 324.323 C 102.448 324.423,102.877 324.318,103.302 324.091 C 104.231 323.594,104.305 322.503,103.458 321.805 C 102.901 321.345,102.883 321.374,103.273 322.105 M224.129 322.593 C 224.875 323.789,227.564 324.806,228.228 324.143 C 228.594 323.776,228.539 323.696,227.955 323.752 C 226.295 323.909,225.470 323.652,224.536 322.685 C 223.600 321.716,223.580 321.711,224.129 322.593 M275.150 322.527 C 275.375 322.948,275.742 323.405,275.965 323.543 C 276.255 323.722,276.254 323.576,275.961 323.028 C 275.736 322.608,275.369 322.151,275.146 322.013 C 274.856 321.833,274.857 321.979,275.150 322.527 M208.148 322.937 C 208.148 323.267,207.618 323.367,206.343 323.276 C 205.214 323.196,204.592 323.290,204.684 323.528 C 204.764 323.736,205.535 323.844,206.396 323.767 C 207.995 323.625,208.855 323.176,208.401 322.722 C 208.262 322.583,208.148 322.680,208.148 322.937 M220.382 322.885 C 220.375 323.147,220.995 323.988,221.759 324.753 C 222.533 325.528,222.719 325.644,222.178 325.016 C 221.645 324.396,221.025 323.556,220.801 323.148 C 220.576 322.741,220.388 322.622,220.382 322.885 M234.074 322.900 C 234.074 323.137,233.455 324.040,232.699 324.906 C 231.393 326.401,231.385 326.425,232.545 325.370 C 233.889 324.149,234.623 323.018,234.289 322.684 C 234.171 322.566,234.074 322.663,234.074 322.900 M95.928 323.700 C 95.505 324.490,96.351 326.296,97.144 326.296 C 97.360 326.296,97.147 325.881,96.670 325.374 C 95.829 324.479,95.824 324.431,96.478 323.708 C 96.849 323.298,96.965 322.963,96.737 322.963 C 96.509 322.963,96.145 323.295,95.928 323.700 M151.582 324.444 C 151.582 325.361,151.655 325.736,151.743 325.278 C 151.831 324.819,151.831 324.069,151.743 323.611 C 151.655 323.153,151.582 323.528,151.582 324.444 M170.948 323.530 C 170.552 323.829,170.395 324.074,170.599 324.074 C 170.803 324.074,171.293 323.829,171.688 323.530 C 172.084 323.231,172.241 322.987,172.037 322.987 C 171.833 322.987,171.343 323.231,170.948 323.530 M200.106 324.630 C 200.109 325.648,200.181 326.021,200.266 325.458 C 200.351 324.895,200.349 324.062,200.261 323.606 C 200.173 323.150,200.103 323.611,200.106 324.630 M87.284 323.951 C 87.148 324.086,87.040 324.378,87.043 324.599 C 87.047 324.870,87.136 324.864,87.320 324.580 C 87.470 324.349,87.926 324.076,88.333 323.975 C 89.050 323.796,89.049 323.788,88.302 323.747 C 87.878 323.723,87.420 323.815,87.284 323.951 M252.969 324.352 C 252.972 324.763,253.074 324.847,253.246 324.580 C 253.396 324.349,253.852 324.076,254.259 323.975 C 254.827 323.833,254.762 323.780,253.981 323.747 C 253.240 323.715,252.965 323.880,252.969 324.352 M272.351 324.382 C 272.688 324.755,272.881 325.172,272.779 325.308 C 272.676 325.444,272.702 325.474,272.836 325.374 C 272.970 325.273,273.345 325.392,273.670 325.637 C 273.994 325.882,273.770 325.548,273.171 324.893 C 272.573 324.239,272.006 323.704,271.910 323.704 C 271.815 323.704,272.013 324.009,272.351 324.382 M113.599 325.563 C 114.255 326.251,114.854 326.739,114.931 326.648 C 115.007 326.556,114.471 325.994,113.739 325.397 L 112.407 324.313 113.599 325.563 M146.421 325.025 C 146.298 325.344,146.370 325.778,146.581 325.988 C 146.844 326.251,146.946 326.070,146.908 325.408 C 146.843 324.298,146.733 324.211,146.421 325.025 M209.322 325.635 C 209.255 327.102,209.928 327.782,211.238 327.572 C 212.499 327.370,212.358 327.037,211.010 327.037 C 209.739 327.037,209.667 326.969,209.529 325.648 L 209.384 324.259 209.322 325.635 M239.630 325.741 C 239.630 327.015,239.603 327.037,238.056 327.061 C 236.733 327.080,236.615 327.138,237.319 327.420 C 238.797 328.014,240.000 327.265,240.000 325.750 C 240.000 325.032,239.917 324.444,239.815 324.444 C 239.713 324.444,239.630 325.028,239.630 325.741 M163.920 325.317 C 164.083 325.744,165.926 326.870,165.926 326.543 C 165.926 326.484,165.431 326.069,164.825 325.622 C 164.177 325.143,163.805 325.017,163.920 325.317 M155.309 325.615 C 155.309 325.906,155.531 326.351,155.802 326.605 C 156.074 326.859,156.296 326.925,156.296 326.752 C 156.296 326.579,156.074 326.134,155.802 325.763 C 155.444 325.272,155.309 325.232,155.309 325.615 M184.785 325.926 C 184.664 326.649,184.346 326.902,183.333 327.081 L 182.037 327.310 183.195 327.359 C 184.492 327.413,185.324 326.671,185.093 325.666 C 184.976 325.159,184.903 325.221,184.785 325.926 M122.037 326.321 C 121.426 326.713,121.116 327.034,121.348 327.035 C 121.580 327.036,122.163 326.709,122.644 326.309 C 123.745 325.391,123.480 325.397,122.037 326.321 M94.444 326.481 C 94.444 326.875,94.038 327.040,93.056 327.048 C 91.974 327.057,91.804 327.140,92.285 327.421 C 93.090 327.890,94.815 327.256,94.815 326.491 C 94.815 326.180,94.731 325.926,94.630 325.926 C 94.528 325.926,94.444 326.176,94.444 326.481 M203.363 326.426 C 203.338 327.005,203.082 327.091,201.714 326.982 C 200.590 326.892,200.145 326.984,200.260 327.283 C 200.362 327.549,200.949 327.650,201.783 327.547 C 203.324 327.356,203.876 326.955,203.589 326.236 C 203.462 325.916,203.381 325.983,203.363 326.426 M252.306 326.504 C 252.123 326.831,251.454 327.098,250.769 327.117 C 249.898 327.142,249.715 327.240,250.119 327.467 C 250.833 327.866,252.420 327.281,252.716 326.510 C 253.005 325.757,252.726 325.753,252.306 326.504 M98.312 326.824 C 98.707 327.145,99.457 327.390,99.978 327.369 C 100.850 327.335,100.834 327.310,99.782 327.058 C 99.154 326.908,98.404 326.663,98.116 326.513 C 97.828 326.364,97.916 326.504,98.312 326.824 M172.092 326.718 C 171.708 326.941,170.288 327.053,168.868 326.973 C 167.473 326.894,166.532 326.957,166.777 327.113 C 167.578 327.623,171.664 327.442,172.429 326.864 C 173.270 326.228,173.078 326.144,172.092 326.718 M260.370 326.605 C 260.370 326.853,259.810 327.037,259.052 327.037 C 258.327 327.037,257.828 327.189,257.943 327.375 C 258.215 327.814,259.934 327.621,260.464 327.091 C 260.691 326.865,260.763 326.565,260.623 326.426 C 260.484 326.287,260.370 326.367,260.370 326.605 M85.000 327.022 C 83.978 327.195,83.700 327.356,84.103 327.540 C 84.662 327.797,86.667 327.265,86.667 326.861 C 86.667 326.754,86.625 326.690,86.574 326.719 C 86.523 326.748,85.815 326.884,85.000 327.022 M103.333 327.037 C 102.571 327.281,102.538 327.339,103.148 327.365 C 103.556 327.382,104.139 327.235,104.444 327.037 C 105.093 326.618,104.643 326.618,103.333 327.037 M115.881 327.140 C 116.060 327.319,116.685 327.406,117.270 327.333 C 118.249 327.211,118.223 327.185,116.945 327.008 C 116.149 326.898,115.695 326.954,115.881 327.140 M228.889 327.037 L 227.593 327.310 228.981 327.359 C 229.745 327.385,230.370 327.241,230.370 327.037 C 230.370 326.833,230.329 326.689,230.278 326.715 C 230.227 326.742,229.602 326.887,228.889 327.037 M109.352 327.437 C 109.792 327.694,110.208 327.694,110.648 327.437 C 111.177 327.129,111.058 327.060,110.000 327.060 C 108.942 327.060,108.823 327.129,109.352 327.437 M140.106 327.311 C 141.285 327.385,143.118 327.384,144.180 327.310 C 145.242 327.235,144.278 327.175,142.037 327.176 C 139.796 327.176,138.927 327.237,140.106 327.311 M149.319 327.419 C 149.707 327.645,150.255 327.650,150.801 327.431 C 151.558 327.127,151.481 327.082,150.185 327.072 C 149.056 327.062,148.850 327.145,149.319 327.419 M157.505 327.303 C 158.068 327.388,158.901 327.386,159.357 327.298 C 159.812 327.210,159.352 327.140,158.333 327.143 C 157.315 327.146,156.942 327.218,157.505 327.303 M190.501 327.458 C 190.980 327.737,191.427 327.741,191.982 327.472 C 192.676 327.136,192.589 327.085,191.296 327.073 C 190.064 327.062,189.930 327.127,190.501 327.458 M215.749 327.508 C 216.146 327.731,216.660 327.719,217.168 327.476 C 217.857 327.146,217.774 327.100,216.544 327.128 C 215.453 327.152,215.269 327.240,215.749 327.508 M245.686 327.458 C 246.165 327.737,246.612 327.741,247.168 327.472 C 247.862 327.136,247.774 327.085,246.481 327.073 C 245.249 327.062,245.115 327.127,245.686 327.458 M264.755 327.431 C 265.301 327.650,265.848 327.645,266.236 327.419 C 266.706 327.145,266.500 327.062,265.370 327.072 C 264.075 327.082,263.997 327.127,264.755 327.431 M277.505 327.303 C 278.068 327.388,278.901 327.386,279.357 327.298 C 279.812 327.210,279.352 327.140,278.333 327.143 C 277.315 327.146,276.942 327.218,277.505 327.303 " stroke="none" fill="#f2f2f3" fill-rule="evenodd"></path><path id="path1" d="M175.926 261.481 L 175.926 264.815 183.721 264.815 L 191.516 264.815 189.795 261.481 L 188.073 258.148 182.000 258.148 L 175.926 258.148 175.926 261.481 M211.574 261.079 C 210.708 262.693,210.000 264.194,210.000 264.414 C 210.000 264.688,212.399 264.815,217.607 264.815 L 225.214 264.815 225.107 261.574 L 225.000 258.333 219.074 258.239 L 213.148 258.144 211.574 261.079 M142.778 265.534 C 134.483 267.571,129.048 277.328,131.308 286.126 C 135.530 302.571,157.371 303.105,162.051 286.878 C 165.645 274.411,154.933 262.548,142.778 265.534 M151.591 269.187 C 162.341 273.943,162.131 290.704,151.270 294.799 C 145.209 297.085,137.996 294.190,135.364 288.415 C 130.078 276.812,140.611 264.331,151.591 269.187 M175.926 275.185 L 175.926 278.519 187.210 278.519 C 197.814 278.519,198.478 278.479,198.223 277.870 C 198.073 277.514,197.327 276.014,196.563 274.537 L 195.176 271.852 185.551 271.852 L 175.926 271.852 175.926 275.185 M204.551 274.531 C 203.786 276.011,203.038 277.514,202.888 277.870 C 202.633 278.479,203.298 278.519,213.915 278.519 L 225.214 278.519 225.107 275.278 L 225.000 272.037 215.471 271.938 L 205.942 271.839 204.551 274.531 M175.926 288.889 L 175.926 292.222 181.481 292.222 L 187.037 292.222 187.037 288.889 L 187.037 285.556 181.481 285.556 L 175.926 285.556 175.926 288.889 M190.377 285.833 C 190.381 285.986,191.098 287.444,191.971 289.074 L 193.559 292.037 200.528 292.037 L 207.497 292.037 209.114 289.074 C 210.004 287.444,210.734 285.986,210.736 285.833 C 210.739 285.681,206.157 285.556,200.556 285.556 C 194.954 285.556,190.373 285.681,190.377 285.833 M214.444 288.899 L 214.444 292.243 219.722 292.140 L 225.000 292.037 225.107 288.796 L 225.214 285.556 219.829 285.556 L 214.444 285.556 214.444 288.899 M176.290 299.198 C 176.088 299.266,175.926 300.792,175.926 302.633 L 175.926 305.946 181.389 305.843 L 186.852 305.741 186.959 302.520 L 187.065 299.299 181.860 299.186 C 178.997 299.125,176.491 299.130,176.290 299.198 M214.404 299.423 C 214.314 299.513,214.282 300.888,214.333 302.478 C 214.384 304.069,214.430 305.500,214.435 305.658 C 214.440 305.817,216.819 305.900,219.722 305.844 L 225.000 305.741 225.107 302.500 L 225.214 299.259 219.891 299.259 C 216.963 299.259,214.494 299.333,214.404 299.423 M87.921 312.876 C 87.518 313.143,83.704 325.511,83.704 326.554 C 83.704 327.988,86.074 326.907,86.706 325.185 C 87.296 323.577,87.376 323.515,88.993 323.407 L 90.669 323.296 91.290 325.166 C 91.837 326.814,94.444 328.204,94.444 326.847 C 94.444 326.743,93.611 323.828,92.593 320.370 C 91.574 316.912,90.741 314.010,90.741 313.920 C 90.741 313.030,88.785 312.306,87.921 312.876 M99.074 313.112 C 96.539 314.231,95.728 316.459,97.109 318.505 C 97.967 319.778,99.029 320.329,102.123 321.111 C 104.079 321.604,104.801 322.696,103.861 323.735 C 102.999 324.687,100.561 324.671,98.970 323.701 C 97.839 323.011,97.694 323.001,96.848 323.555 C 94.751 324.929,98.432 327.239,102.275 326.961 C 108.517 326.510,108.489 319.828,102.240 318.488 C 101.216 318.268,100.002 317.769,99.541 317.378 L 98.704 316.667 99.578 315.926 C 100.554 315.099,102.249 314.975,104.039 315.599 C 105.248 316.020,106.251 315.398,106.285 314.207 C 106.320 312.946,101.209 312.170,99.074 313.112 M109.054 313.068 C 108.526 314.443,109.083 326.844,109.677 326.958 C 111.374 327.284,112.612 314.612,111.037 313.037 C 110.451 312.451,109.283 312.469,109.054 313.068 M115.684 313.354 C 112.212 315.073,113.040 319.722,116.973 320.589 C 120.469 321.360,121.638 322.102,121.205 323.277 C 120.676 324.715,117.410 324.950,115.780 323.668 C 114.853 322.939,114.737 322.929,113.878 323.492 C 110.761 325.534,118.585 328.325,121.782 326.312 C 125.526 323.953,124.106 319.523,119.274 318.487 C 117.080 318.017,115.703 317.041,116.030 316.189 C 116.344 315.372,118.737 314.992,120.541 315.473 C 121.778 315.803,122.149 315.771,122.685 315.286 C 124.922 313.263,119.110 311.659,115.684 313.354 M125.648 312.833 C 123.872 313.570,125.447 315.556,127.808 315.556 L 129.259 315.556 129.259 321.320 L 129.259 327.084 130.463 326.968 L 131.667 326.852 131.769 321.204 L 131.871 315.556 133.436 315.550 C 135.474 315.542,136.013 315.165,135.863 313.849 L 135.741 312.778 130.926 312.709 C 128.278 312.671,125.903 312.727,125.648 312.833 M138.611 312.831 C 138.264 312.976,138.148 314.776,138.148 320.031 L 138.148 327.037 142.222 327.037 L 146.296 327.037 146.296 325.741 L 146.296 324.444 143.519 324.444 L 140.741 324.444 140.741 322.778 L 140.741 321.111 142.407 321.111 C 144.065 321.111,144.074 321.104,144.074 319.815 C 144.074 318.525,144.065 318.519,142.407 318.519 L 140.741 318.519 140.741 317.053 L 140.741 315.588 143.426 315.479 L 146.111 315.370 146.111 314.074 L 146.111 312.778 142.593 312.708 C 140.657 312.670,138.866 312.725,138.611 312.831 M149.529 312.849 C 148.926 313.007,148.881 313.580,148.973 319.936 L 149.074 326.852 150.266 326.967 L 151.458 327.082 151.562 322.708 L 151.667 318.333 154.122 322.593 L 156.577 326.852 158.196 326.852 L 159.815 326.852 159.916 320.027 C 160.023 312.813,159.937 312.408,158.387 312.797 L 157.407 313.043 157.407 317.262 C 157.407 322.417,157.289 322.434,154.577 317.686 C 151.709 312.664,151.395 312.363,149.529 312.849 M166.111 313.484 C 159.375 316.930,161.863 327.037,169.447 327.037 C 171.017 327.037,173.749 326.011,174.223 325.244 C 174.793 324.322,172.601 323.169,171.507 323.815 C 167.617 326.113,163.584 321.578,165.765 317.360 C 166.814 315.332,170.188 314.664,171.878 316.149 C 172.382 316.593,172.595 316.520,173.477 315.599 L 174.495 314.536 173.180 313.724 C 171.092 312.433,168.347 312.340,166.111 313.484 M177.284 312.840 C 177.148 312.975,177.037 316.124,177.037 319.837 C 177.037 327.057,177.133 327.409,178.941 326.835 C 179.915 326.526,180.013 313.189,179.044 312.817 C 178.278 312.523,177.591 312.532,177.284 312.840 M186.069 312.876 C 185.681 313.131,181.852 325.572,181.852 326.574 C 181.852 328.080,184.321 327.016,184.859 325.278 C 185.644 322.739,188.519 322.365,189.273 324.703 C 189.893 326.630,190.286 327.037,191.527 327.037 C 192.846 327.037,192.932 327.762,190.700 320.055 C 188.633 312.917,187.849 311.702,186.069 312.876 M200.952 313.175 C 200.472 313.655,200.371 314.774,200.375 319.563 C 200.382 326.552,200.477 327.037,201.852 327.037 C 203.105 327.037,203.309 326.436,203.361 322.593 L 203.399 319.815 204.200 321.567 C 205.434 324.268,207.412 324.196,208.706 321.403 L 209.601 319.472 209.708 323.162 L 209.815 326.852 211.019 326.968 L 212.222 327.084 212.222 320.048 C 212.222 313.338,212.188 313.002,211.481 312.778 C 209.793 312.242,209.020 313.266,207.035 318.671 C 206.546 320.003,206.315 319.754,204.999 316.481 C 203.556 312.893,202.278 311.849,200.952 313.175 M215.802 312.840 C 215.196 313.446,215.534 326.682,216.161 326.922 C 217.732 327.525,217.958 326.732,218.065 320.230 C 218.179 313.289,217.516 311.125,215.802 312.840 M225.046 313.137 C 216.299 316.255,220.929 329.599,229.748 326.689 C 233.117 325.577,236.090 320.158,234.043 318.862 C 233.379 318.441,229.237 318.427,228.581 318.842 C 227.373 319.608,228.239 321.285,229.944 321.481 L 231.555 321.667 230.790 322.635 C 229.074 324.807,225.982 324.943,224.282 322.922 C 221.471 319.582,224.481 314.276,228.488 315.506 C 229.550 315.832,229.901 315.795,230.446 315.302 C 232.505 313.438,228.596 311.871,225.046 313.137 M236.850 313.019 C 236.740 313.307,236.695 316.538,236.750 320.198 L 236.852 326.852 238.148 326.852 C 239.434 326.852,239.445 326.837,239.558 325.075 L 239.672 323.298 241.734 323.408 L 243.796 323.519 244.444 325.185 C 245.027 326.685,245.224 326.863,246.421 326.966 L 247.751 327.080 247.170 325.114 C 246.850 324.033,246.519 323.033,246.434 322.893 C 246.350 322.752,246.616 322.085,247.028 321.411 C 248.603 318.828,247.781 314.671,245.457 313.465 C 243.804 312.608,237.140 312.263,236.850 313.019 M253.835 312.876 C 253.429 313.136,249.630 325.510,249.630 326.571 C 249.630 327.989,252.006 326.892,252.632 325.185 C 253.222 323.577,253.302 323.515,254.919 323.407 L 256.595 323.296 257.216 325.166 C 257.801 326.928,257.911 327.037,259.104 327.037 C 260.648 327.037,260.723 327.775,258.372 319.871 C 256.256 312.755,255.600 311.744,253.835 312.876 M260.144 313.121 C 259.547 314.677,260.122 315.369,262.037 315.402 L 263.889 315.433 264.074 321.142 L 264.259 326.852 265.370 326.852 L 266.481 326.852 266.584 321.223 L 266.686 315.594 268.621 315.482 C 270.686 315.363,271.402 314.391,270.353 313.128 C 269.709 312.352,260.442 312.346,260.144 313.121 M275.370 313.482 C 268.327 316.837,271.148 327.460,278.947 326.947 C 286.120 326.476,288.107 316.735,281.687 313.512 C 279.396 312.362,277.737 312.355,275.370 313.482 M287.870 312.838 C 287.523 312.978,287.407 314.772,287.407 320.031 L 287.407 327.037 288.704 327.037 L 290.000 327.037 290.000 325.185 L 290.000 323.333 292.130 323.342 L 294.259 323.351 295.069 325.194 C 295.787 326.827,296.008 327.037,297.013 327.037 C 298.352 327.037,298.353 327.032,297.432 324.511 C 296.718 322.559,296.719 322.547,297.474 321.266 C 298.593 319.371,298.319 315.558,296.968 314.207 C 295.667 312.906,289.866 312.032,287.870 312.838 M301.389 312.844 C 300.432 313.100,300.393 326.454,301.348 326.821 C 303.243 327.548,303.357 327.120,303.249 319.699 C 303.142 312.376,303.142 312.375,301.389 312.844 M309.775 312.876 C 309.549 313.026,308.984 314.481,308.519 316.111 C 308.054 317.741,307.282 320.315,306.803 321.832 C 305.251 326.749,305.244 327.112,306.713 326.971 C 307.846 326.863,308.015 326.688,308.519 325.095 L 309.074 323.337 310.804 323.335 L 312.533 323.333 313.148 325.185 C 313.723 326.917,313.844 327.037,315.005 327.037 C 316.510 327.037,316.564 327.509,314.109 319.303 C 312.147 312.745,311.475 311.749,309.775 312.876 M244.722 316.009 C 245.283 316.466,245.333 319.031,244.802 320.024 C 244.483 320.619,244.012 320.741,242.024 320.741 L 239.630 320.741 239.630 318.179 C 239.630 316.770,239.795 315.562,239.998 315.494 C 240.720 315.251,244.268 315.639,244.722 316.009 M280.168 315.710 C 284.692 317.600,282.871 324.881,278.019 324.304 C 273.538 323.772,272.812 317.287,277.045 315.599 C 278.313 315.092,278.726 315.107,280.168 315.710 M295.184 316.109 C 296.932 318.216,295.394 320.741,292.362 320.741 L 290.000 320.741 290.000 318.148 L 290.000 315.556 292.362 315.556 C 294.006 315.556,294.864 315.724,295.184 316.109 M89.972 320.463 C 89.987 320.616,89.583 320.741,89.074 320.741 C 88.021 320.741,87.981 320.590,88.582 318.865 L 89.017 317.619 89.480 318.902 C 89.735 319.608,89.956 320.310,89.972 320.463 M188.120 320.463 C 188.135 320.616,187.720 320.741,187.197 320.741 C 186.387 320.741,186.282 320.617,186.486 319.907 C 186.618 319.449,186.821 318.741,186.938 318.333 C 187.131 317.660,187.993 319.213,188.120 320.463 M255.098 320.678 C 254.049 320.857,253.946 320.580,254.478 319.006 L 254.955 317.593 255.385 319.074 C 255.779 320.429,255.754 320.566,255.098 320.678 M311.824 320.463 C 311.839 320.616,311.435 320.741,310.926 320.741 C 309.888 320.741,309.760 320.191,310.448 318.682 L 310.896 317.699 311.346 318.942 C 311.593 319.626,311.808 320.310,311.824 320.463 " stroke="none" fill="#ca243a" fill-rule="evenodd"></path><path id="path2" d="M188.889 73.865 C 163.986 76.765,142.109 88.079,127.072 105.833 L 125.112 108.148 162.389 108.148 C 202.841 108.148,200.977 108.055,202.352 110.153 C 203.123 111.330,203.140 113.657,202.385 114.735 C 200.968 116.757,202.976 116.667,159.364 116.667 L 119.062 116.667 117.793 118.606 C 116.594 120.437,111.852 129.366,111.852 129.792 C 111.852 129.901,129.098 130.034,150.177 130.087 L 188.502 130.185 189.477 131.160 C 191.429 133.112,191.081 136.389,188.773 137.796 C 187.624 138.497,186.551 138.516,148.046 138.517 L 108.500 138.519 108.109 139.537 C 107.284 141.686,104.444 153.288,104.444 154.511 C 104.444 154.678,108.403 154.815,113.241 154.816 C 121.260 154.817,122.140 154.880,123.203 155.528 C 125.627 157.007,125.627 160.771,123.203 162.250 C 122.134 162.901,121.250 162.960,112.533 162.962 L 103.029 162.963 102.771 166.063 C 102.502 169.298,103.050 181.835,103.493 182.551 C 103.668 182.834,106.393 182.963,112.190 182.963 C 121.704 182.963,122.241 183.117,122.783 186.011 C 123.569 190.200,121.687 191.111,112.241 191.111 C 108.156 191.111,104.815 191.188,104.815 191.282 C 104.815 192.699,107.450 201.483,109.070 205.463 L 109.710 207.037 111.747 207.037 C 113.560 207.037,113.748 207.108,113.466 207.685 C 111.015 212.700,117.331 221.050,122.570 219.720 C 124.383 219.260,124.245 219.065,125.014 223.162 C 125.941 228.106,125.237 231.252,122.362 235.025 C 119.315 239.024,119.785 244.414,123.462 247.650 C 128.349 251.952,135.095 250.008,138.002 243.460 C 138.468 242.409,139.028 241.439,139.246 241.305 C 139.463 241.170,139.560 240.928,139.461 240.768 C 139.362 240.607,140.763 240.505,142.574 240.541 C 146.737 240.623,148.037 241.377,149.452 244.529 C 153.606 253.782,164.066 252.761,167.200 242.796 L 167.847 240.741 185.944 240.741 L 204.041 240.741 204.285 242.046 C 206.396 253.294,224.003 254.124,227.655 243.148 L 228.395 240.926 239.893 240.828 L 251.391 240.730 251.799 242.351 C 253.859 250.531,264.522 253.370,271.124 247.498 C 274.758 244.265,275.984 239.579,274.666 233.958 C 273.588 229.361,274.015 227.956,276.358 228.404 C 277.706 228.662,281.027 227.638,282.592 226.483 C 286.577 223.540,286.838 219.135,283.422 212.509 C 281.134 208.070,282.220 206.492,287.111 207.148 C 288.933 207.393,290.181 206.971,290.743 205.922 C 291.210 205.049,295.185 192.163,295.185 191.521 C 295.185 191.235,292.993 191.111,287.939 191.111 C 280.501 191.111,279.876 191.008,278.241 189.519 C 277.295 188.657,277.117 186.598,277.850 184.990 C 278.686 183.154,279.652 182.963,288.084 182.963 C 294.554 182.963,295.912 182.870,296.301 182.402 C 296.817 181.780,297.336 165.688,296.897 163.936 L 296.653 162.963 284.476 162.963 L 272.299 162.963 271.149 161.654 C 269.586 159.873,269.561 157.911,271.080 156.210 L 272.161 155.000 283.861 154.892 L 295.562 154.785 295.377 153.967 C 295.275 153.516,294.926 151.821,294.601 150.198 C 284.884 101.604,238.474 68.092,188.889 73.865 M209.342 88.519 C 210.072 89.608,210.519 89.867,212.142 90.145 C 214.278 90.509,214.405 90.763,213.450 92.765 C 212.865 93.993,212.865 94.156,213.450 95.383 C 214.521 97.629,214.328 98.148,212.422 98.148 C 210.725 98.148,209.523 98.955,209.064 100.401 C 208.654 101.694,207.815 101.484,206.657 99.800 C 205.596 98.259,205.409 98.148,203.859 98.148 C 201.833 98.148,201.537 97.615,202.510 95.719 C 203.215 94.345,203.215 94.315,202.467 92.545 C 201.573 90.428,201.584 90.411,204.024 90.122 C 205.070 89.998,205.926 89.766,205.926 89.606 C 205.926 89.128,207.846 86.997,208.172 87.114 C 208.338 87.174,208.865 87.806,209.342 88.519 M241.808 95.833 L 244.104 99.074 248.032 99.444 C 253.193 99.931,253.279 100.061,251.197 104.257 C 249.268 108.148,249.268 108.300,251.178 112.321 C 253.159 116.489,253.039 116.664,247.890 117.079 C 245.893 117.240,244.229 117.380,244.192 117.389 C 244.155 117.399,243.115 118.805,241.882 120.514 C 238.686 124.940,238.703 124.942,235.411 120.107 C 233.406 117.162,233.906 117.376,227.891 116.891 C 224.601 116.626,224.505 116.214,226.667 111.622 C 227.481 109.891,228.148 108.314,228.148 108.118 C 228.148 107.922,227.481 106.435,226.667 104.815 C 224.304 100.116,224.483 99.813,229.842 99.436 L 233.573 99.173 234.842 97.302 C 238.816 91.445,238.715 91.466,241.808 95.833 M220.221 129.326 C 226.956 131.537,230.176 139.810,226.755 146.114 C 222.199 154.511,209.598 154.271,205.680 145.712 C 201.215 135.960,210.062 125.991,220.221 129.326 M260.720 133.611 C 261.262 134.251,261.819 134.444,263.120 134.444 C 265.002 134.444,265.251 134.931,264.259 136.667 C 263.578 137.858,263.583 139.254,264.271 140.163 C 265.313 141.541,264.970 142.131,262.967 142.407 C 261.402 142.622,260.944 142.883,259.973 144.108 C 258.558 145.895,258.471 145.895,257.291 144.112 C 256.452 142.843,256.107 142.636,254.464 142.410 C 252.380 142.123,252.250 141.854,253.217 139.827 C 253.802 138.600,253.802 138.437,253.217 137.210 C 252.159 134.991,252.346 134.445,254.167 134.439 C 256.003 134.432,256.140 134.352,257.564 132.443 L 258.642 130.998 259.329 131.888 C 259.706 132.377,260.332 133.153,260.720 133.611 M148.965 151.316 C 153.921 153.005,156.888 158.724,155.423 163.764 C 152.236 174.726,135.807 173.352,134.909 162.048 C 134.290 154.242,141.467 148.762,148.965 151.316 M223.173 155.957 C 234.970 158.112,242.024 168.891,245.525 190.108 C 247.797 203.877,247.141 207.077,242.023 207.188 C 238.549 207.263,237.971 206.092,236.462 195.926 C 234.959 185.805,231.126 172.251,230.338 174.269 C 230.181 174.671,230.040 183.024,230.026 192.831 C 229.992 216.434,228.872 225.856,224.258 241.371 C 222.481 247.349,215.028 249.357,210.568 245.061 C 208.649 243.212,208.301 242.145,205.599 229.815 C 202.405 215.235,202.230 213.175,202.225 190.013 C 202.223 175.130,202.167 173.600,201.647 174.120 C 200.233 175.534,197.364 185.724,195.566 195.719 C 194.097 203.884,193.224 205.112,189.165 204.722 C 184.434 204.267,184.242 198.947,188.358 182.297 C 193.597 161.103,204.829 152.606,223.173 155.957 M267.319 173.758 C 273.081 176.521,273.857 185.168,268.696 189.105 C 261.681 194.456,251.941 188.227,254.048 179.739 C 255.487 173.946,261.789 171.106,267.319 173.758 M151.111 175.638 C 154.747 176.727,157.387 178.912,163.991 186.296 L 168.462 191.296 174.641 194.444 C 182.421 198.408,183.540 199.683,182.239 203.105 C 181.026 206.295,178.305 206.101,170.786 202.286 C 162.510 198.088,162.417 198.020,158.085 193.019 C 155.981 190.590,154.209 188.647,154.148 188.702 C 154.088 188.757,156.083 195.910,158.583 204.598 C 163.768 222.616,163.692 221.606,159.869 221.776 C 156.885 221.909,156.904 221.036,159.675 230.556 C 163.448 243.519,163.206 242.371,162.487 243.878 C 160.900 247.206,155.894 247.605,154.304 244.531 C 154.016 243.974,152.411 238.935,150.738 233.333 C 149.064 227.731,147.541 222.856,147.353 222.500 C 146.640 221.150,142.963 222.214,142.963 223.771 C 142.963 224.722,133.147 243.660,132.200 244.537 C 129.863 246.699,126.323 245.631,124.953 242.351 C 124.230 240.622,124.405 240.149,129.504 230.024 C 133.921 221.252,133.717 221.929,131.982 221.782 C 129.916 221.606,129.708 220.925,130.621 217.332 C 131.050 215.642,132.315 210.676,133.432 206.296 C 136.504 194.247,136.472 194.211,131.561 204.144 C 126.182 215.021,125.382 215.919,122.043 214.817 C 117.357 213.270,118.943 208.208,131.039 186.111 C 136.186 176.711,142.935 173.189,151.111 175.638 M265.630 194.494 C 271.219 195.689,272.101 196.958,280.733 216.218 C 282.746 220.709,282.154 223.172,278.889 223.889 C 276.290 224.460,275.437 223.308,271.286 213.625 C 270.088 210.831,269.048 208.606,268.974 208.681 C 268.900 208.755,269.182 213.540,269.602 219.315 C 271.223 241.635,271.159 242.780,268.153 245.310 C 264.759 248.165,258.624 247.251,256.514 243.575 L 255.630 242.037 256.123 228.704 C 256.394 221.370,256.693 213.663,256.786 211.577 C 256.990 207.044,257.136 206.993,253.112 212.882 C 248.032 220.316,246.094 221.623,243.793 219.167 C 241.469 216.686,241.612 216.272,248.240 206.296 C 255.807 194.908,258.624 192.996,265.630 194.494 M192.604 208.056 C 193.345 208.721,193.901 209.716,194.207 210.926 C 194.560 212.323,194.863 212.805,195.439 212.890 C 197.732 213.227,197.963 214.151,197.963 222.977 C 197.963 233.139,198.856 232.195,189.237 232.210 C 179.710 232.226,180.585 233.076,180.441 223.663 C 180.294 214.083,180.624 212.963,183.588 212.963 C 184.713 212.963,184.815 212.868,184.815 211.815 C 184.815 210.939,185.752 208.177,186.061 208.143 C 186.088 208.140,186.778 207.897,187.593 207.603 C 189.909 206.769,191.312 206.895,192.604 208.056 M188.381 210.936 C 187.956 212.042,188.135 212.222,189.655 212.222 C 191.007 212.222,191.150 212.136,191.044 211.389 C 190.894 210.330,188.753 209.966,188.381 210.936 M142.037 256.450 C 121.101 260.536,113.607 286.036,129.047 300.652 C 145.989 316.688,173.523 304.068,172.489 280.741 C 171.795 265.083,157.249 253.480,142.037 256.450 M96.481 258.332 C 79.854 262.867,82.217 281.784,99.815 285.014 C 108.286 286.569,111.852 288.703,111.852 292.218 C 111.852 298.774,98.061 299.825,91.969 293.734 C 90.099 291.864,90.559 291.799,86.637 294.485 C 82.687 297.190,82.745 296.793,85.851 299.899 C 95.213 309.262,113.564 308.452,118.900 298.442 C 123.986 288.901,117.278 279.434,103.718 277.013 C 96.653 275.752,93.140 273.303,93.922 270.185 C 95.027 265.783,108.048 265.028,113.545 269.048 C 114.360 269.643,114.817 269.203,117.658 265.088 C 119.653 262.197,119.737 262.396,115.682 260.380 C 110.724 257.915,101.583 256.940,96.481 258.332 M248.333 258.358 C 245.270 258.961,240.417 261.265,238.333 263.105 L 236.852 264.414 253.333 264.415 L 269.815 264.417 268.333 263.140 C 263.387 258.880,255.392 256.968,248.333 258.358 M292.298 258.354 C 275.786 262.799,278.265 281.796,295.777 285.019 C 304.333 286.594,307.768 288.640,307.775 292.165 C 307.789 298.877,293.882 299.845,287.771 293.557 C 287.062 292.827,286.340 292.228,286.168 292.226 C 285.895 292.223,280.393 295.910,279.485 296.705 C 278.219 297.812,285.439 303.412,290.229 305.037 C 303.266 309.461,316.319 303.208,316.356 292.521 C 316.386 284.166,310.471 278.810,299.074 276.871 C 291.657 275.609,287.538 271.524,290.828 268.694 C 291.365 268.232,291.732 267.781,291.643 267.692 C 291.554 267.604,291.690 267.511,291.944 267.486 C 292.199 267.462,293.324 267.173,294.444 266.845 C 298.489 265.659,305.853 266.630,309.064 268.772 C 310.279 269.582,310.567 269.381,312.920 266.083 C 315.717 262.161,315.762 262.520,312.261 260.760 C 306.570 257.899,297.881 256.852,292.298 258.354 M153.682 260.200 C 166.873 264.367,173.423 279.770,167.222 292.037 C 156.276 313.692,123.855 305.921,123.958 281.667 C 124.024 266.410,139.030 255.572,153.682 260.200 M230.771 273.522 C 230.351 274.645,229.900 276.233,229.769 277.052 L 229.531 278.541 234.421 278.437 L 239.311 278.333 239.961 276.413 C 240.318 275.356,241.059 273.815,241.607 272.987 L 242.603 271.481 237.069 271.481 L 231.535 271.481 230.771 273.522 M265.181 273.202 C 265.781 274.148,266.541 275.731,266.870 276.720 L 267.467 278.519 272.299 278.519 L 277.132 278.519 276.895 277.041 C 276.765 276.228,276.316 274.645,275.896 273.522 L 275.132 271.481 269.611 271.481 L 264.090 271.481 265.181 273.202 M145.297 275.747 L 143.859 278.704 140.963 279.146 C 137.266 279.711,137.306 279.603,139.905 282.008 L 142.116 284.056 141.596 287.071 C 140.960 290.752,140.837 290.636,143.730 289.078 C 146.668 287.494,146.663 287.494,149.722 289.064 C 152.555 290.518,152.478 290.603,151.807 286.752 L 151.392 284.369 153.694 282.047 L 155.995 279.725 154.757 279.505 C 154.076 279.384,152.628 279.172,151.540 279.035 L 149.561 278.784 148.148 275.787 L 146.735 272.790 145.297 275.747 M251.751 276.111 C 250.670 278.296,250.204 278.889,249.570 278.889 C 249.127 278.889,247.683 279.077,246.361 279.307 L 243.958 279.726 246.323 281.847 L 248.687 283.969 248.233 286.621 C 247.540 290.658,247.424 290.539,250.556 288.990 L 253.333 287.615 256.111 288.990 C 257.832 289.841,258.889 290.189,258.888 289.904 C 258.888 289.651,258.659 288.245,258.380 286.778 L 257.871 284.112 260.085 281.986 C 262.601 279.569,262.589 279.545,258.589 279.082 L 256.252 278.811 254.896 276.072 C 253.245 272.734,253.423 272.732,251.751 276.111 M229.760 286.963 C 229.886 287.749,230.347 289.254,230.784 290.307 L 231.580 292.222 237.112 292.222 L 242.643 292.222 241.814 291.058 C 241.358 290.418,240.606 288.960,240.142 287.818 L 239.298 285.741 234.415 285.637 L 229.531 285.533 229.760 286.963 M267.165 286.204 C 266.595 287.885,265.089 290.974,264.546 291.574 C 263.965 292.216,264.166 292.238,269.601 292.140 L 275.260 292.037 275.934 290.262 C 276.304 289.286,276.718 287.828,276.854 287.022 L 277.102 285.556 272.243 285.556 C 267.946 285.556,267.359 285.631,267.165 286.204 M237.731 300.282 C 246.727 307.583,258.952 307.882,268.036 301.023 C 269.116 300.208,270.000 299.477,270.000 299.400 C 270.000 299.323,262.458 299.261,253.241 299.263 L 236.481 299.267 237.731 300.282 " stroke="none" fill="#1e3362" fill-rule="evenodd"></path><path id="path3" d="M268.519 101.667 C 269.210 102.380,269.858 102.963,269.960 102.963 C 270.062 102.963,269.580 102.380,268.889 101.667 C 268.198 100.954,267.549 100.370,267.447 100.370 C 267.345 100.370,267.827 100.954,268.519 101.667 M297.162 168.519 C 297.162 170.046,297.227 170.671,297.307 169.907 C 297.387 169.144,297.387 167.894,297.307 167.130 C 297.227 166.366,297.162 166.991,297.162 168.519 M262.315 172.848 C 262.671 172.941,263.255 172.941,263.611 172.848 C 263.968 172.755,263.676 172.679,262.963 172.679 C 262.250 172.679,261.958 172.755,262.315 172.848 M102.679 174.815 C 102.679 175.528,102.755 175.819,102.848 175.463 C 102.941 175.106,102.941 174.523,102.848 174.167 C 102.755 173.810,102.679 174.102,102.679 174.815 M296.768 179.630 C 296.768 180.546,296.840 180.921,296.928 180.463 C 297.016 180.005,297.016 179.255,296.928 178.796 C 296.840 178.338,296.768 178.713,296.768 179.630 M202.390 195.185 C 202.390 202.620,202.439 205.662,202.499 201.944 C 202.560 198.227,202.560 192.144,202.499 188.426 C 202.439 184.708,202.390 187.750,202.390 195.185 M110.556 207.225 C 111.421 207.526,113.704 207.605,113.704 207.333 C 113.704 207.170,112.912 207.050,111.944 207.066 C 110.977 207.082,110.352 207.154,110.556 207.225 M284.907 207.302 C 285.468 207.387,286.384 207.387,286.944 207.302 C 287.505 207.217,287.046 207.148,285.926 207.148 C 284.806 207.148,284.347 207.217,284.907 207.302 M256.753 210.741 C 256.753 211.454,256.829 211.745,256.922 211.389 C 257.015 211.032,257.015 210.449,256.922 210.093 C 256.829 209.736,256.753 210.028,256.753 210.741 M188.796 212.484 C 189.255 212.572,190.005 212.572,190.463 212.484 C 190.921 212.395,190.546 212.323,189.630 212.323 C 188.713 212.323,188.338 212.395,188.796 212.484 M180.485 217.222 C 180.487 218.444,180.556 218.900,180.639 218.234 C 180.721 217.568,180.720 216.568,180.635 216.012 C 180.551 215.455,180.483 216.000,180.485 217.222 M197.933 222.963 C 197.933 226.935,197.987 228.560,198.054 226.574 C 198.120 224.588,198.120 221.338,198.054 219.352 C 197.987 217.366,197.933 218.991,197.933 222.963 M256.390 220.926 C 256.394 221.741,256.470 222.030,256.558 221.570 C 256.647 221.109,256.643 220.442,256.551 220.088 C 256.458 219.734,256.386 220.111,256.390 220.926 M256.019 231.296 C 256.023 232.111,256.099 232.401,256.188 231.940 C 256.276 231.479,256.273 230.813,256.180 230.459 C 256.088 230.105,256.015 230.481,256.019 231.296 M270.471 235.556 C 270.471 236.472,270.543 236.847,270.632 236.389 C 270.720 235.931,270.720 235.181,270.632 234.722 C 270.543 234.264,270.471 234.639,270.471 235.556 M255.641 241.111 C 255.641 241.824,255.718 242.116,255.811 241.759 C 255.904 241.403,255.904 240.819,255.811 240.463 C 255.718 240.106,255.641 240.398,255.641 241.111 M140.833 240.626 C 141.190 240.719,141.773 240.719,142.130 240.626 C 142.486 240.533,142.194 240.456,141.481 240.456 C 140.769 240.456,140.477 240.533,140.833 240.626 M101.759 257.675 C 102.421 257.757,103.505 257.757,104.167 257.675 C 104.829 257.593,104.287 257.526,102.963 257.526 C 101.639 257.526,101.097 257.593,101.759 257.675 M297.685 257.675 C 298.347 257.757,299.431 257.757,300.093 257.675 C 300.755 257.593,300.213 257.526,298.889 257.526 C 297.565 257.526,297.023 257.593,297.685 257.675 M146.024 259.155 C 146.587 259.240,147.420 259.238,147.875 259.150 C 148.331 259.062,147.870 258.992,146.852 258.995 C 145.833 258.998,145.461 259.070,146.024 259.155 M236.914 263.951 C 236.778 264.086,236.667 264.336,236.667 264.506 C 236.667 264.676,244.208 264.775,253.426 264.726 L 270.185 264.637 253.592 264.537 C 242.764 264.472,237.077 264.309,237.225 264.070 C 237.482 263.654,237.285 263.579,236.914 263.951 M161.852 264.931 C 161.852 264.994,162.394 265.536,163.056 266.134 L 164.259 267.222 163.171 266.019 C 162.157 264.896,161.852 264.645,161.852 264.931 M123.810 282.037 C 123.812 283.056,123.884 283.428,123.969 282.865 C 124.055 282.302,124.052 281.469,123.964 281.013 C 123.877 280.558,123.807 281.019,123.810 282.037 M259.980 282.130 L 258.704 283.519 260.093 282.242 C 261.385 281.054,261.652 280.741,261.369 280.741 C 261.307 280.741,260.682 281.366,259.980 282.130 M247.037 282.778 C 247.728 283.491,248.377 284.074,248.479 284.074 C 248.580 284.074,248.098 283.491,247.407 282.778 C 246.716 282.065,246.068 281.481,245.966 281.481 C 245.864 281.481,246.346 282.065,247.037 282.778 M120.464 292.407 C 120.468 293.222,120.544 293.512,120.632 293.051 C 120.721 292.591,120.718 291.924,120.625 291.570 C 120.532 291.216,120.460 291.593,120.464 292.407 M128.333 300.370 C 129.337 301.389,130.241 302.222,130.343 302.222 C 130.444 302.222,129.707 301.389,128.704 300.370 C 127.701 299.352,126.796 298.519,126.695 298.519 C 126.593 298.519,127.330 299.352,128.333 300.370 " stroke="none" fill="#646c84" fill-rule="evenodd"></path><path id="path4" d="M198.254 73.237 C 199.433 73.311,201.266 73.310,202.328 73.236 C 203.390 73.161,202.426 73.101,200.185 73.102 C 197.944 73.102,197.076 73.163,198.254 73.237 M271.111 104.259 C 271.802 104.972,272.451 105.556,272.553 105.556 C 272.655 105.556,272.173 104.972,271.481 104.259 C 270.790 103.546,270.142 102.963,270.040 102.963 C 269.938 102.963,270.420 103.546,271.111 104.259 M143.426 108.426 C 153.764 108.481,170.681 108.481,181.019 108.426 C 191.356 108.371,182.898 108.326,162.222 108.326 C 141.546 108.326,133.088 108.371,143.426 108.426 M215.467 128.780 C 215.928 128.869,216.595 128.866,216.949 128.773 C 217.303 128.680,216.926 128.608,216.111 128.612 C 215.296 128.616,215.007 128.692,215.467 128.780 M127.870 138.426 C 138.819 138.480,156.736 138.480,167.685 138.426 C 178.634 138.371,169.676 138.327,147.778 138.327 C 125.880 138.327,116.921 138.371,127.870 138.426 M204.550 140.556 C 204.553 141.574,204.625 141.947,204.710 141.384 C 204.795 140.821,204.793 139.987,204.705 139.532 C 204.617 139.076,204.548 139.537,204.550 140.556 M104.409 154.929 C 104.574 155.093,105.608 155.174,106.706 155.109 L 108.704 154.990 106.406 154.810 C 105.142 154.711,104.243 154.764,104.409 154.929 M278.796 155.092 C 281.903 155.154,286.986 155.154,290.093 155.092 C 293.199 155.030,290.657 154.979,284.444 154.979 C 278.231 154.979,275.690 155.030,278.796 155.092 M217.685 155.823 C 218.347 155.906,219.431 155.906,220.093 155.823 C 220.755 155.741,220.213 155.674,218.889 155.674 C 217.565 155.674,217.023 155.741,217.685 155.823 M155.641 161.111 C 155.641 161.824,155.718 162.116,155.811 161.759 C 155.904 161.403,155.904 160.819,155.811 160.463 C 155.718 160.106,155.641 160.398,155.641 161.111 M234.074 162.037 C 234.765 162.750,235.414 163.333,235.516 163.333 C 235.618 163.333,235.135 162.750,234.444 162.037 C 233.753 161.324,233.105 160.741,233.003 160.741 C 232.901 160.741,233.383 161.324,234.074 162.037 M297.143 172.778 C 297.146 173.796,297.218 174.169,297.303 173.606 C 297.388 173.043,297.386 172.210,297.298 171.754 C 297.210 171.299,297.140 171.759,297.143 172.778 M202.361 177.963 C 202.362 180.204,202.423 181.073,202.496 179.894 C 202.570 178.715,202.569 176.882,202.495 175.820 C 202.420 174.758,202.360 175.722,202.361 177.963 M135.536 179.537 L 134.259 180.926 135.648 179.650 C 136.412 178.948,137.037 178.323,137.037 178.261 C 137.037 177.978,136.724 178.244,135.536 179.537 M271.958 181.667 C 271.961 182.685,272.032 183.058,272.118 182.495 C 272.203 181.932,272.200 181.099,272.113 180.643 C 272.025 180.188,271.955 180.648,271.958 181.667 M253.790 181.852 C 253.790 182.565,253.866 182.856,253.959 182.500 C 254.052 182.144,254.052 181.560,253.959 181.204 C 253.866 180.847,253.790 181.139,253.790 181.852 M159.630 181.968 C 159.630 182.031,160.171 182.573,160.833 183.171 L 162.037 184.259 160.949 183.056 C 159.935 181.934,159.630 181.682,159.630 181.968 M262.315 194.329 C 262.671 194.423,263.255 194.423,263.611 194.329 C 263.968 194.236,263.676 194.160,262.963 194.160 C 262.250 194.160,261.958 194.236,262.315 194.329 M254.054 198.056 L 252.778 199.444 254.167 198.168 C 255.459 196.980,255.726 196.667,255.443 196.667 C 255.381 196.667,254.756 197.292,254.054 198.056 M229.731 209.630 C 229.731 210.546,229.803 210.921,229.891 210.463 C 229.979 210.005,229.979 209.255,229.891 208.796 C 229.803 208.338,229.731 208.713,229.731 209.630 M256.773 213.519 C 256.775 214.537,256.847 214.910,256.932 214.347 C 257.018 213.784,257.015 212.950,256.927 212.495 C 256.839 212.039,256.770 212.500,256.773 213.519 M268.975 214.074 C 268.975 214.787,269.051 215.079,269.144 214.722 C 269.237 214.366,269.237 213.782,269.144 213.426 C 269.051 213.069,268.975 213.361,268.975 214.074 M180.518 224.630 C 180.519 227.685,180.576 228.886,180.646 227.298 C 180.716 225.710,180.715 223.210,180.645 221.742 C 180.575 220.275,180.518 221.574,180.518 224.630 M158.056 221.749 C 158.718 221.832,159.801 221.832,160.463 221.749 C 161.125 221.667,160.583 221.600,159.259 221.600 C 157.935 221.600,157.394 221.667,158.056 221.749 M256.397 223.704 C 256.397 224.620,256.469 224.995,256.558 224.537 C 256.646 224.079,256.646 223.329,256.558 222.870 C 256.469 222.412,256.397 222.787,256.397 223.704 M125.286 226.667 C 125.286 227.583,125.358 227.958,125.447 227.500 C 125.535 227.042,125.535 226.292,125.447 225.833 C 125.358 225.375,125.286 225.750,125.286 226.667 M256.019 233.889 C 256.023 234.704,256.099 234.993,256.188 234.533 C 256.276 234.072,256.273 233.405,256.180 233.051 C 256.088 232.697,256.015 233.074,256.019 233.889 M270.471 238.519 C 270.471 239.435,270.543 239.810,270.632 239.352 C 270.720 238.894,270.720 238.144,270.632 237.685 C 270.543 237.227,270.471 237.602,270.471 238.519 M275.286 238.519 C 275.286 239.435,275.358 239.810,275.447 239.352 C 275.535 238.894,275.535 238.144,275.447 237.685 C 275.358 237.227,275.286 237.602,275.286 238.519 M175.720 261.667 L 175.741 265.000 183.611 265.011 L 191.482 265.023 183.718 264.911 L 175.954 264.800 175.826 261.567 L 175.699 258.333 175.720 261.667 M225.261 261.382 L 225.185 264.800 217.315 264.908 L 209.444 265.016 217.326 265.100 C 226.393 265.198,225.643 265.569,225.462 261.080 L 225.336 257.963 225.261 261.382 M128.148 263.519 C 127.249 264.435,126.596 265.185,126.698 265.185 C 126.799 265.185,127.619 264.435,128.519 263.519 C 129.418 262.602,130.071 261.852,129.969 261.852 C 129.867 261.852,129.048 262.602,128.148 263.519 M146.019 265.070 C 146.375 265.163,146.958 265.163,147.315 265.070 C 147.671 264.977,147.380 264.901,146.667 264.901 C 145.954 264.901,145.662 264.977,146.019 265.070 M145.648 268.413 C 146.208 268.498,147.125 268.498,147.685 268.413 C 148.245 268.329,147.787 268.259,146.667 268.259 C 145.546 268.259,145.088 268.329,145.648 268.413 M135.347 269.722 L 134.259 270.926 135.463 269.838 C 136.585 268.824,136.837 268.519,136.551 268.519 C 136.487 268.519,135.945 269.060,135.347 269.722 M225.183 275.109 L 225.365 278.704 225.476 275.404 C 225.536 273.589,225.454 271.972,225.293 271.810 C 225.132 271.648,225.082 273.133,225.183 275.109 M175.689 275.185 C 175.689 277.120,175.751 277.912,175.828 276.944 C 175.904 275.977,175.904 274.394,175.828 273.426 C 175.751 272.458,175.689 273.250,175.689 275.185 M162.711 281.852 C 162.711 283.176,162.778 283.718,162.861 283.056 C 162.943 282.394,162.943 281.310,162.861 280.648 C 162.778 279.986,162.711 280.528,162.711 281.852 M172.711 281.852 C 172.711 283.176,172.778 283.718,172.861 283.056 C 172.943 282.394,172.943 281.310,172.861 280.648 C 172.778 279.986,172.711 280.528,172.711 281.852 M175.713 285.679 C 175.609 285.951,175.580 287.576,175.649 289.290 L 175.775 292.407 175.851 288.991 L 175.926 285.575 181.574 285.462 L 187.222 285.350 181.562 285.267 C 177.129 285.203,175.862 285.292,175.713 285.679 M190.000 285.463 C 190.000 285.616,194.750 285.741,200.556 285.741 C 206.361 285.741,211.111 285.616,211.111 285.463 C 211.111 285.310,206.361 285.185,200.556 285.185 C 194.750 285.185,190.000 285.310,190.000 285.463 M214.125 286.194 C 214.167 287.067,214.199 287.097,214.335 286.389 C 214.493 285.570,214.592 285.556,219.866 285.556 L 225.236 285.556 225.118 289.057 C 225.053 290.983,225.132 292.426,225.293 292.264 C 225.454 292.102,225.538 290.485,225.478 288.670 L 225.370 285.370 219.722 285.268 L 214.074 285.166 214.125 286.194 M231.759 285.460 C 233.236 285.530,235.653 285.530,237.130 285.460 C 238.606 285.390,237.398 285.332,234.444 285.332 C 231.491 285.332,230.282 285.390,231.759 285.460 M271.919 285.462 C 276.345 285.562,277.008 285.657,277.154 286.214 C 277.277 286.682,277.333 286.629,277.364 286.019 C 277.407 285.188,277.391 285.185,272.130 285.266 L 266.852 285.348 271.919 285.462 M214.125 289.700 C 214.097 291.063,214.199 292.256,214.352 292.351 C 214.505 292.445,214.582 291.664,214.523 290.613 C 214.346 287.456,214.178 287.071,214.125 289.700 M236.949 292.484 C 237.409 292.573,238.076 292.569,238.430 292.477 C 238.784 292.384,238.407 292.312,237.593 292.316 C 236.778 292.320,236.488 292.396,236.949 292.484 M268.611 292.496 C 269.782 292.569,271.699 292.569,272.870 292.496 C 274.042 292.422,273.083 292.362,270.741 292.362 C 268.398 292.362,267.440 292.422,268.611 292.496 M157.575 294.537 L 156.111 296.111 157.685 294.647 C 159.149 293.286,159.429 292.963,159.149 292.963 C 159.089 292.963,158.380 293.671,157.575 294.537 M102.315 297.673 C 102.875 297.758,103.792 297.758,104.352 297.673 C 104.912 297.588,104.454 297.518,103.333 297.518 C 102.213 297.518,101.755 297.588,102.315 297.673 M298.246 297.673 C 298.809 297.758,299.642 297.756,300.098 297.668 C 300.553 297.580,300.093 297.511,299.074 297.513 C 298.056 297.516,297.683 297.588,298.246 297.673 M175.632 302.500 L 175.708 306.111 175.832 302.790 C 175.910 300.724,176.126 299.361,176.404 299.185 C 176.711 298.990,176.647 298.898,176.204 298.895 C 175.625 298.889,175.564 299.277,175.632 302.500 M180.648 299.162 C 181.718 299.237,183.468 299.237,184.537 299.162 C 185.606 299.087,184.731 299.026,182.593 299.026 C 180.454 299.026,179.579 299.087,180.648 299.162 M221.044 299.166 L 225.237 299.284 225.119 302.571 C 225.053 304.379,225.125 305.780,225.278 305.685 C 225.431 305.590,225.556 304.022,225.556 302.200 L 225.556 298.889 221.204 298.968 L 216.852 299.047 221.044 299.166 M237.130 299.144 C 237.486 299.237,238.069 299.237,238.426 299.144 C 238.782 299.051,238.491 298.975,237.778 298.975 C 237.065 298.975,236.773 299.051,237.130 299.144 M264.907 299.144 C 265.264 299.237,265.847 299.237,266.204 299.144 C 266.560 299.051,266.269 298.975,265.556 298.975 C 264.843 298.975,264.551 299.051,264.907 299.144 M268.434 299.160 C 269.461 299.253,269.929 299.445,269.766 299.709 C 269.614 299.954,269.686 300.009,269.949 299.846 C 270.757 299.347,269.964 298.889,268.404 298.954 L 266.852 299.018 268.434 299.160 M164.977 300.463 L 163.889 301.667 165.093 300.579 C 166.215 299.565,166.467 299.259,166.180 299.259 C 166.117 299.259,165.575 299.801,164.977 300.463 M214.189 302.778 C 214.191 304.000,214.260 304.455,214.342 303.790 C 214.425 303.124,214.423 302.124,214.339 301.567 C 214.254 301.011,214.187 301.556,214.189 302.778 M144.727 304.706 C 145.187 304.795,145.854 304.792,146.208 304.699 C 146.562 304.606,146.185 304.534,145.370 304.538 C 144.556 304.542,144.266 304.618,144.727 304.706 M251.204 306.181 C 251.560 306.274,252.144 306.274,252.500 306.181 C 252.856 306.088,252.565 306.012,251.852 306.012 C 251.139 306.012,250.847 306.088,251.204 306.181 M254.167 306.181 C 254.523 306.274,255.106 306.274,255.463 306.181 C 255.819 306.088,255.528 306.012,254.815 306.012 C 254.102 306.012,253.810 306.088,254.167 306.181 M101.759 306.567 C 102.625 306.645,104.042 306.645,104.907 306.567 C 105.773 306.490,105.065 306.426,103.333 306.426 C 101.602 306.426,100.894 306.490,101.759 306.567 M297.511 306.569 C 298.485 306.646,299.985 306.645,300.845 306.567 C 301.704 306.489,300.907 306.427,299.074 306.428 C 297.241 306.429,296.537 306.492,297.511 306.569 M145.278 308.048 C 146.042 308.127,147.292 308.127,148.056 308.048 C 148.819 307.968,148.194 307.902,146.667 307.902 C 145.139 307.902,144.514 307.968,145.278 308.048 M108.519 319.815 C 108.519 323.787,108.644 327.037,108.796 327.037 C 108.949 327.037,109.074 323.787,109.074 319.815 C 109.074 315.843,108.949 312.593,108.796 312.593 C 108.644 312.593,108.519 315.843,108.519 319.815 M157.180 317.037 C 157.180 319.583,157.239 320.625,157.311 319.352 C 157.384 318.079,157.384 315.995,157.311 314.722 C 157.239 313.449,157.180 314.491,157.180 317.037 M212.378 319.815 C 212.378 323.889,212.432 325.606,212.498 323.631 C 212.565 321.656,212.565 318.322,212.499 316.223 C 212.433 314.125,212.378 315.741,212.378 319.815 M215.185 319.815 C 215.185 323.787,215.310 327.037,215.463 327.037 C 215.616 327.037,215.741 323.787,215.741 319.815 C 215.741 315.843,215.616 312.593,215.463 312.593 C 215.310 312.593,215.185 315.843,215.185 319.815 M287.121 319.907 L 287.205 327.222 287.315 320.202 C 287.393 315.161,287.552 313.100,287.879 312.893 C 288.196 312.691,288.138 312.602,287.685 312.598 C 287.087 312.593,287.043 313.154,287.121 319.907 M222.014 314.907 L 220.926 316.111 222.130 315.023 C 222.792 314.425,223.333 313.883,223.333 313.820 C 223.333 313.533,223.028 313.785,222.014 314.907 M230.773 314.956 L 229.879 316.111 230.938 315.104 C 231.521 314.550,231.923 314.030,231.832 313.949 C 231.741 313.868,231.264 314.321,230.773 314.956 M263.703 321.221 L 263.887 327.222 263.990 321.510 C 264.047 318.368,263.965 315.668,263.806 315.509 C 263.648 315.350,263.601 317.921,263.703 321.221 M298.249 318.148 C 298.249 319.065,298.321 319.440,298.410 318.981 C 298.498 318.523,298.498 317.773,298.410 317.315 C 298.321 316.856,298.249 317.231,298.249 318.148 M247.864 318.148 C 247.864 318.861,247.940 319.153,248.033 318.796 C 248.126 318.440,248.126 317.856,248.033 317.500 C 247.940 317.144,247.864 317.435,247.864 318.148 M227.778 320.000 C 227.778 320.815,227.916 321.481,228.084 321.481 C 228.252 321.481,228.314 320.963,228.221 320.329 C 228.114 319.597,228.238 319.059,228.563 318.854 C 228.968 318.597,228.939 318.529,228.426 318.524 C 227.916 318.520,227.778 318.834,227.778 320.000 M233.926 318.802 C 234.150 318.952,234.429 319.324,234.545 319.630 C 234.686 320.001,234.766 319.909,234.786 319.352 C 234.805 318.792,234.602 318.520,234.167 318.524 C 233.767 318.528,233.675 318.634,233.926 318.802 M285.649 319.815 C 285.653 320.630,285.729 320.919,285.818 320.459 C 285.906 319.998,285.903 319.331,285.810 318.977 C 285.717 318.623,285.645 319.000,285.649 319.815 M129.024 323.519 C 129.025 325.556,129.087 326.342,129.162 325.265 C 129.237 324.189,129.237 322.522,129.161 321.562 C 129.085 320.601,129.023 321.481,129.024 323.519 M172.253 323.056 C 172.338 323.106,172.907 323.565,173.519 324.074 L 174.630 325.000 173.732 323.981 C 173.238 323.421,172.668 322.963,172.466 322.963 C 172.264 322.963,172.168 323.005,172.253 323.056 M87.270 323.626 C 87.170 323.787,87.702 323.861,88.452 323.790 C 90.742 323.573,91.012 323.421,89.189 323.376 C 88.233 323.353,87.370 323.465,87.270 323.626 M185.418 323.626 C 185.319 323.787,185.850 323.861,186.600 323.790 C 188.890 323.573,189.160 323.421,187.337 323.376 C 186.381 323.353,185.518 323.465,185.418 323.626 M240.463 323.599 C 241.023 323.683,241.940 323.683,242.500 323.599 C 243.060 323.514,242.602 323.444,241.481 323.444 C 240.361 323.444,239.903 323.514,240.463 323.599 M254.172 323.599 C 254.735 323.684,255.568 323.682,256.024 323.594 C 256.479 323.506,256.019 323.436,255.000 323.439 C 253.981 323.442,253.609 323.514,254.172 323.599 M290.833 323.599 C 291.394 323.683,292.310 323.683,292.870 323.599 C 293.431 323.514,292.972 323.444,291.852 323.444 C 290.731 323.444,290.273 323.514,290.833 323.599 M309.722 323.599 C 310.282 323.683,311.199 323.683,311.759 323.599 C 312.319 323.514,311.861 323.444,310.741 323.444 C 309.620 323.444,309.162 323.514,309.722 323.599 M141.481 324.303 C 143.656 324.579,146.584 324.608,146.425 324.352 C 146.330 324.199,144.971 324.099,143.404 324.130 C 141.837 324.160,140.972 324.238,141.481 324.303 " stroke="none" fill="#8c8ca4" fill-rule="evenodd"></path></g></svg>